<svg xmlns="http://www.w3.org/2000/svg" width="1218" height="474" viewBox="0 0 1218 474">
  <g id="sintesis" transform="translate(-202 -404)">
    <rect id="Rectangle_39351" data-name="Rectangle 39351" width="250" height="90" rx="8" transform="translate(675 404)" fill="#1b4733"/>
    <path id="Rectangle_39351_-_Outline" data-name="Rectangle 39351 - Outline" d="M8,3A5.006,5.006,0,0,0,3,8V82a5.006,5.006,0,0,0,5,5H242a5.006,5.006,0,0,0,5-5V8a5.006,5.006,0,0,0-5-5H8M8,0H242a8,8,0,0,1,8,8V82a8,8,0,0,1-8,8H8a8,8,0,0,1-8-8V8A8,8,0,0,1,8,0Z" transform="translate(675 404)" fill="#257a53"/>
    <rect id="Rectangle_39355" data-name="Rectangle 39355" width="260" height="120" rx="8" transform="translate(202 588)" fill="#e1faee"/>
    <path id="Rectangle_39355_-_Outline" data-name="Rectangle 39355 - Outline" d="M8,3A5.006,5.006,0,0,0,3,8V112a5.006,5.006,0,0,0,5,5H252a5.006,5.006,0,0,0,5-5V8a5.006,5.006,0,0,0-5-5H8M8,0H252a8,8,0,0,1,8,8V112a8,8,0,0,1-8,8H8a8,8,0,0,1-8-8V8A8,8,0,0,1,8,0Z" transform="translate(202 588)" fill="#1d6142"/>
    <rect id="Rectangle_39359" data-name="Rectangle 39359" width="244" height="120" rx="8" transform="translate(210 758)" fill="#fff4e6"/>
    <path id="Rectangle_39359_-_Outline" data-name="Rectangle 39359 - Outline" d="M8,3A5.006,5.006,0,0,0,3,8V112a5.006,5.006,0,0,0,5,5H236a5.006,5.006,0,0,0,5-5V8a5.006,5.006,0,0,0-5-5H8M8,0H236a8,8,0,0,1,8,8V112a8,8,0,0,1-8,8H8a8,8,0,0,1-8-8V8A8,8,0,0,1,8,0Z" transform="translate(210 758)" fill="#ef9310"/>
    <rect id="Rectangle_39362" data-name="Rectangle 39362" width="158" height="105" rx="8" transform="translate(906 758)" fill="#fff4e6"/>
    <path id="Rectangle_39362_-_Outline" data-name="Rectangle 39362 - Outline" d="M8,3A5.006,5.006,0,0,0,3,8V97a5.006,5.006,0,0,0,5,5H150a5.006,5.006,0,0,0,5-5V8a5.006,5.006,0,0,0-5-5H8M8,0H150a8,8,0,0,1,8,8V97a8,8,0,0,1-8,8H8a8,8,0,0,1-8-8V8A8,8,0,0,1,8,0Z" transform="translate(906 758)" fill="#ef9310"/>
    <rect id="Rectangle_39363" data-name="Rectangle 39363" width="158" height="105" rx="8" transform="translate(1084 758)" fill="#fff4e6"/>
    <path id="Rectangle_39363_-_Outline" data-name="Rectangle 39363 - Outline" d="M8,3A5.006,5.006,0,0,0,3,8V97a5.006,5.006,0,0,0,5,5H150a5.006,5.006,0,0,0,5-5V8a5.006,5.006,0,0,0-5-5H8M8,0H150a8,8,0,0,1,8,8V97a8,8,0,0,1-8,8H8a8,8,0,0,1-8-8V8A8,8,0,0,1,8,0Z" transform="translate(1084 758)" fill="#ef9310"/>
    <rect id="Rectangle_39364" data-name="Rectangle 39364" width="158" height="105" rx="8" transform="translate(1262 758)" fill="#fff4e6"/>
    <path id="Rectangle_39364_-_Outline" data-name="Rectangle 39364 - Outline" d="M8,3A5.006,5.006,0,0,0,3,8V97a5.006,5.006,0,0,0,5,5H150a5.006,5.006,0,0,0,5-5V8a5.006,5.006,0,0,0-5-5H8M8,0H150a8,8,0,0,1,8,8V97a8,8,0,0,1-8,8H8a8,8,0,0,1-8-8V8A8,8,0,0,1,8,0Z" transform="translate(1262 758)" fill="#ef9310"/>
    <rect id="Rectangle_39356" data-name="Rectangle 39356" width="200" height="90" rx="8" transform="translate(583 588)" fill="#e1faee"/>
    <path id="Rectangle_39356_-_Outline" data-name="Rectangle 39356 - Outline" d="M8,3A5.006,5.006,0,0,0,3,8V82a5.006,5.006,0,0,0,5,5H192a5.006,5.006,0,0,0,5-5V8a5.006,5.006,0,0,0-5-5H8M8,0H192a8,8,0,0,1,8,8V82a8,8,0,0,1-8,8H8a8,8,0,0,1-8-8V8A8,8,0,0,1,8,0Z" transform="translate(583 588)" fill="#1d6142"/>
    <rect id="Rectangle_39357" data-name="Rectangle 39357" width="200" height="90" rx="8" transform="translate(1063 588)" fill="#e1faee"/>
    <path id="Rectangle_39357_-_Outline" data-name="Rectangle 39357 - Outline" d="M8,3A5.006,5.006,0,0,0,3,8V82a5.006,5.006,0,0,0,5,5H192a5.006,5.006,0,0,0,5-5V8a5.006,5.006,0,0,0-5-5H8M8,0H192a8,8,0,0,1,8,8V82a8,8,0,0,1-8,8H8a8,8,0,0,1-8-8V8A8,8,0,0,1,8,0Z" transform="translate(1063 588)" fill="#1d6142"/>
    <path id="Path_189730" data-name="Path 189730" d="M-87.328-3.586h-6.341L-94.777,0h-4.944l7.04-19.2h4.351L-81.237,0h-4.97Zm-5.234-3.573h4.126l-2.07-6.658Zm12-.079a9.632,9.632,0,0,1,.712-3.823,5.731,5.731,0,0,1,2.043-2.564,5.387,5.387,0,0,1,3.1-.9,4.283,4.283,0,0,1,3.48,1.5l.158-1.239h4.034V-.541a6.014,6.014,0,0,1-.877,3.276,5.625,5.625,0,0,1-2.538,2.136,9.328,9.328,0,0,1-3.85.745,8.048,8.048,0,0,1-3.039-.593A5.485,5.485,0,0,1-79.589,3.48L-77.73.87a4.074,4.074,0,0,0,3.27,1.463q2.953,0,2.953-3.032v-.448A4.172,4.172,0,0,1-74.738.264a5.155,5.155,0,0,1-4.219-2A8.275,8.275,0,0,1-80.565-7.08Zm4.456.277a5.074,5.074,0,0,0,.659,2.775A2.08,2.08,0,0,0-73.6-3.164a2.36,2.36,0,0,0,2.1-.962v-6a2.3,2.3,0,0,0-2.07-.976,2.094,2.094,0,0,0-1.859,1.061A5.787,5.787,0,0,0-76.109-6.961Zm20.224-3.283-1.463-.105q-2.1,0-2.689,1.318V0h-4.443V-14.265h4.166l.145,1.833a3.44,3.44,0,0,1,3.125-2.1,4.333,4.333,0,0,1,1.239.158Zm.567,2.979a8.419,8.419,0,0,1,.831-3.8A5.94,5.94,0,0,1-52.1-13.632a7.187,7.187,0,0,1,3.652-.9A6.559,6.559,0,0,1-43.4-12.544a7.614,7.614,0,0,1,1.846,5.4v.158a7.387,7.387,0,0,1-1.852,5.293A6.576,6.576,0,0,1-48.423.264a6.651,6.651,0,0,1-4.891-1.826,7.142,7.142,0,0,1-1.991-4.95Zm4.443.277a5.308,5.308,0,0,0,.62,2.9,2.064,2.064,0,0,0,1.833.923q2.373,0,2.426-3.652v-.448Q-46-11.1-48.45-11.1q-2.228,0-2.413,3.309ZM-32.7.264a7.333,7.333,0,0,1-5.313-1.958,6.761,6.761,0,0,1-2.03-5.1v-.369a8.76,8.76,0,0,1,.811-3.863,5.933,5.933,0,0,1,2.366-2.591,7.144,7.144,0,0,1,3.691-.916,6.175,6.175,0,0,1,4.746,1.865,7.331,7.331,0,0,1,1.74,5.2v1.727h-8.833A3.2,3.2,0,0,0-34.475-3.85a3.1,3.1,0,0,0,2.083.686,3.993,3.993,0,0,0,3.3-1.477l2.03,2.4A5.675,5.675,0,0,1-29.419-.415,7.952,7.952,0,0,1-32.7.264ZM-33.2-11.1q-1.951,0-2.32,2.584h4.482v-.343a2.2,2.2,0,0,0-.541-1.655A2.151,2.151,0,0,0-33.2-11.1Zm14.331,7.937a1.976,1.976,0,0,0,1.45-.508,1.861,1.861,0,0,0,.5-1.417h4.166a4.932,4.932,0,0,1-1.681,3.85A6.252,6.252,0,0,1-18.76.264a6.331,6.331,0,0,1-4.9-1.951,7.688,7.688,0,0,1-1.793-5.405v-.185a8.689,8.689,0,0,1,.8-3.817,5.807,5.807,0,0,1,2.3-2.544,6.86,6.86,0,0,1,3.56-.89,6.174,6.174,0,0,1,4.417,1.542,5.471,5.471,0,0,1,1.635,4.179h-4.166a2.439,2.439,0,0,0-.541-1.7,1.866,1.866,0,0,0-1.45-.593q-1.727,0-2.017,2.2a15.535,15.535,0,0,0-.092,1.925A6.1,6.1,0,0,0-20.5-3.995,1.78,1.78,0,0,0-18.866-3.164Zm7.436-4.1a8.419,8.419,0,0,1,.831-3.8,5.94,5.94,0,0,1,2.386-2.564,7.187,7.187,0,0,1,3.652-.9A6.559,6.559,0,0,1,.488-12.544a7.614,7.614,0,0,1,1.846,5.4v.158A7.387,7.387,0,0,1,.481-1.694,6.576,6.576,0,0,1-4.535.264,6.651,6.651,0,0,1-9.426-1.562a7.142,7.142,0,0,1-1.991-4.95Zm4.443.277a5.308,5.308,0,0,0,.62,2.9,2.064,2.064,0,0,0,1.833.923q2.373,0,2.426-3.652v-.448q0-3.836-2.452-3.836-2.228,0-2.413,3.309ZM11.76-4.008a1.026,1.026,0,0,0-.593-.91,9.024,9.024,0,0,0-2.254-.712A10.28,10.28,0,0,1,6.17-6.6,4.593,4.593,0,0,1,4.522-8.055a3.479,3.479,0,0,1-.567-1.964,3.943,3.943,0,0,1,1.622-3.237,6.68,6.68,0,0,1,4.245-1.272,7.4,7.4,0,0,1,4.535,1.279,4,4,0,0,1,1.714,3.362H11.615q0-1.714-1.806-1.714a1.79,1.79,0,0,0-1.173.389,1.2,1.2,0,0,0-.475.969,1.105,1.105,0,0,0,.58.962,5.481,5.481,0,0,0,1.852.606,16.007,16.007,0,0,1,2.235.567Q16.044-7,16.044-4.14A3.736,3.736,0,0,1,14.311-.962,7.6,7.6,0,0,1,9.822.264,7.758,7.758,0,0,1,6.552-.4,5.467,5.467,0,0,1,4.311-2.188a4.06,4.06,0,0,1-.8-2.386H7.66a1.717,1.717,0,0,0,.659,1.444,2.711,2.711,0,0,0,1.622.455A2.133,2.133,0,0,0,11.3-3.045,1.181,1.181,0,0,0,11.76-4.008ZM22.808,0H18.352V-14.265h4.456Zm-4.72-17.956a2,2,0,0,1,.686-1.565,2.577,2.577,0,0,1,1.78-.61,2.577,2.577,0,0,1,1.78.61,2,2,0,0,1,.686,1.565,2,2,0,0,1-.686,1.565,2.577,2.577,0,0,1-1.78.61,2.577,2.577,0,0,1-1.78-.61A2,2,0,0,1,18.088-17.956ZM33.012-4.008a1.026,1.026,0,0,0-.593-.91,9.024,9.024,0,0,0-2.254-.712A10.28,10.28,0,0,1,27.422-6.6a4.593,4.593,0,0,1-1.648-1.457,3.479,3.479,0,0,1-.567-1.964,3.943,3.943,0,0,1,1.622-3.237,6.68,6.68,0,0,1,4.245-1.272,7.4,7.4,0,0,1,4.535,1.279,4,4,0,0,1,1.714,3.362H32.867q0-1.714-1.806-1.714a1.79,1.79,0,0,0-1.173.389,1.2,1.2,0,0,0-.475.969,1.105,1.105,0,0,0,.58.962,5.481,5.481,0,0,0,1.852.606,16.007,16.007,0,0,1,2.235.567Q37.3-7,37.3-4.14A3.736,3.736,0,0,1,35.563-.962,7.6,7.6,0,0,1,31.074.264,7.758,7.758,0,0,1,27.8-.4a5.467,5.467,0,0,1-2.241-1.793,4.06,4.06,0,0,1-.8-2.386h4.153a1.717,1.717,0,0,0,.659,1.444,2.711,2.711,0,0,0,1.622.455,2.133,2.133,0,0,0,1.365-.369A1.181,1.181,0,0,0,33.012-4.008Zm11.536-13.8v3.546h2.347v3.085H44.547v6.526a1.666,1.666,0,0,0,.29,1.121,1.556,1.556,0,0,0,1.147.316A6.518,6.518,0,0,0,47.092-3.3V-.119a8.2,8.2,0,0,1-2.5.382A4.654,4.654,0,0,1,41.2-.817,4.431,4.431,0,0,1,40.1-4.1v-7.08H38.285v-3.085H40.1v-3.546Zm11,18.075a7.333,7.333,0,0,1-5.313-1.958,6.761,6.761,0,0,1-2.03-5.1v-.369a8.76,8.76,0,0,1,.811-3.863,5.933,5.933,0,0,1,2.366-2.591,7.144,7.144,0,0,1,3.691-.916,6.175,6.175,0,0,1,4.746,1.865,7.331,7.331,0,0,1,1.74,5.2v1.727H52.721A3.2,3.2,0,0,0,53.763-3.85a3.1,3.1,0,0,0,2.083.686,3.993,3.993,0,0,0,3.3-1.477l2.03,2.4A5.675,5.675,0,0,1,58.819-.415,7.952,7.952,0,0,1,55.542.264Zm-.5-11.364q-1.951,0-2.32,2.584H57.2v-.343a2.2,2.2,0,0,0-.541-1.655A2.151,2.151,0,0,0,55.042-11.1Zm12.5-3.164.145,1.674a4.9,4.9,0,0,1,4.074-1.938,3.611,3.611,0,0,1,3.652,2.149A4.747,4.747,0,0,1,79.6-14.528q4.337,0,4.456,5.247V0H79.6V-9a2.719,2.719,0,0,0-.369-1.6,1.571,1.571,0,0,0-1.345-.5,2.1,2.1,0,0,0-1.964,1.173l.013.185V0H71.481V-8.978a2.858,2.858,0,0,0-.356-1.622,1.567,1.567,0,0,0-1.358-.5,2.131,2.131,0,0,0-1.951,1.173V0H63.374V-14.265ZM94.632,0a5.016,5.016,0,0,1-.422-1.279A4.131,4.131,0,0,1,90.782.264,5.061,5.061,0,0,1,87.354-.956a3.882,3.882,0,0,1-1.411-3.065,3.989,3.989,0,0,1,1.714-3.507,8.731,8.731,0,0,1,4.983-1.187h1.371V-9.47q0-1.974-1.7-1.974A1.39,1.39,0,0,0,90.729-9.88H86.287a3.983,3.983,0,0,1,1.76-3.358,7.4,7.4,0,0,1,4.489-1.29A6.485,6.485,0,0,1,96.847-13.2a4.629,4.629,0,0,1,1.622,3.652V-3.23a6.467,6.467,0,0,0,.606,3.006V0ZM91.85-2.9a2.478,2.478,0,0,0,1.378-.356,2.231,2.231,0,0,0,.784-.8V-6.341H92.72q-2.32,0-2.32,2.083a1.272,1.272,0,0,0,.409.982A1.479,1.479,0,0,0,91.85-2.9Z" transform="translate(800 459)" fill="#fff"/>
    <path id="Path_189721" data-name="Path 189721" d="M-51.584-5.307V0h-3.771V-15.641h6.241a7.269,7.269,0,0,1,3.174.661A4.979,4.979,0,0,1-43.8-13.1a5.134,5.134,0,0,1,.757,2.766,4.526,4.526,0,0,1-1.638,3.658,6.8,6.8,0,0,1-4.5,1.37Zm0-2.911h2.471a2.33,2.33,0,0,0,1.67-.548,2.035,2.035,0,0,0,.575-1.547,2.516,2.516,0,0,0-.591-1.751,2.092,2.092,0,0,0-1.611-.666h-2.514Zm17.413-.129-1.192-.086a2.142,2.142,0,0,0-2.191,1.074V0h-3.62V-11.623h3.395l.118,1.493a2.8,2.8,0,0,1,2.546-1.708,3.53,3.53,0,0,1,1.01.129Zm.462,2.428a6.86,6.86,0,0,1,.677-3.1,4.84,4.84,0,0,1,1.944-2.089,5.856,5.856,0,0,1,2.976-.73A5.344,5.344,0,0,1-24-10.221a6.2,6.2,0,0,1,1.5,4.4v.129A6.019,6.019,0,0,1-24-1.38a5.359,5.359,0,0,1-4.087,1.6,5.42,5.42,0,0,1-3.985-1.488A5.819,5.819,0,0,1-33.7-5.307Zm3.62.226a4.325,4.325,0,0,0,.5,2.363,1.682,1.682,0,0,0,1.493.752q1.934,0,1.977-2.976v-.365q0-3.126-2-3.126-1.815,0-1.966,2.7Zm8.733-.2a7.1,7.1,0,0,1,1.192-4.351,3.925,3.925,0,0,1,3.33-1.59,3.338,3.338,0,0,1,2.621,1.225V-16.5h3.631V0h-3.255l-.183-1.246A3.428,3.428,0,0,1-16.854.215a3.918,3.918,0,0,1-3.287-1.59A7.325,7.325,0,0,1-21.355-5.9Zm3.62.226q0,3.094,1.8,3.094a1.782,1.782,0,0,0,1.719-1.01V-8.014a1.734,1.734,0,0,0-1.7-1.031q-1.676,0-1.815,2.707ZM-1.6-1.257A3.732,3.732,0,0,1-4.705.215,3.661,3.661,0,0,1-7.6-.9a4.676,4.676,0,0,1-.983-3.2v-7.53h3.62v7.552a1.3,1.3,0,0,0,1.45,1.493A1.892,1.892,0,0,0-1.74-3.47v-8.153H1.9V0H-1.493ZM8.8-2.578a1.61,1.61,0,0,0,1.182-.414,1.517,1.517,0,0,0,.408-1.155h3.395a4.018,4.018,0,0,1-1.37,3.137A5.1,5.1,0,0,1,8.884.215a5.158,5.158,0,0,1-4-1.59,6.264,6.264,0,0,1-1.461-4.4v-.15a7.08,7.08,0,0,1,.65-3.11,4.732,4.732,0,0,1,1.875-2.073,5.589,5.589,0,0,1,2.9-.725,5.03,5.03,0,0,1,3.6,1.257,4.458,4.458,0,0,1,1.332,3.405H10.388a1.987,1.987,0,0,0-.44-1.386,1.52,1.52,0,0,0-1.182-.483q-1.407,0-1.644,1.794a12.658,12.658,0,0,0-.075,1.568,4.972,4.972,0,0,0,.419,2.428A1.45,1.45,0,0,0,8.8-2.578Zm11.43,0a1.61,1.61,0,0,0,1.182-.414,1.517,1.517,0,0,0,.408-1.155h3.395a4.018,4.018,0,0,1-1.37,3.137A5.1,5.1,0,0,1,20.313.215a5.158,5.158,0,0,1-4-1.59,6.264,6.264,0,0,1-1.461-4.4v-.15a7.08,7.08,0,0,1,.65-3.11,4.732,4.732,0,0,1,1.875-2.073,5.589,5.589,0,0,1,2.9-.725,5.03,5.03,0,0,1,3.6,1.257,4.458,4.458,0,0,1,1.332,3.405H21.817a1.987,1.987,0,0,0-.44-1.386A1.52,1.52,0,0,0,20.2-9.045q-1.407,0-1.644,1.794a12.658,12.658,0,0,0-.075,1.568A4.972,4.972,0,0,0,18.9-3.255,1.45,1.45,0,0,0,20.228-2.578ZM30.562,0H26.931V-11.623h3.631ZM26.716-14.631a1.63,1.63,0,0,1,.559-1.275,2.1,2.1,0,0,1,1.45-.5,2.1,2.1,0,0,1,1.45.5,1.63,1.63,0,0,1,.559,1.275,1.63,1.63,0,0,1-.559,1.275,2.1,2.1,0,0,1-1.45.5,2.1,2.1,0,0,1-1.45-.5A1.63,1.63,0,0,1,26.716-14.631Zm5.618,8.712a6.86,6.86,0,0,1,.677-3.1,4.84,4.84,0,0,1,1.944-2.089,5.856,5.856,0,0,1,2.976-.73,5.344,5.344,0,0,1,4.114,1.617,6.2,6.2,0,0,1,1.5,4.4v.129A6.019,6.019,0,0,1,42.04-1.38a5.359,5.359,0,0,1-4.087,1.6,5.42,5.42,0,0,1-3.985-1.488,5.819,5.819,0,0,1-1.622-4.034Zm3.62.226a4.325,4.325,0,0,0,.5,2.363,1.682,1.682,0,0,0,1.493.752q1.934,0,1.977-2.976v-.365q0-3.126-2-3.126-1.815,0-1.966,2.7ZM38.425-16.5h3.824l-2.986,3.373-2.954-.005Zm10.044,4.877.118,1.364a3.942,3.942,0,0,1,3.319-1.579,3.316,3.316,0,0,1,2.712,1.085,5.165,5.165,0,0,1,.929,3.266V0H51.917V-7.337a1.961,1.961,0,0,0-.354-1.294,1.64,1.64,0,0,0-1.289-.414,1.726,1.726,0,0,0-1.579.838V0h-3.62V-11.623ZM-108.448,28a4.087,4.087,0,0,1-.344-1.042,3.366,3.366,0,0,1-2.793,1.257,4.124,4.124,0,0,1-2.793-.994,3.163,3.163,0,0,1-1.149-2.5,3.251,3.251,0,0,1,1.4-2.857,7.114,7.114,0,0,1,4.061-.967h1.117v-.615q0-1.608-1.386-1.608a1.133,1.133,0,0,0-1.289,1.274h-3.62a3.245,3.245,0,0,1,1.434-2.736,6.027,6.027,0,0,1,3.658-1.051,5.284,5.284,0,0,1,3.513,1.085,3.772,3.772,0,0,1,1.321,2.976v5.146a5.269,5.269,0,0,0,.494,2.449V28Zm-2.267-2.363a2.019,2.019,0,0,0,1.123-.29,1.818,1.818,0,0,0,.639-.655V22.833h-1.053q-1.891,0-1.891,1.7a1.036,1.036,0,0,0,.333.8A1.205,1.205,0,0,0-110.714,25.637Zm6.972-3.534a7.848,7.848,0,0,1,.58-3.115A4.67,4.67,0,0,1-101.5,16.9a4.389,4.389,0,0,1,2.524-.736,3.49,3.49,0,0,1,2.836,1.225l.129-1.01h3.287V27.56a4.9,4.9,0,0,1-.714,2.669,4.584,4.584,0,0,1-2.068,1.74,7.6,7.6,0,0,1-3.137.607,6.557,6.557,0,0,1-2.476-.483,4.47,4.47,0,0,1-1.832-1.257l1.515-2.127A3.319,3.319,0,0,0-98.769,29.9a2.156,2.156,0,0,0,2.406-2.471v-.365a3.4,3.4,0,0,1-2.632,1.149,4.2,4.2,0,0,1-3.437-1.627,6.743,6.743,0,0,1-1.311-4.356Zm3.631.226a4.135,4.135,0,0,0,.537,2.261,1.7,1.7,0,0,0,1.5.833,1.923,1.923,0,0,0,1.708-.784V19.75a1.875,1.875,0,0,0-1.687-.795,1.706,1.706,0,0,0-1.515.865A4.715,4.715,0,0,0-100.112,22.328Zm16.479-2.675-1.192-.086a2.142,2.142,0,0,0-2.191,1.074V28h-3.62V16.377h3.395l.118,1.493a2.8,2.8,0,0,1,2.546-1.708,3.53,3.53,0,0,1,1.01.129Zm.462,2.428a6.86,6.86,0,0,1,.677-3.1,4.84,4.84,0,0,1,1.944-2.089,5.856,5.856,0,0,1,2.976-.73,5.344,5.344,0,0,1,4.114,1.617,6.2,6.2,0,0,1,1.5,4.4v.129a6.019,6.019,0,0,1-1.509,4.313,5.359,5.359,0,0,1-4.087,1.6,5.42,5.42,0,0,1-3.985-1.488,5.819,5.819,0,0,1-1.622-4.034Zm3.62.226a4.325,4.325,0,0,0,.5,2.363,1.682,1.682,0,0,0,1.493.752q1.934,0,1.977-2.976v-.365q0-3.126-2-3.126-1.815,0-1.966,2.7Zm19.98-.032A7.009,7.009,0,0,1-60.79,26.6a3.909,3.909,0,0,1-3.292,1.617,3.351,3.351,0,0,1-2.632-1.171v5.425h-3.62V16.377h3.384l.107,1.074A3.351,3.351,0,0,1-64.1,16.162a3.941,3.941,0,0,1,3.341,1.584A7.1,7.1,0,0,1-59.571,22.1Zm-3.62-.226q0-3.094-1.8-3.094a1.7,1.7,0,0,0-1.719.924v4.576a1.759,1.759,0,0,0,1.74.967q1.729,0,1.783-2.986Zm10.839,6.166a5.975,5.975,0,0,1-4.329-1.6,5.509,5.509,0,0,1-1.654-4.152v-.3a7.138,7.138,0,0,1,.661-3.147,4.834,4.834,0,0,1,1.928-2.111,5.821,5.821,0,0,1,3.008-.747,5.031,5.031,0,0,1,3.867,1.52,5.973,5.973,0,0,1,1.418,4.238v1.407h-7.2a2.609,2.609,0,0,0,.849,1.536,2.525,2.525,0,0,0,1.7.559,3.254,3.254,0,0,0,2.686-1.2l1.654,1.955a4.624,4.624,0,0,1-1.917,1.488A6.48,6.48,0,0,1-52.352,28.215Zm-.408-9.26q-1.59,0-1.891,2.105H-51v-.279a1.793,1.793,0,0,0-.44-1.348A1.753,1.753,0,0,0-52.76,18.955Zm11.677,6.467a1.61,1.61,0,0,0,1.182-.414,1.517,1.517,0,0,0,.408-1.155H-36.1a4.018,4.018,0,0,1-1.37,3.137A5.1,5.1,0,0,1-41,28.215a5.158,5.158,0,0,1-4-1.59,6.264,6.264,0,0,1-1.461-4.4v-.15a7.08,7.08,0,0,1,.65-3.11,4.732,4.732,0,0,1,1.875-2.073,5.589,5.589,0,0,1,2.9-.725,5.03,5.03,0,0,1,3.6,1.257A4.458,4.458,0,0,1-36.1,20.824h-3.395a1.987,1.987,0,0,0-.44-1.386,1.52,1.52,0,0,0-1.182-.483q-1.407,0-1.644,1.794a12.659,12.659,0,0,0-.075,1.568,4.972,4.972,0,0,0,.419,2.428A1.45,1.45,0,0,0-41.083,25.422Zm13.438,1.321a3.732,3.732,0,0,1-3.1,1.472,3.661,3.661,0,0,1-2.9-1.112,4.676,4.676,0,0,1-.983-3.2v-7.53h3.62v7.552a1.3,1.3,0,0,0,1.45,1.493,1.892,1.892,0,0,0,1.772-.892V16.377h3.642V28h-3.395ZM-15.614,28a4.087,4.087,0,0,1-.344-1.042,3.366,3.366,0,0,1-2.793,1.257,4.124,4.124,0,0,1-2.793-.994,3.163,3.163,0,0,1-1.149-2.5,3.251,3.251,0,0,1,1.4-2.857,7.114,7.114,0,0,1,4.061-.967h1.117v-.615q0-1.608-1.386-1.608a1.133,1.133,0,0,0-1.289,1.274h-3.62a3.245,3.245,0,0,1,1.434-2.736,6.027,6.027,0,0,1,3.658-1.051,5.284,5.284,0,0,1,3.513,1.085,3.772,3.772,0,0,1,1.321,2.976v5.146a5.269,5.269,0,0,0,.494,2.449V28Zm-2.267-2.363a2.019,2.019,0,0,0,1.123-.29,1.818,1.818,0,0,0,.639-.655V22.833h-1.053q-1.891,0-1.891,1.7a1.036,1.036,0,0,0,.333.8A1.205,1.205,0,0,0-17.88,25.637Zm14.427-5.983-1.192-.086a2.142,2.142,0,0,0-2.191,1.074V28h-3.62V16.377h3.395l.118,1.493A2.8,2.8,0,0,1-4.4,16.162a3.53,3.53,0,0,1,1.01.129ZM1.67,28H-1.96V16.377H1.67ZM-2.175,13.369a1.63,1.63,0,0,1,.559-1.275,2.1,2.1,0,0,1,1.45-.5,2.1,2.1,0,0,1,1.45.5,1.735,1.735,0,0,1,0,2.551,2.1,2.1,0,0,1-1.45.5,2.1,2.1,0,0,1-1.45-.5A1.63,1.63,0,0,1-2.175,13.369ZM10.447,28a4.087,4.087,0,0,1-.344-1.042A3.366,3.366,0,0,1,7.31,28.215a4.124,4.124,0,0,1-2.793-.994,3.163,3.163,0,0,1-1.149-2.5,3.251,3.251,0,0,1,1.4-2.857A7.114,7.114,0,0,1,8.825,20.9H9.942v-.615q0-1.608-1.386-1.608A1.133,1.133,0,0,0,7.267,19.95H3.647a3.245,3.245,0,0,1,1.434-2.736,6.027,6.027,0,0,1,3.658-1.051,5.284,5.284,0,0,1,3.513,1.085,3.772,3.772,0,0,1,1.321,2.976v5.146a5.269,5.269,0,0,0,.494,2.449V28ZM8.18,25.637a2.019,2.019,0,0,0,1.123-.29,1.818,1.818,0,0,0,.639-.655V22.833H8.889Q7,22.833,7,24.53a1.036,1.036,0,0,0,.333.8A1.205,1.205,0,0,0,8.18,25.637Zm18.5,2.578a5.975,5.975,0,0,1-4.329-1.6,5.509,5.509,0,0,1-1.654-4.152v-.3a7.138,7.138,0,0,1,.661-3.147,4.834,4.834,0,0,1,1.928-2.111,5.821,5.821,0,0,1,3.008-.747,5.031,5.031,0,0,1,3.867,1.52,5.973,5.973,0,0,1,1.418,4.238v1.407h-7.2a2.609,2.609,0,0,0,.849,1.536,2.525,2.525,0,0,0,1.7.559,3.254,3.254,0,0,0,2.686-1.2l1.654,1.955a4.624,4.624,0,0,1-1.917,1.488A6.48,6.48,0,0,1,26.678,28.215Zm-.408-9.26q-1.59,0-1.891,2.105h3.652v-.279a1.793,1.793,0,0,0-.44-1.348A1.753,1.753,0,0,0,26.27,18.955Zm11.677,6.467a1.61,1.61,0,0,0,1.182-.414,1.517,1.517,0,0,0,.408-1.155h3.395a4.018,4.018,0,0,1-1.37,3.137,5.1,5.1,0,0,1-3.529,1.225,5.158,5.158,0,0,1-4-1.59,6.264,6.264,0,0,1-1.461-4.4v-.15a7.08,7.08,0,0,1,.65-3.11A4.732,4.732,0,0,1,35.1,16.887a5.589,5.589,0,0,1,2.9-.725,5.03,5.03,0,0,1,3.6,1.257,4.458,4.458,0,0,1,1.332,3.405H39.537a1.987,1.987,0,0,0-.44-1.386,1.52,1.52,0,0,0-1.182-.483q-1.407,0-1.644,1.794a12.659,12.659,0,0,0-.075,1.568,4.972,4.972,0,0,0,.419,2.428A1.45,1.45,0,0,0,37.947,25.422Zm6.059-3.341a6.86,6.86,0,0,1,.677-3.1,4.84,4.84,0,0,1,1.944-2.089,5.856,5.856,0,0,1,2.976-.73,5.344,5.344,0,0,1,4.114,1.617,6.2,6.2,0,0,1,1.5,4.4v.129a6.019,6.019,0,0,1-1.509,4.313,5.359,5.359,0,0,1-4.087,1.6,5.42,5.42,0,0,1-3.985-1.488,5.819,5.819,0,0,1-1.622-4.034Zm3.62.226a4.325,4.325,0,0,0,.5,2.363,1.682,1.682,0,0,0,1.493.752q1.934,0,1.977-2.976v-.365q0-3.126-2-3.126-1.815,0-1.966,2.7ZM60.634,28H57V11.5h3.631Zm1.772-5.919a6.86,6.86,0,0,1,.677-3.1,4.84,4.84,0,0,1,1.944-2.089A5.856,5.856,0,0,1,68,16.162a5.344,5.344,0,0,1,4.114,1.617,6.2,6.2,0,0,1,1.5,4.4v.129a6.019,6.019,0,0,1-1.509,4.313,5.359,5.359,0,0,1-4.087,1.6,5.42,5.42,0,0,1-3.985-1.488,5.819,5.819,0,0,1-1.622-4.034Zm3.62.226a4.325,4.325,0,0,0,.5,2.363,1.682,1.682,0,0,0,1.493.752q1.934,0,1.977-2.976v-.365q0-3.126-2-3.126-1.815,0-1.966,2.7ZM68.5,11.5h3.824l-2.986,3.373-2.954-.005Zm6.295,10.6a7.848,7.848,0,0,1,.58-3.115A4.67,4.67,0,0,1,77.038,16.9a4.389,4.389,0,0,1,2.524-.736A3.49,3.49,0,0,1,82.4,17.387l.129-1.01h3.287V27.56a4.9,4.9,0,0,1-.714,2.669,4.584,4.584,0,0,1-2.068,1.74,7.6,7.6,0,0,1-3.137.607,6.557,6.557,0,0,1-2.476-.483,4.47,4.47,0,0,1-1.832-1.257L77.1,28.709A3.319,3.319,0,0,0,79.766,29.9a2.156,2.156,0,0,0,2.406-2.471v-.365a3.4,3.4,0,0,1-2.632,1.149A4.2,4.2,0,0,1,76.1,26.587a6.743,6.743,0,0,1-1.311-4.356Zm3.631.226a4.135,4.135,0,0,0,.537,2.261,1.7,1.7,0,0,0,1.5.833,1.923,1.923,0,0,0,1.708-.784V19.75a1.875,1.875,0,0,0-1.687-.795,1.706,1.706,0,0,0-1.515.865A4.715,4.715,0,0,0,78.423,22.328ZM91.69,28H88.059V16.377H91.69ZM87.844,13.369a1.63,1.63,0,0,1,.559-1.275,2.364,2.364,0,0,1,2.9,0,1.735,1.735,0,0,1,0,2.551,2.364,2.364,0,0,1-2.9,0A1.63,1.63,0,0,1,87.844,13.369ZM98.833,25.422a1.61,1.61,0,0,0,1.182-.414,1.517,1.517,0,0,0,.408-1.155h3.395a4.018,4.018,0,0,1-1.37,3.137,5.1,5.1,0,0,1-3.529,1.225,5.158,5.158,0,0,1-4-1.59,6.264,6.264,0,0,1-1.461-4.4v-.15a7.08,7.08,0,0,1,.65-3.11,4.732,4.732,0,0,1,1.875-2.073,5.589,5.589,0,0,1,2.9-.725,5.03,5.03,0,0,1,3.6,1.257,4.458,4.458,0,0,1,1.332,3.405h-3.395a1.987,1.987,0,0,0-.44-1.386,1.52,1.52,0,0,0-1.182-.483q-1.407,0-1.644,1.794a12.658,12.658,0,0,0-.075,1.568,4.972,4.972,0,0,0,.419,2.428A1.45,1.45,0,0,0,98.833,25.422ZM111.9,28a4.087,4.087,0,0,1-.344-1.042,3.366,3.366,0,0,1-2.793,1.257,4.124,4.124,0,0,1-2.793-.994,3.163,3.163,0,0,1-1.149-2.5,3.251,3.251,0,0,1,1.4-2.857,7.114,7.114,0,0,1,4.061-.967h1.117v-.615q0-1.608-1.386-1.608a1.133,1.133,0,0,0-1.289,1.274H105.1a3.245,3.245,0,0,1,1.434-2.736,6.027,6.027,0,0,1,3.658-1.051,5.284,5.284,0,0,1,3.513,1.085,3.772,3.772,0,0,1,1.321,2.976v5.146a5.269,5.269,0,0,0,.494,2.449V28Zm-2.267-2.363a2.019,2.019,0,0,0,1.123-.29,1.818,1.818,0,0,0,.639-.655V22.833h-1.053q-1.891,0-1.891,1.7a1.036,1.036,0,0,0,.333.8A1.205,1.205,0,0,0,109.629,25.637ZM-73.079,50.93l1.934-6.553h3.878L-72,57.944l-.2.494a3.6,3.6,0,0,1-3.566,2.256,5.674,5.674,0,0,1-1.493-.214V57.9h.473a2.476,2.476,0,0,0,1.166-.22,1.337,1.337,0,0,0,.6-.79l.29-.774-4.039-11.74h3.867ZM-54.3,56a4.088,4.088,0,0,1-.344-1.042,3.366,3.366,0,0,1-2.793,1.257,4.124,4.124,0,0,1-2.793-.994,3.163,3.163,0,0,1-1.149-2.5,3.251,3.251,0,0,1,1.4-2.857,7.114,7.114,0,0,1,4.061-.967h1.117v-.615q0-1.608-1.386-1.608a1.133,1.133,0,0,0-1.289,1.274H-61.1a3.245,3.245,0,0,1,1.434-2.736,6.027,6.027,0,0,1,3.658-1.051A5.284,5.284,0,0,1-52.5,45.247a3.772,3.772,0,0,1,1.321,2.976v5.146a5.269,5.269,0,0,0,.494,2.449V56Zm-2.267-2.363a2.019,2.019,0,0,0,1.123-.29,1.818,1.818,0,0,0,.639-.655V50.833h-1.053q-1.891,0-1.891,1.7a1.036,1.036,0,0,0,.333.8A1.205,1.205,0,0,0-56.568,53.637ZM-49.6,50.1a7.848,7.848,0,0,1,.58-3.115A4.67,4.67,0,0,1-47.352,44.9a4.389,4.389,0,0,1,2.524-.736,3.49,3.49,0,0,1,2.836,1.225l.129-1.01h3.287V55.56a4.9,4.9,0,0,1-.714,2.669,4.584,4.584,0,0,1-2.068,1.74,7.6,7.6,0,0,1-3.137.607,6.557,6.557,0,0,1-2.476-.483A4.47,4.47,0,0,1-48.8,58.836l1.515-2.127A3.319,3.319,0,0,0-44.623,57.9a2.156,2.156,0,0,0,2.406-2.471v-.365a3.4,3.4,0,0,1-2.632,1.149,4.2,4.2,0,0,1-3.437-1.627A6.743,6.743,0,0,1-49.6,50.231Zm3.631.226a4.135,4.135,0,0,0,.537,2.261,1.7,1.7,0,0,0,1.5.833,1.923,1.923,0,0,0,1.708-.784V47.75a1.875,1.875,0,0,0-1.687-.795,1.706,1.706,0,0,0-1.515.865A4.715,4.715,0,0,0-45.966,50.328Zm16.479-2.675-1.192-.086a2.142,2.142,0,0,0-2.191,1.074V56h-3.62V44.377H-33.1l.118,1.493a2.8,2.8,0,0,1,2.546-1.708,3.53,3.53,0,0,1,1.01.129Zm.462,2.428a6.86,6.86,0,0,1,.677-3.1A4.84,4.84,0,0,1-26.4,44.893a5.856,5.856,0,0,1,2.976-.73,5.344,5.344,0,0,1,4.114,1.617,6.2,6.2,0,0,1,1.5,4.4v.129A6.019,6.019,0,0,1-19.32,54.62a5.359,5.359,0,0,1-4.087,1.6,5.42,5.42,0,0,1-3.985-1.488,5.819,5.819,0,0,1-1.622-4.034Zm3.62.226a4.325,4.325,0,0,0,.5,2.363,1.682,1.682,0,0,0,1.493.752q1.934,0,1.977-2.976v-.365q0-3.126-2-3.126-1.815,0-1.966,2.7Zm14.813,5.908a5.975,5.975,0,0,1-4.329-1.6,5.509,5.509,0,0,1-1.654-4.152v-.3a7.138,7.138,0,0,1,.661-3.147,4.834,4.834,0,0,1,1.928-2.111,5.821,5.821,0,0,1,3.008-.747,5.031,5.031,0,0,1,3.867,1.52A5.973,5.973,0,0,1-5.693,49.92v1.407h-7.2a2.609,2.609,0,0,0,.849,1.536,2.525,2.525,0,0,0,1.7.559,3.254,3.254,0,0,0,2.686-1.2L-6,54.174a4.624,4.624,0,0,1-1.917,1.488A6.48,6.48,0,0,1-10.592,56.215ZM-11,46.955q-1.59,0-1.891,2.105h3.652v-.279a1.793,1.793,0,0,0-.44-1.348A1.753,1.753,0,0,0-11,46.955ZM.677,53.422a1.61,1.61,0,0,0,1.182-.414,1.517,1.517,0,0,0,.408-1.155H5.661a4.018,4.018,0,0,1-1.37,3.137A5.1,5.1,0,0,1,.763,56.215a5.158,5.158,0,0,1-4-1.59,6.264,6.264,0,0,1-1.461-4.4v-.15a7.08,7.08,0,0,1,.65-3.11A4.732,4.732,0,0,1-2.17,44.887a5.589,5.589,0,0,1,2.9-.725,5.03,5.03,0,0,1,3.6,1.257,4.458,4.458,0,0,1,1.332,3.405H2.267a1.987,1.987,0,0,0-.44-1.386,1.52,1.52,0,0,0-1.182-.483q-1.407,0-1.644,1.794a12.658,12.658,0,0,0-.075,1.568,4.972,4.972,0,0,0,.419,2.428A1.45,1.45,0,0,0,.677,53.422Zm6.059-3.341a6.86,6.86,0,0,1,.677-3.1,4.84,4.84,0,0,1,1.944-2.089,5.856,5.856,0,0,1,2.976-.73,5.344,5.344,0,0,1,4.114,1.617,6.2,6.2,0,0,1,1.5,4.4v.129a6.019,6.019,0,0,1-1.509,4.313,5.359,5.359,0,0,1-4.087,1.6,5.42,5.42,0,0,1-3.985-1.488,5.819,5.819,0,0,1-1.622-4.034Zm3.62.226a4.325,4.325,0,0,0,.5,2.363,1.682,1.682,0,0,0,1.493.752q1.934,0,1.977-2.976v-.365q0-3.126-2-3.126-1.815,0-1.966,2.7ZM23.364,56H19.733V39.5h3.631Zm1.772-5.919a6.86,6.86,0,0,1,.677-3.1,4.84,4.84,0,0,1,1.944-2.089,5.856,5.856,0,0,1,2.976-.73,5.344,5.344,0,0,1,4.114,1.617,6.2,6.2,0,0,1,1.5,4.4v.129a6.019,6.019,0,0,1-1.509,4.313,5.359,5.359,0,0,1-4.087,1.6,5.42,5.42,0,0,1-3.985-1.488,5.819,5.819,0,0,1-1.622-4.034Zm3.62.226a4.325,4.325,0,0,0,.5,2.363,1.682,1.682,0,0,0,1.493.752q1.934,0,1.977-2.976v-.365q0-3.126-2-3.126-1.815,0-1.966,2.7ZM31.228,39.5h3.824l-2.986,3.373-2.954-.005Zm6.295,10.6a7.848,7.848,0,0,1,.58-3.115A4.67,4.67,0,0,1,39.768,44.9a4.389,4.389,0,0,1,2.524-.736,3.49,3.49,0,0,1,2.836,1.225l.129-1.01h3.287V55.56a4.9,4.9,0,0,1-.714,2.669,4.584,4.584,0,0,1-2.068,1.74,7.6,7.6,0,0,1-3.137.607,6.557,6.557,0,0,1-2.476-.483,4.47,4.47,0,0,1-1.832-1.257l1.515-2.127A3.319,3.319,0,0,0,42.5,57.9,2.156,2.156,0,0,0,44.9,55.431v-.365a3.4,3.4,0,0,1-2.632,1.149,4.2,4.2,0,0,1-3.437-1.627,6.743,6.743,0,0,1-1.311-4.356Zm3.631.226a4.135,4.135,0,0,0,.537,2.261,1.7,1.7,0,0,0,1.5.833,1.923,1.923,0,0,0,1.708-.784V47.75a1.875,1.875,0,0,0-1.687-.795,1.706,1.706,0,0,0-1.515.865A4.715,4.715,0,0,0,41.153,50.328ZM54.42,56H50.789V44.377H54.42ZM50.574,41.369a1.63,1.63,0,0,1,.559-1.275,2.364,2.364,0,0,1,2.9,0,1.735,1.735,0,0,1,0,2.551,2.364,2.364,0,0,1-2.9,0A1.63,1.63,0,0,1,50.574,41.369ZM61.563,53.422a1.61,1.61,0,0,0,1.182-.414,1.517,1.517,0,0,0,.408-1.155h3.395a4.018,4.018,0,0,1-1.37,3.137,5.1,5.1,0,0,1-3.529,1.225,5.158,5.158,0,0,1-4-1.59,6.264,6.264,0,0,1-1.461-4.4v-.15a7.08,7.08,0,0,1,.65-3.11,4.732,4.732,0,0,1,1.875-2.073,5.589,5.589,0,0,1,2.9-.725,5.03,5.03,0,0,1,3.6,1.257,4.458,4.458,0,0,1,1.332,3.405H63.153a1.987,1.987,0,0,0-.44-1.386,1.52,1.52,0,0,0-1.182-.483q-1.407,0-1.644,1.794a12.659,12.659,0,0,0-.075,1.568,4.972,4.972,0,0,0,.419,2.428A1.45,1.45,0,0,0,61.563,53.422ZM74.626,56a4.087,4.087,0,0,1-.344-1.042,3.366,3.366,0,0,1-2.793,1.257,4.124,4.124,0,0,1-2.793-.994,3.163,3.163,0,0,1-1.149-2.5,3.251,3.251,0,0,1,1.4-2.857A7.114,7.114,0,0,1,73,48.9h1.117v-.615q0-1.608-1.386-1.608a1.133,1.133,0,0,0-1.289,1.274h-3.62a3.245,3.245,0,0,1,1.434-2.736,6.027,6.027,0,0,1,3.658-1.051,5.284,5.284,0,0,1,3.513,1.085,3.772,3.772,0,0,1,1.321,2.976v5.146a5.269,5.269,0,0,0,.494,2.449V56Zm-2.267-2.363a2.019,2.019,0,0,0,1.123-.29,1.818,1.818,0,0,0,.639-.655V50.833H73.068q-1.891,0-1.891,1.7a1.036,1.036,0,0,0,.333.8A1.205,1.205,0,0,0,72.359,53.637Z" transform="translate(332 628)" fill="#12263f"/>
    <path id="Path_189722" data-name="Path 189722" d="M-64.213-12.8l2.856,8.9,2.848-8.9h4.061V0h-3.094V-2.988l.3-6.117L-60.337,0h-2.039l-3.1-9.114.3,6.126V0h-3.085V-12.8ZM-47.268,0a3.344,3.344,0,0,1-.281-.853A2.754,2.754,0,0,1-49.834.176a3.374,3.374,0,0,1-2.285-.813,2.588,2.588,0,0,1-.94-2.043,2.66,2.66,0,0,1,1.143-2.338,5.821,5.821,0,0,1,3.322-.791h.914v-.5q0-1.316-1.134-1.316a.927.927,0,0,0-1.055,1.042h-2.962a2.655,2.655,0,0,1,1.173-2.239,4.931,4.931,0,0,1,2.993-.86,4.323,4.323,0,0,1,2.874.888A3.086,3.086,0,0,1-44.71-6.363v4.21a4.311,4.311,0,0,0,.4,2V0Zm-1.854-1.934a1.652,1.652,0,0,0,.918-.237,1.487,1.487,0,0,0,.523-.536V-4.228h-.861q-1.547,0-1.547,1.389a.848.848,0,0,0,.272.655A.986.986,0,0,0-49.122-1.934Zm11.8-4.9-.976-.07a1.752,1.752,0,0,0-1.793.879V0h-2.962V-9.51h2.777l.1,1.222a2.294,2.294,0,0,1,2.083-1.4,2.888,2.888,0,0,1,.826.105Zm4.922,4.72a1.317,1.317,0,0,0,.967-.338,1.241,1.241,0,0,0,.334-.945h2.777A3.288,3.288,0,0,1-29.439-.826a4.168,4.168,0,0,1-2.887,1,4.22,4.22,0,0,1-3.27-1.3,5.125,5.125,0,0,1-1.2-3.6v-.123A5.792,5.792,0,0,1-36.259-7.4a3.872,3.872,0,0,1,1.534-1.7,4.573,4.573,0,0,1,2.373-.593,4.116,4.116,0,0,1,2.944,1.028,3.647,3.647,0,0,1,1.09,2.786H-31.1A1.626,1.626,0,0,0-31.456-7a1.244,1.244,0,0,0-.967-.4q-1.151,0-1.345,1.468a10.357,10.357,0,0,0-.062,1.283,4.068,4.068,0,0,0,.343,1.986A1.187,1.187,0,0,0-32.4-2.109Zm4.957-2.733a5.613,5.613,0,0,1,.554-2.536,3.96,3.96,0,0,1,1.591-1.709,4.791,4.791,0,0,1,2.435-.6,4.373,4.373,0,0,1,3.366,1.323,5.076,5.076,0,0,1,1.23,3.6v.105A4.925,4.925,0,0,1-19.5-1.129,4.384,4.384,0,0,1-22.843.176,4.434,4.434,0,0,1-26.1-1.042a4.761,4.761,0,0,1-1.327-3.3Zm2.962.185a3.538,3.538,0,0,0,.413,1.934,1.376,1.376,0,0,0,1.222.615q1.582,0,1.617-2.435v-.3q0-2.558-1.635-2.558-1.485,0-1.608,2.206ZM-9.756-9.51l.1,1.116A3.225,3.225,0,0,1-6.943-9.686,2.713,2.713,0,0,1-4.724-8.8a4.226,4.226,0,0,1,.76,2.672V0H-6.935V-6a1.6,1.6,0,0,0-.29-1.059A1.342,1.342,0,0,0-8.279-7.4a1.413,1.413,0,0,0-1.292.686V0h-2.962V-9.51ZM-2.7-4.843a5.613,5.613,0,0,1,.554-2.536A3.96,3.96,0,0,1-.554-9.088a4.791,4.791,0,0,1,2.435-.6A4.373,4.373,0,0,1,5.247-8.363a5.076,5.076,0,0,1,1.23,3.6v.105A4.925,4.925,0,0,1,5.243-1.129,4.384,4.384,0,0,1,1.9.176,4.434,4.434,0,0,1-1.362-1.042a4.761,4.761,0,0,1-1.327-3.3Zm2.962.185A3.538,3.538,0,0,0,.677-2.725,1.376,1.376,0,0,0,1.9-2.109q1.582,0,1.617-2.435v-.3Q3.516-7.4,1.881-7.4.4-7.4.272-5.194ZM13.535-6.829,12.56-6.9a1.752,1.752,0,0,0-1.793.879V0H7.8V-9.51h2.777l.1,1.222a2.294,2.294,0,0,1,2.083-1.4,2.888,2.888,0,0,1,.826.105ZM17.4-9.51l.1,1.116a3.27,3.27,0,0,1,2.716-1.292,2.407,2.407,0,0,1,2.435,1.433,3.165,3.165,0,0,1,2.795-1.433q2.892,0,2.971,3.5V0H25.444V-6A1.813,1.813,0,0,0,25.2-7.066a1.048,1.048,0,0,0-.9-.334,1.4,1.4,0,0,0-1.31.782L23-6.5V0H20.03V-5.985a1.906,1.906,0,0,0-.237-1.081,1.045,1.045,0,0,0-.905-.334,1.42,1.42,0,0,0-1.3.782V0H14.625V-9.51ZM35.464,0a3.344,3.344,0,0,1-.281-.853A2.754,2.754,0,0,1,32.9.176a3.374,3.374,0,0,1-2.285-.813,2.588,2.588,0,0,1-.94-2.043,2.66,2.66,0,0,1,1.143-2.338,5.821,5.821,0,0,1,3.322-.791h.914v-.5q0-1.316-1.134-1.316a.927.927,0,0,0-1.055,1.042H29.9a2.655,2.655,0,0,1,1.173-2.239,4.931,4.931,0,0,1,2.993-.86A4.323,4.323,0,0,1,36.94-8.8a3.086,3.086,0,0,1,1.081,2.435v4.21a4.311,4.311,0,0,0,.4,2V0ZM33.609-1.934a1.652,1.652,0,0,0,.918-.237,1.487,1.487,0,0,0,.523-.536V-4.228h-.861q-1.547,0-1.547,1.389a.848.848,0,0,0,.272.655A.986.986,0,0,0,33.609-1.934Zm9.5-9.94V-9.51h1.564v2.057H43.11V-3.1a1.111,1.111,0,0,0,.193.747,1.037,1.037,0,0,0,.765.211,4.345,4.345,0,0,0,.738-.053V-.079a5.466,5.466,0,0,1-1.67.255,3.1,3.1,0,0,1-2.259-.721,2.954,2.954,0,0,1-.729-2.188v-4.72H38.936V-9.51h1.213v-2.364ZM48.964,0H45.993V-9.51h2.971ZM45.817-11.971a1.334,1.334,0,0,1,.457-1.043,1.718,1.718,0,0,1,1.187-.407,1.718,1.718,0,0,1,1.187.407,1.334,1.334,0,0,1,.457,1.043,1.334,1.334,0,0,1-.457,1.043,1.718,1.718,0,0,1-1.187.407,1.718,1.718,0,0,1-1.187-.407A1.334,1.334,0,0,1,45.817-11.971ZM54.58-3.524l1.5-5.985H59.2L56.1,0H53.077l-3.1-9.51H53.1Zm5-1.318a5.613,5.613,0,0,1,.554-2.536,3.96,3.96,0,0,1,1.591-1.709,4.791,4.791,0,0,1,2.435-.6,4.373,4.373,0,0,1,3.366,1.323,5.076,5.076,0,0,1,1.23,3.6v.105a4.925,4.925,0,0,1-1.235,3.529A4.384,4.384,0,0,1,64.178.176a4.434,4.434,0,0,1-3.261-1.217,4.761,4.761,0,0,1-1.327-3.3Zm2.962.185a3.538,3.538,0,0,0,.413,1.934,1.376,1.376,0,0,0,1.222.615q1.582,0,1.617-2.435v-.3q0-2.558-1.635-2.558-1.485,0-1.608,2.206ZM-66.7,19.175a5.809,5.809,0,0,1,.976-3.56A3.211,3.211,0,0,1-63,14.314a2.731,2.731,0,0,1,2.145,1V10.5h2.971V24h-2.663l-.149-1.02a2.8,2.8,0,0,1-2.32,1.2,3.205,3.205,0,0,1-2.689-1.3A5.993,5.993,0,0,1-66.7,19.175Zm2.962.185q0,2.531,1.477,2.531a1.458,1.458,0,0,0,1.406-.826V17.443a1.419,1.419,0,0,0-1.389-.844q-1.371,0-1.485,2.215ZM-51.6,24.176a4.889,4.889,0,0,1-3.542-1.305,4.507,4.507,0,0,1-1.354-3.4v-.246a5.84,5.84,0,0,1,.541-2.575,3.955,3.955,0,0,1,1.578-1.727,4.763,4.763,0,0,1,2.461-.611,4.117,4.117,0,0,1,3.164,1.244,4.887,4.887,0,0,1,1.16,3.467v1.151h-5.889a2.135,2.135,0,0,0,.694,1.257,2.066,2.066,0,0,0,1.389.457,2.662,2.662,0,0,0,2.2-.984l1.354,1.6a3.784,3.784,0,0,1-1.569,1.217A5.3,5.3,0,0,1-51.6,24.176Zm-.334-7.576q-1.3,0-1.547,1.723H-50.5v-.229a1.467,1.467,0,0,0-.36-1.1A1.434,1.434,0,0,0-51.939,16.6ZM-38.8,24H-41.77V10.5H-38.8Zm7.181,0a3.344,3.344,0,0,1-.281-.853,2.754,2.754,0,0,1-2.285,1.028,3.374,3.374,0,0,1-2.285-.813,2.588,2.588,0,0,1-.94-2.043,2.66,2.66,0,0,1,1.143-2.338,5.821,5.821,0,0,1,3.322-.791h.914v-.5q0-1.316-1.134-1.316a.927.927,0,0,0-1.055,1.042h-2.962a2.655,2.655,0,0,1,1.173-2.239,4.931,4.931,0,0,1,2.993-.86,4.323,4.323,0,0,1,2.874.888,3.086,3.086,0,0,1,1.081,2.435v4.21a4.311,4.311,0,0,0,.4,2V24Zm-1.854-1.934a1.652,1.652,0,0,0,.918-.237,1.487,1.487,0,0,0,.523-.536V19.772h-.861q-1.547,0-1.547,1.389a.848.848,0,0,0,.272.655A.986.986,0,0,0-33.473,22.066Zm19.362-2.751a5.735,5.735,0,0,1-1,3.538A3.2,3.2,0,0,1-17.8,24.176a2.742,2.742,0,0,1-2.153-.958v4.438h-2.962V14.49h2.769l.088.879a2.742,2.742,0,0,1,2.241-1.055,3.224,3.224,0,0,1,2.733,1.3,5.805,5.805,0,0,1,.976,3.564Zm-2.962-.185q0-2.531-1.477-2.531a1.394,1.394,0,0,0-1.406.756V21.1a1.439,1.439,0,0,0,1.424.791q1.415,0,1.459-2.443Zm10.02-1.96-.976-.07a1.752,1.752,0,0,0-1.793.879V24h-2.962V14.49h2.777l.1,1.222a2.294,2.294,0,0,1,2.083-1.4A2.888,2.888,0,0,1-7,14.42Zm.378,1.986a5.613,5.613,0,0,1,.554-2.536,3.96,3.96,0,0,1,1.591-1.709,4.791,4.791,0,0,1,2.435-.6A4.373,4.373,0,0,1,1.27,15.637a5.076,5.076,0,0,1,1.23,3.6v.105a4.925,4.925,0,0,1-1.235,3.529,4.384,4.384,0,0,1-3.344,1.305,4.434,4.434,0,0,1-3.261-1.217,4.761,4.761,0,0,1-1.327-3.3Zm2.962.185A3.538,3.538,0,0,0-3.3,21.275a1.376,1.376,0,0,0,1.222.615q1.582,0,1.617-2.435v-.3Q-.461,16.6-2.1,16.6q-1.485,0-1.608,2.206Zm7.146-.167a5.809,5.809,0,0,1,.976-3.56,3.211,3.211,0,0,1,2.725-1.3,2.731,2.731,0,0,1,2.145,1V10.5h2.971V24H9.584l-.149-1.02a2.8,2.8,0,0,1-2.32,1.2,3.205,3.205,0,0,1-2.689-1.3A5.993,5.993,0,0,1,3.432,19.175Zm2.962.185q0,2.531,1.477,2.531a1.458,1.458,0,0,0,1.406-.826V17.443A1.419,1.419,0,0,0,7.888,16.6q-1.371,0-1.485,2.215Zm13.2,3.612a3.054,3.054,0,0,1-2.54,1.2,3,3,0,0,1-2.369-.91,3.826,3.826,0,0,1-.8-2.615V14.49h2.962v6.179a1.065,1.065,0,0,0,1.187,1.222,1.548,1.548,0,0,0,1.45-.729V14.49H22.46V24H19.683ZM28.1,21.891a1.317,1.317,0,0,0,.967-.338,1.241,1.241,0,0,0,.334-.945h2.777a3.288,3.288,0,0,1-1.121,2.566,4.168,4.168,0,0,1-2.887,1,4.22,4.22,0,0,1-3.27-1.3,5.125,5.125,0,0,1-1.2-3.6v-.123A5.792,5.792,0,0,1,24.24,16.6a3.872,3.872,0,0,1,1.534-1.7,4.573,4.573,0,0,1,2.373-.593,4.116,4.116,0,0,1,2.944,1.028,3.647,3.647,0,0,1,1.09,2.786H29.4A1.626,1.626,0,0,0,29.043,17a1.244,1.244,0,0,0-.967-.4q-1.151,0-1.345,1.468a10.357,10.357,0,0,0-.062,1.283,4.068,4.068,0,0,0,.343,1.986A1.187,1.187,0,0,0,28.1,21.891Zm9.352,0a1.317,1.317,0,0,0,.967-.338,1.241,1.241,0,0,0,.334-.945h2.777a3.288,3.288,0,0,1-1.121,2.566,4.168,4.168,0,0,1-2.887,1,4.22,4.22,0,0,1-3.27-1.3,5.125,5.125,0,0,1-1.2-3.6v-.123a5.792,5.792,0,0,1,.532-2.544,3.872,3.872,0,0,1,1.534-1.7,4.573,4.573,0,0,1,2.373-.593,4.116,4.116,0,0,1,2.944,1.028,3.647,3.647,0,0,1,1.09,2.786H38.755A1.626,1.626,0,0,0,38.4,17a1.244,1.244,0,0,0-.967-.4q-1.151,0-1.345,1.468a10.357,10.357,0,0,0-.062,1.283,4.068,4.068,0,0,0,.343,1.986A1.187,1.187,0,0,0,37.455,21.891ZM45.91,24H42.939V14.49H45.91ZM42.763,12.029a1.334,1.334,0,0,1,.457-1.043,1.934,1.934,0,0,1,2.373,0,1.42,1.42,0,0,1,0,2.087,1.934,1.934,0,0,1-2.373,0A1.334,1.334,0,0,1,42.763,12.029Zm4.6,7.128a5.613,5.613,0,0,1,.554-2.536A3.96,3.96,0,0,1,49.5,14.912a4.791,4.791,0,0,1,2.435-.6,4.373,4.373,0,0,1,3.366,1.323,5.076,5.076,0,0,1,1.23,3.6v.105A4.925,4.925,0,0,1,55.3,22.871a4.384,4.384,0,0,1-3.344,1.305A4.434,4.434,0,0,1,48.7,22.958a4.761,4.761,0,0,1-1.327-3.3Zm2.962.185a3.538,3.538,0,0,0,.413,1.934,1.376,1.376,0,0,0,1.222.615q1.582,0,1.617-2.435v-.3q0-2.558-1.635-2.558-1.485,0-1.608,2.206ZM52.343,10.5h3.129l-2.443,2.76-2.417,0Zm8.218,3.99.1,1.116a3.225,3.225,0,0,1,2.716-1.292,2.713,2.713,0,0,1,2.219.888,4.226,4.226,0,0,1,.76,2.672V24H63.382V18a1.6,1.6,0,0,0-.29-1.059,1.342,1.342,0,0,0-1.055-.338,1.413,1.413,0,0,0-1.292.686V24H57.784V14.49ZM-88.73,48a3.344,3.344,0,0,1-.281-.853A2.754,2.754,0,0,1-91.3,48.176a3.374,3.374,0,0,1-2.285-.813,2.588,2.588,0,0,1-.94-2.043,2.66,2.66,0,0,1,1.143-2.338,5.821,5.821,0,0,1,3.322-.791h.914v-.5q0-1.316-1.134-1.316a.927.927,0,0,0-1.055,1.042h-2.962a2.655,2.655,0,0,1,1.173-2.239,4.931,4.931,0,0,1,2.993-.86,4.323,4.323,0,0,1,2.874.888,3.086,3.086,0,0,1,1.081,2.435v4.21a4.311,4.311,0,0,0,.4,2V48Zm-1.854-1.934a1.652,1.652,0,0,0,.918-.237,1.487,1.487,0,0,0,.523-.536V43.772H-90q-1.547,0-1.547,1.389a.848.848,0,0,0,.272.655A.986.986,0,0,0-90.584,46.066Zm5.7-2.892a6.421,6.421,0,0,1,.475-2.549,3.821,3.821,0,0,1,1.362-1.709,3.591,3.591,0,0,1,2.065-.6,2.855,2.855,0,0,1,2.32,1l.105-.826h2.689V47.64a4.009,4.009,0,0,1-.584,2.184,3.75,3.75,0,0,1-1.692,1.424,6.219,6.219,0,0,1-2.566.5,5.365,5.365,0,0,1-2.026-.4,3.657,3.657,0,0,1-1.5-1.028l1.239-1.74a2.716,2.716,0,0,0,2.18.976,1.764,1.764,0,0,0,1.969-2.021v-.3a2.781,2.781,0,0,1-2.153.94,3.437,3.437,0,0,1-2.812-1.332A5.517,5.517,0,0,1-84.88,43.28Zm2.971.185a3.383,3.383,0,0,0,.439,1.85,1.387,1.387,0,0,0,1.23.681,1.573,1.573,0,0,0,1.4-.642v-4a1.534,1.534,0,0,0-1.38-.65,1.4,1.4,0,0,0-1.239.708A3.858,3.858,0,0,0-81.91,43.359Zm13.482-2.188-.976-.07a1.752,1.752,0,0,0-1.793.879V48h-2.962V38.49h2.777l.1,1.222a2.294,2.294,0,0,1,2.083-1.4,2.888,2.888,0,0,1,.826.105Zm.378,1.986a5.613,5.613,0,0,1,.554-2.536A3.96,3.96,0,0,1-65.9,38.912a4.791,4.791,0,0,1,2.435-.6A4.373,4.373,0,0,1-60.1,39.637a5.076,5.076,0,0,1,1.23,3.6v.105a4.925,4.925,0,0,1-1.235,3.529,4.384,4.384,0,0,1-3.344,1.305,4.434,4.434,0,0,1-3.261-1.217,4.761,4.761,0,0,1-1.327-3.3Zm2.962.185a3.538,3.538,0,0,0,.413,1.934,1.376,1.376,0,0,0,1.222.615q1.582,0,1.617-2.435v-.3q0-2.558-1.635-2.558-1.485,0-1.608,2.206Zm16.348-.026a5.735,5.735,0,0,1-1,3.538,3.2,3.2,0,0,1-2.694,1.323,2.742,2.742,0,0,1-2.153-.958v4.438h-2.962V38.49h2.769l.088.879a2.742,2.742,0,0,1,2.241-1.055,3.224,3.224,0,0,1,2.733,1.3,5.805,5.805,0,0,1,.976,3.564Zm-2.962-.185q0-2.531-1.477-2.531a1.394,1.394,0,0,0-1.406.756V45.1a1.439,1.439,0,0,0,1.424.791q1.415,0,1.459-2.443Zm8.868,5.045a4.889,4.889,0,0,1-3.542-1.305,4.507,4.507,0,0,1-1.354-3.4v-.246a5.84,5.84,0,0,1,.541-2.575,3.955,3.955,0,0,1,1.578-1.727,4.763,4.763,0,0,1,2.461-.611,4.117,4.117,0,0,1,3.164,1.244,4.887,4.887,0,0,1,1.16,3.467v1.151h-5.889a2.135,2.135,0,0,0,.694,1.257,2.066,2.066,0,0,0,1.389.457,2.662,2.662,0,0,0,2.2-.984l1.354,1.6a3.784,3.784,0,0,1-1.569,1.217A5.3,5.3,0,0,1-42.833,48.176Zm-.334-7.576q-1.3,0-1.547,1.723h2.988v-.229a1.467,1.467,0,0,0-.36-1.1A1.434,1.434,0,0,0-43.167,40.6Zm9.554,5.291a1.317,1.317,0,0,0,.967-.338,1.241,1.241,0,0,0,.334-.945h2.777a3.288,3.288,0,0,1-1.121,2.566,4.168,4.168,0,0,1-2.887,1,4.22,4.22,0,0,1-3.27-1.3,5.125,5.125,0,0,1-1.2-3.6v-.123a5.792,5.792,0,0,1,.532-2.544,3.872,3.872,0,0,1,1.534-1.7,4.573,4.573,0,0,1,2.373-.593,4.116,4.116,0,0,1,2.944,1.028,3.647,3.647,0,0,1,1.09,2.786h-2.777A1.626,1.626,0,0,0-32.673,41a1.244,1.244,0,0,0-.967-.4q-1.151,0-1.345,1.468a10.357,10.357,0,0,0-.062,1.283,4.068,4.068,0,0,0,.343,1.986A1.187,1.187,0,0,0-33.614,45.891Zm11,1.081a3.054,3.054,0,0,1-2.54,1.2,3,3,0,0,1-2.369-.91,3.826,3.826,0,0,1-.8-2.615V38.49h2.962v6.179a1.065,1.065,0,0,0,1.187,1.222,1.548,1.548,0,0,0,1.45-.729V38.49h2.979V48h-2.777ZM-12.775,48a3.344,3.344,0,0,1-.281-.853,2.754,2.754,0,0,1-2.285,1.028,3.374,3.374,0,0,1-2.285-.813,2.588,2.588,0,0,1-.94-2.043,2.66,2.66,0,0,1,1.143-2.338A5.821,5.821,0,0,1-14.1,42.19h.914v-.5q0-1.316-1.134-1.316a.927.927,0,0,0-1.055,1.042h-2.962a2.655,2.655,0,0,1,1.173-2.239,4.931,4.931,0,0,1,2.993-.86A4.323,4.323,0,0,1-11.3,39.2a3.086,3.086,0,0,1,1.081,2.435v4.21a4.311,4.311,0,0,0,.4,2V48Zm-1.854-1.934a1.652,1.652,0,0,0,.918-.237,1.487,1.487,0,0,0,.523-.536V43.772h-.861q-1.547,0-1.547,1.389a.848.848,0,0,0,.272.655A.986.986,0,0,0-14.629,46.066Zm11.8-4.9L-3.8,41.1a1.752,1.752,0,0,0-1.793.879V48H-8.556V38.49h2.777l.1,1.222a2.294,2.294,0,0,1,2.083-1.4,2.888,2.888,0,0,1,.826.105ZM1.367,48H-1.6V38.49H1.367ZM-1.78,36.029a1.334,1.334,0,0,1,.457-1.043,1.718,1.718,0,0,1,1.187-.407,1.718,1.718,0,0,1,1.187.407,1.42,1.42,0,0,1,0,2.087,1.718,1.718,0,0,1-1.187.407,1.718,1.718,0,0,1-1.187-.407A1.334,1.334,0,0,1-1.78,36.029ZM8.547,48a3.344,3.344,0,0,1-.281-.853,2.754,2.754,0,0,1-2.285,1.028A3.374,3.374,0,0,1,3.7,47.363a2.588,2.588,0,0,1-.94-2.043A2.66,2.66,0,0,1,3.9,42.981,5.821,5.821,0,0,1,7.22,42.19h.914v-.5q0-1.316-1.134-1.316a.927.927,0,0,0-1.055,1.042H2.984a2.655,2.655,0,0,1,1.173-2.239,4.931,4.931,0,0,1,2.993-.86,4.323,4.323,0,0,1,2.874.888A3.086,3.086,0,0,1,11.1,41.637v4.21a4.311,4.311,0,0,0,.4,2V48ZM6.693,46.066a1.652,1.652,0,0,0,.918-.237,1.487,1.487,0,0,0,.523-.536V43.772H7.273q-1.547,0-1.547,1.389A.848.848,0,0,0,6,45.816.986.986,0,0,0,6.693,46.066Zm15.135,2.109a4.889,4.889,0,0,1-3.542-1.305,4.507,4.507,0,0,1-1.354-3.4v-.246a5.84,5.84,0,0,1,.541-2.575,3.955,3.955,0,0,1,1.578-1.727,4.763,4.763,0,0,1,2.461-.611,4.117,4.117,0,0,1,3.164,1.244,4.887,4.887,0,0,1,1.16,3.467v1.151H19.947a2.135,2.135,0,0,0,.694,1.257,2.066,2.066,0,0,0,1.389.457,2.662,2.662,0,0,0,2.2-.984l1.354,1.6a3.784,3.784,0,0,1-1.569,1.217A5.3,5.3,0,0,1,21.828,48.176ZM21.494,40.6q-1.3,0-1.547,1.723h2.988v-.229a1.467,1.467,0,0,0-.36-1.1A1.434,1.434,0,0,0,21.494,40.6Zm9.554,5.291a1.317,1.317,0,0,0,.967-.338,1.241,1.241,0,0,0,.334-.945h2.777A3.288,3.288,0,0,1,34,47.174a4.168,4.168,0,0,1-2.887,1,4.22,4.22,0,0,1-3.27-1.3,5.125,5.125,0,0,1-1.2-3.6v-.123a5.792,5.792,0,0,1,.532-2.544,3.872,3.872,0,0,1,1.534-1.7,4.573,4.573,0,0,1,2.373-.593,4.116,4.116,0,0,1,2.944,1.028,3.647,3.647,0,0,1,1.09,2.786H32.348A1.626,1.626,0,0,0,31.988,41a1.244,1.244,0,0,0-.967-.4q-1.151,0-1.345,1.468a10.357,10.357,0,0,0-.062,1.283,4.068,4.068,0,0,0,.343,1.986A1.187,1.187,0,0,0,31.047,45.891ZM36,43.157a5.613,5.613,0,0,1,.554-2.536,3.96,3.96,0,0,1,1.591-1.709,4.791,4.791,0,0,1,2.435-.6,4.373,4.373,0,0,1,3.366,1.323,5.076,5.076,0,0,1,1.23,3.6v.105a4.925,4.925,0,0,1-1.235,3.529A4.384,4.384,0,0,1,40.6,48.176a4.434,4.434,0,0,1-3.261-1.217,4.761,4.761,0,0,1-1.327-3.3Zm2.962.185a3.538,3.538,0,0,0,.413,1.934,1.376,1.376,0,0,0,1.222.615q1.582,0,1.617-2.435v-.3q0-2.558-1.635-2.558-1.485,0-1.608,2.206ZM49.61,48H46.639V34.5H49.61Zm1.45-4.843a5.613,5.613,0,0,1,.554-2.536A3.96,3.96,0,0,1,53.2,38.912a4.791,4.791,0,0,1,2.435-.6,4.373,4.373,0,0,1,3.366,1.323,5.076,5.076,0,0,1,1.23,3.6v.105A4.925,4.925,0,0,1,59,46.871a4.384,4.384,0,0,1-3.344,1.305A4.434,4.434,0,0,1,52.4,46.958a4.761,4.761,0,0,1-1.327-3.3Zm2.962.185a3.538,3.538,0,0,0,.413,1.934,1.376,1.376,0,0,0,1.222.615q1.582,0,1.617-2.435v-.3q0-2.558-1.635-2.558-1.485,0-1.608,2.206ZM56.043,34.5h3.129l-2.443,2.76-2.417,0Zm5.15,8.675a6.421,6.421,0,0,1,.475-2.549,3.821,3.821,0,0,1,1.362-1.709,3.591,3.591,0,0,1,2.065-.6,2.855,2.855,0,0,1,2.32,1l.105-.826h2.689V47.64a4.009,4.009,0,0,1-.584,2.184,3.75,3.75,0,0,1-1.692,1.424,6.219,6.219,0,0,1-2.566.5,5.365,5.365,0,0,1-2.026-.4,3.657,3.657,0,0,1-1.5-1.028l1.239-1.74a2.716,2.716,0,0,0,2.18.976,1.764,1.764,0,0,0,1.969-2.021v-.3a2.781,2.781,0,0,1-2.153.94,3.437,3.437,0,0,1-2.812-1.332,5.517,5.517,0,0,1-1.072-3.564Zm2.971.185a3.383,3.383,0,0,0,.439,1.85,1.387,1.387,0,0,0,1.23.681,1.573,1.573,0,0,0,1.4-.642v-4a1.534,1.534,0,0,0-1.38-.65,1.4,1.4,0,0,0-1.239.708A3.858,3.858,0,0,0,64.165,43.359ZM75.019,48H72.048V38.49h2.971ZM71.873,36.029a1.334,1.334,0,0,1,.457-1.043,1.934,1.934,0,0,1,2.373,0,1.42,1.42,0,0,1,0,2.087,1.934,1.934,0,0,1-2.373,0A1.334,1.334,0,0,1,71.873,36.029Zm8.991,9.861a1.317,1.317,0,0,0,.967-.338,1.241,1.241,0,0,0,.334-.945h2.777a3.288,3.288,0,0,1-1.121,2.566,4.168,4.168,0,0,1-2.887,1,4.22,4.22,0,0,1-3.27-1.3,5.125,5.125,0,0,1-1.2-3.6v-.123A5.792,5.792,0,0,1,77,40.6a3.872,3.872,0,0,1,1.534-1.7,4.573,4.573,0,0,1,2.373-.593,4.116,4.116,0,0,1,2.944,1.028,3.647,3.647,0,0,1,1.09,2.786H82.165A1.626,1.626,0,0,0,81.8,41a1.244,1.244,0,0,0-.967-.4q-1.151,0-1.345,1.468a10.357,10.357,0,0,0-.062,1.283,4.068,4.068,0,0,0,.343,1.986A1.187,1.187,0,0,0,80.864,45.891ZM91.551,48a3.344,3.344,0,0,1-.281-.853,2.754,2.754,0,0,1-2.285,1.028,3.374,3.374,0,0,1-2.285-.813,2.588,2.588,0,0,1-.94-2.043A2.66,2.66,0,0,1,86.9,42.981a5.821,5.821,0,0,1,3.322-.791h.914v-.5q0-1.316-1.134-1.316a.927.927,0,0,0-1.055,1.042H85.988a2.655,2.655,0,0,1,1.173-2.239,4.931,4.931,0,0,1,2.993-.86,4.323,4.323,0,0,1,2.874.888,3.086,3.086,0,0,1,1.081,2.435v4.21a4.311,4.311,0,0,0,.4,2V48ZM89.7,46.066a1.652,1.652,0,0,0,.918-.237,1.487,1.487,0,0,0,.523-.536V43.772h-.861q-1.547,0-1.547,1.389a.848.848,0,0,0,.272.655A.986.986,0,0,0,89.7,46.066Z" transform="translate(332 800)" fill="#12263f"/>
    <path id="Path_189725" data-name="Path 189725" d="M-32.3-3.48l2.549-9.316h3.445L-30.612,0h-3.375l-4.271-12.8h3.419ZM-20.558,0a3.344,3.344,0,0,1-.281-.853A2.754,2.754,0,0,1-23.124.176a3.374,3.374,0,0,1-2.285-.813,2.588,2.588,0,0,1-.94-2.043,2.66,2.66,0,0,1,1.143-2.338,5.821,5.821,0,0,1,3.322-.791h.914v-.5q0-1.316-1.134-1.316a.927.927,0,0,0-1.055,1.042h-2.962a2.655,2.655,0,0,1,1.173-2.239,4.931,4.931,0,0,1,2.993-.86,4.323,4.323,0,0,1,2.874.888A3.086,3.086,0,0,1-18-6.363v4.21a4.311,4.311,0,0,0,.4,2V0Zm-1.854-1.934a1.652,1.652,0,0,0,.918-.237,1.487,1.487,0,0,0,.523-.536V-4.228h-.861q-1.547,0-1.547,1.389a.848.848,0,0,0,.272.655A.986.986,0,0,0-22.412-1.934Zm11.8-4.9-.976-.07a1.752,1.752,0,0,0-1.793.879V0h-2.962V-9.51h2.777l.1,1.222a2.294,2.294,0,0,1,2.083-1.4,2.888,2.888,0,0,1,.826.105ZM-6.416,0H-9.387V-9.51h2.971ZM-9.562-11.971a1.334,1.334,0,0,1,.457-1.043,1.718,1.718,0,0,1,1.187-.407,1.718,1.718,0,0,1,1.187.407,1.334,1.334,0,0,1,.457,1.043,1.334,1.334,0,0,1-.457,1.043,1.718,1.718,0,0,1-1.187.407,1.718,1.718,0,0,1-1.187-.407A1.334,1.334,0,0,1-9.562-11.971ZM.765,0A3.344,3.344,0,0,1,.483-.853,2.754,2.754,0,0,1-1.8.176,3.374,3.374,0,0,1-4.087-.637a2.588,2.588,0,0,1-.94-2.043A2.66,2.66,0,0,1-3.885-5.019,5.821,5.821,0,0,1-.562-5.81H.352v-.5q0-1.316-1.134-1.316A.927.927,0,0,0-1.837-6.587H-4.8A2.655,2.655,0,0,1-3.625-8.825a4.931,4.931,0,0,1,2.993-.86A4.323,4.323,0,0,1,2.241-8.8,3.086,3.086,0,0,1,3.322-6.363v4.21a4.311,4.311,0,0,0,.4,2V0ZM-1.09-1.934a1.652,1.652,0,0,0,.918-.237,1.487,1.487,0,0,0,.523-.536V-4.228H-.51q-1.547,0-1.547,1.389a.848.848,0,0,0,.272.655A.986.986,0,0,0-1.09-1.934ZM13.79-4.676a5.8,5.8,0,0,1-.967,3.595A3.238,3.238,0,0,1,10.1.176,2.81,2.81,0,0,1,7.761-.976L7.638,0H4.983V-13.5H7.945v4.755a2.711,2.711,0,0,1,2.136-.94,3.239,3.239,0,0,1,2.742,1.274,5.826,5.826,0,0,1,.967,3.586Zm-2.971-.189a3.866,3.866,0,0,0-.365-1.952A1.229,1.229,0,0,0,9.334-7.4a1.418,1.418,0,0,0-1.389.763v3.773a1.426,1.426,0,0,0,1.406.755,1.258,1.258,0,0,0,1.327-1.018A7.309,7.309,0,0,0,10.819-4.865ZM18.22,0H15.249V-13.5H18.22Zm6.425.176A4.889,4.889,0,0,1,21.1-1.129a4.507,4.507,0,0,1-1.354-3.4v-.246a5.84,5.84,0,0,1,.541-2.575,3.955,3.955,0,0,1,1.578-1.727,4.763,4.763,0,0,1,2.461-.611,4.117,4.117,0,0,1,3.164,1.244,4.887,4.887,0,0,1,1.16,3.467v1.151H22.764a2.135,2.135,0,0,0,.694,1.257,2.066,2.066,0,0,0,1.389.457,2.662,2.662,0,0,0,2.2-.984l1.354,1.6A3.784,3.784,0,0,1,26.829-.277,5.3,5.3,0,0,1,24.645.176ZM24.311-7.4q-1.3,0-1.547,1.723h2.988v-.229a1.467,1.467,0,0,0-.36-1.1A1.434,1.434,0,0,0,24.311-7.4ZM34.822-2.672a.684.684,0,0,0-.4-.606,6.016,6.016,0,0,0-1.5-.475A6.853,6.853,0,0,1,31.1-4.4,3.062,3.062,0,0,1,30-5.37a2.319,2.319,0,0,1-.378-1.31A2.628,2.628,0,0,1,30.7-8.837a4.453,4.453,0,0,1,2.83-.848,4.934,4.934,0,0,1,3.023.853A2.666,2.666,0,0,1,37.7-6.592H34.726q0-1.143-1.2-1.143a1.194,1.194,0,0,0-.782.259.8.8,0,0,0-.316.646.737.737,0,0,0,.387.642,3.654,3.654,0,0,0,1.235.4,10.671,10.671,0,0,1,1.49.378A2.706,2.706,0,0,1,37.679-2.76,2.491,2.491,0,0,1,36.523-.642,5.068,5.068,0,0,1,33.53.176a5.172,5.172,0,0,1-2.18-.439,3.645,3.645,0,0,1-1.494-1.2A2.707,2.707,0,0,1,29.32-3.05h2.769a1.145,1.145,0,0,0,.439.962,1.808,1.808,0,0,0,1.081.3,1.422,1.422,0,0,0,.91-.246A.787.787,0,0,0,34.822-2.672ZM-43.708,24a3.344,3.344,0,0,1-.281-.853,2.754,2.754,0,0,1-2.285,1.028,3.374,3.374,0,0,1-2.285-.813,2.588,2.588,0,0,1-.94-2.043,2.66,2.66,0,0,1,1.143-2.338,5.821,5.821,0,0,1,3.322-.791h.914v-.5q0-1.316-1.134-1.316a.927.927,0,0,0-1.055,1.042h-2.962A2.655,2.655,0,0,1-48.1,15.175a4.931,4.931,0,0,1,2.993-.86,4.323,4.323,0,0,1,2.874.888,3.086,3.086,0,0,1,1.081,2.435v4.21a4.311,4.311,0,0,0,.4,2V24Zm-1.854-1.934a1.652,1.652,0,0,0,.918-.237,1.487,1.487,0,0,0,.523-.536V19.772h-.861q-1.547,0-1.547,1.389a.848.848,0,0,0,.272.655A.986.986,0,0,0-45.562,22.066Zm8.851-7.576.1,1.116A3.27,3.27,0,0,1-33.9,14.314a2.407,2.407,0,0,1,2.435,1.433,3.165,3.165,0,0,1,2.795-1.433q2.892,0,2.971,3.5V24H-28.67V18a1.813,1.813,0,0,0-.246-1.063,1.048,1.048,0,0,0-.9-.334,1.4,1.4,0,0,0-1.31.782l.009.123V24h-2.971V18.015a1.906,1.906,0,0,0-.237-1.081,1.045,1.045,0,0,0-.905-.334,1.42,1.42,0,0,0-1.3.782V24h-2.962V14.49Zm21.533,4.834a5.8,5.8,0,0,1-.967,3.595,3.238,3.238,0,0,1-2.725,1.257,2.81,2.81,0,0,1-2.338-1.151l-.123.976h-2.654V10.5h2.962v4.755a2.711,2.711,0,0,1,2.136-.94,3.239,3.239,0,0,1,2.742,1.274,5.826,5.826,0,0,1,.967,3.586Zm-2.971-.189a3.866,3.866,0,0,0-.365-1.952,1.229,1.229,0,0,0-1.121-.584,1.418,1.418,0,0,0-1.389.763v3.773a1.426,1.426,0,0,0,1.406.755,1.258,1.258,0,0,0,1.327-1.018A7.309,7.309,0,0,0-18.149,19.135Zm7.4,4.865H-13.72V14.49h2.971ZM-13.9,12.029a1.334,1.334,0,0,1,.457-1.043,1.718,1.718,0,0,1,1.187-.407,1.718,1.718,0,0,1,1.187.407,1.334,1.334,0,0,1,.457,1.043,1.334,1.334,0,0,1-.457,1.043,1.718,1.718,0,0,1-1.187.407,1.718,1.718,0,0,1-1.187-.407A1.334,1.334,0,0,1-13.9,12.029Zm9.571,12.146a4.889,4.889,0,0,1-3.542-1.305,4.507,4.507,0,0,1-1.354-3.4v-.246a5.84,5.84,0,0,1,.541-2.575A3.955,3.955,0,0,1-7.1,14.925a4.763,4.763,0,0,1,2.461-.611,4.117,4.117,0,0,1,3.164,1.244,4.887,4.887,0,0,1,1.16,3.467v1.151H-6.205a2.135,2.135,0,0,0,.694,1.257,2.066,2.066,0,0,0,1.389.457,2.662,2.662,0,0,0,2.2-.984l1.354,1.6A3.784,3.784,0,0,1-2.14,23.723,5.3,5.3,0,0,1-4.324,24.176ZM-4.658,16.6q-1.3,0-1.547,1.723h2.988v-.229a1.467,1.467,0,0,0-.36-1.1A1.434,1.434,0,0,0-4.658,16.6ZM3.595,14.49l.1,1.116a3.225,3.225,0,0,1,2.716-1.292,2.713,2.713,0,0,1,2.219.888,4.226,4.226,0,0,1,.76,2.672V24H6.416V18a1.6,1.6,0,0,0-.29-1.059A1.342,1.342,0,0,0,5.071,16.6a1.413,1.413,0,0,0-1.292.686V24H.817V14.49Zm10.881-2.364V14.49H16.04v2.057H14.476V20.9a1.111,1.111,0,0,0,.193.747,1.037,1.037,0,0,0,.765.211,4.345,4.345,0,0,0,.738-.053v2.118a5.466,5.466,0,0,1-1.67.255,3.1,3.1,0,0,1-2.259-.721,2.954,2.954,0,0,1-.729-2.188v-4.72H10.3V14.49h1.213V12.126ZM22.562,24a3.344,3.344,0,0,1-.281-.853A2.754,2.754,0,0,1,20,24.176a3.374,3.374,0,0,1-2.285-.813,2.588,2.588,0,0,1-.94-2.043,2.66,2.66,0,0,1,1.143-2.338,5.821,5.821,0,0,1,3.322-.791h.914v-.5q0-1.316-1.134-1.316a.927.927,0,0,0-1.055,1.042H17a2.655,2.655,0,0,1,1.173-2.239,4.931,4.931,0,0,1,2.993-.86,4.323,4.323,0,0,1,2.874.888,3.086,3.086,0,0,1,1.081,2.435v4.21a4.311,4.311,0,0,0,.4,2V24Zm-1.854-1.934a1.652,1.652,0,0,0,.918-.237,1.487,1.487,0,0,0,.523-.536V19.772h-.861q-1.547,0-1.547,1.389a.848.848,0,0,0,.272.655A.986.986,0,0,0,20.707,22.066ZM29.883,24H26.912V10.5h2.971Zm6.425.176a4.889,4.889,0,0,1-3.542-1.305,4.507,4.507,0,0,1-1.354-3.4v-.246a5.84,5.84,0,0,1,.541-2.575,3.955,3.955,0,0,1,1.578-1.727,4.763,4.763,0,0,1,2.461-.611,4.117,4.117,0,0,1,3.164,1.244,4.887,4.887,0,0,1,1.16,3.467v1.151H34.427a2.135,2.135,0,0,0,.694,1.257,2.066,2.066,0,0,0,1.389.457,2.662,2.662,0,0,0,2.2-.984l1.354,1.6a3.784,3.784,0,0,1-1.569,1.217A5.3,5.3,0,0,1,36.308,24.176ZM35.974,16.6q-1.3,0-1.547,1.723h2.988v-.229a1.467,1.467,0,0,0-.36-1.1A1.434,1.434,0,0,0,35.974,16.6Zm10.512,4.729a.684.684,0,0,0-.4-.606,6.016,6.016,0,0,0-1.5-.475,6.853,6.853,0,0,1-1.828-.646,3.062,3.062,0,0,1-1.1-.971,2.319,2.319,0,0,1-.378-1.31,2.628,2.628,0,0,1,1.081-2.158,4.453,4.453,0,0,1,2.83-.848,4.934,4.934,0,0,1,3.023.853,2.666,2.666,0,0,1,1.143,2.241H46.389q0-1.143-1.2-1.143a1.194,1.194,0,0,0-.782.259.8.8,0,0,0-.316.646.737.737,0,0,0,.387.642,3.654,3.654,0,0,0,1.235.4,10.671,10.671,0,0,1,1.49.378,2.706,2.706,0,0,1,2.145,2.646,2.491,2.491,0,0,1-1.156,2.118,5.068,5.068,0,0,1-2.993.817,5.172,5.172,0,0,1-2.18-.439,3.645,3.645,0,0,1-1.494-1.2,2.707,2.707,0,0,1-.536-1.591h2.769a1.145,1.145,0,0,0,.439.962,1.808,1.808,0,0,0,1.081.3,1.422,1.422,0,0,0,.91-.246A.787.787,0,0,0,46.485,21.328Z" transform="translate(985 805)" fill="#12263f"/>
    <path id="Path_189726" data-name="Path 189726" d="M-32.3-3.48l2.549-9.316h3.445L-30.612,0h-3.375l-4.271-12.8h3.419ZM-20.558,0a3.344,3.344,0,0,1-.281-.853A2.754,2.754,0,0,1-23.124.176a3.374,3.374,0,0,1-2.285-.813,2.588,2.588,0,0,1-.94-2.043,2.66,2.66,0,0,1,1.143-2.338,5.821,5.821,0,0,1,3.322-.791h.914v-.5q0-1.316-1.134-1.316a.927.927,0,0,0-1.055,1.042h-2.962a2.655,2.655,0,0,1,1.173-2.239,4.931,4.931,0,0,1,2.993-.86,4.323,4.323,0,0,1,2.874.888A3.086,3.086,0,0,1-18-6.363v4.21a4.311,4.311,0,0,0,.4,2V0Zm-1.854-1.934a1.652,1.652,0,0,0,.918-.237,1.487,1.487,0,0,0,.523-.536V-4.228h-.861q-1.547,0-1.547,1.389a.848.848,0,0,0,.272.655A.986.986,0,0,0-22.412-1.934Zm11.8-4.9-.976-.07a1.752,1.752,0,0,0-1.793.879V0h-2.962V-9.51h2.777l.1,1.222a2.294,2.294,0,0,1,2.083-1.4,2.888,2.888,0,0,1,.826.105ZM-6.416,0H-9.387V-9.51h2.971ZM-9.562-11.971a1.334,1.334,0,0,1,.457-1.043,1.718,1.718,0,0,1,1.187-.407,1.718,1.718,0,0,1,1.187.407,1.334,1.334,0,0,1,.457,1.043,1.334,1.334,0,0,1-.457,1.043,1.718,1.718,0,0,1-1.187.407,1.718,1.718,0,0,1-1.187-.407A1.334,1.334,0,0,1-9.562-11.971ZM.765,0A3.344,3.344,0,0,1,.483-.853,2.754,2.754,0,0,1-1.8.176,3.374,3.374,0,0,1-4.087-.637a2.588,2.588,0,0,1-.94-2.043A2.66,2.66,0,0,1-3.885-5.019,5.821,5.821,0,0,1-.562-5.81H.352v-.5q0-1.316-1.134-1.316A.927.927,0,0,0-1.837-6.587H-4.8A2.655,2.655,0,0,1-3.625-8.825a4.931,4.931,0,0,1,2.993-.86A4.323,4.323,0,0,1,2.241-8.8,3.086,3.086,0,0,1,3.322-6.363v4.21a4.311,4.311,0,0,0,.4,2V0ZM-1.09-1.934a1.652,1.652,0,0,0,.918-.237,1.487,1.487,0,0,0,.523-.536V-4.228H-.51q-1.547,0-1.547,1.389a.848.848,0,0,0,.272.655A.986.986,0,0,0-1.09-1.934ZM13.79-4.676a5.8,5.8,0,0,1-.967,3.595A3.238,3.238,0,0,1,10.1.176,2.81,2.81,0,0,1,7.761-.976L7.638,0H4.983V-13.5H7.945v4.755a2.711,2.711,0,0,1,2.136-.94,3.239,3.239,0,0,1,2.742,1.274,5.826,5.826,0,0,1,.967,3.586Zm-2.971-.189a3.866,3.866,0,0,0-.365-1.952A1.229,1.229,0,0,0,9.334-7.4a1.418,1.418,0,0,0-1.389.763v3.773a1.426,1.426,0,0,0,1.406.755,1.258,1.258,0,0,0,1.327-1.018A7.309,7.309,0,0,0,10.819-4.865ZM18.22,0H15.249V-13.5H18.22Zm6.425.176A4.889,4.889,0,0,1,21.1-1.129a4.507,4.507,0,0,1-1.354-3.4v-.246a5.84,5.84,0,0,1,.541-2.575,3.955,3.955,0,0,1,1.578-1.727,4.763,4.763,0,0,1,2.461-.611,4.117,4.117,0,0,1,3.164,1.244,4.887,4.887,0,0,1,1.16,3.467v1.151H22.764a2.135,2.135,0,0,0,.694,1.257,2.066,2.066,0,0,0,1.389.457,2.662,2.662,0,0,0,2.2-.984l1.354,1.6A3.784,3.784,0,0,1,26.829-.277,5.3,5.3,0,0,1,24.645.176ZM24.311-7.4q-1.3,0-1.547,1.723h2.988v-.229a1.467,1.467,0,0,0-.36-1.1A1.434,1.434,0,0,0,24.311-7.4ZM34.822-2.672a.684.684,0,0,0-.4-.606,6.016,6.016,0,0,0-1.5-.475A6.853,6.853,0,0,1,31.1-4.4,3.062,3.062,0,0,1,30-5.37a2.319,2.319,0,0,1-.378-1.31A2.628,2.628,0,0,1,30.7-8.837a4.453,4.453,0,0,1,2.83-.848,4.934,4.934,0,0,1,3.023.853A2.666,2.666,0,0,1,37.7-6.592H34.726q0-1.143-1.2-1.143a1.194,1.194,0,0,0-.782.259.8.8,0,0,0-.316.646.737.737,0,0,0,.387.642,3.654,3.654,0,0,0,1.235.4,10.671,10.671,0,0,1,1.49.378A2.706,2.706,0,0,1,37.679-2.76,2.491,2.491,0,0,1,36.523-.642,5.068,5.068,0,0,1,33.53.176a5.172,5.172,0,0,1-2.18-.439,3.645,3.645,0,0,1-1.494-1.2A2.707,2.707,0,0,1,29.32-3.05h2.769a1.145,1.145,0,0,0,.439.962,1.808,1.808,0,0,0,1.081.3,1.422,1.422,0,0,0,.91-.246A.787.787,0,0,0,34.822-2.672ZM-56.391,14.49l.1,1.116a3.27,3.27,0,0,1,2.716-1.292,2.407,2.407,0,0,1,2.435,1.433,3.165,3.165,0,0,1,2.795-1.433q2.892,0,2.971,3.5V24h-2.971V18a1.813,1.813,0,0,0-.246-1.063,1.048,1.048,0,0,0-.9-.334,1.4,1.4,0,0,0-1.31.782l.009.123V24h-2.971V18.015A1.906,1.906,0,0,0-54,16.934a1.045,1.045,0,0,0-.905-.334,1.42,1.42,0,0,0-1.3.782V24h-2.962V14.49Zm17.306,9.686a4.889,4.889,0,0,1-3.542-1.305,4.507,4.507,0,0,1-1.354-3.4v-.246a5.84,5.84,0,0,1,.541-2.575,3.955,3.955,0,0,1,1.578-1.727,4.763,4.763,0,0,1,2.461-.611,4.117,4.117,0,0,1,3.164,1.244,4.887,4.887,0,0,1,1.16,3.467v1.151h-5.889a2.135,2.135,0,0,0,.694,1.257,2.066,2.066,0,0,0,1.389.457,2.662,2.662,0,0,0,2.2-.984l1.354,1.6A3.784,3.784,0,0,1-36.9,23.723,5.3,5.3,0,0,1-39.085,24.176Zm-.334-7.576q-1.3,0-1.547,1.723h2.988v-.229a1.467,1.467,0,0,0-.36-1.1A1.434,1.434,0,0,0-39.419,16.6Zm8.982-4.474V14.49h1.564v2.057h-1.564V20.9a1.111,1.111,0,0,0,.193.747,1.037,1.037,0,0,0,.765.211,4.345,4.345,0,0,0,.738-.053v2.118a5.466,5.466,0,0,1-1.67.255,3.1,3.1,0,0,1-2.259-.721,2.954,2.954,0,0,1-.729-2.188v-4.72h-1.213V14.49H-33.4V12.126Zm2.092,7.031a5.613,5.613,0,0,1,.554-2.536A3.96,3.96,0,0,1-26.2,14.912a4.791,4.791,0,0,1,2.435-.6A4.373,4.373,0,0,1-20.4,15.637a5.076,5.076,0,0,1,1.23,3.6v.105A4.925,4.925,0,0,1-20.4,22.871a4.384,4.384,0,0,1-3.344,1.305,4.434,4.434,0,0,1-3.261-1.217,4.761,4.761,0,0,1-1.327-3.3Zm2.962.185a3.538,3.538,0,0,0,.413,1.934,1.376,1.376,0,0,0,1.222.615q1.582,0,1.617-2.435v-.3q0-2.558-1.635-2.558-1.485,0-1.608,2.206Zm7.146-.167a5.809,5.809,0,0,1,.976-3.56,3.211,3.211,0,0,1,2.725-1.3,2.731,2.731,0,0,1,2.145,1V10.5h2.971V24h-2.663l-.149-1.02a2.8,2.8,0,0,1-2.32,1.2,3.205,3.205,0,0,1-2.689-1.3A5.993,5.993,0,0,1-18.237,19.175Zm2.962.185q0,2.531,1.477,2.531a1.458,1.458,0,0,0,1.406-.826V17.443a1.419,1.419,0,0,0-1.389-.844q-1.371,0-1.485,2.215Zm7.163-.2a5.613,5.613,0,0,1,.554-2.536,3.96,3.96,0,0,1,1.591-1.709,4.791,4.791,0,0,1,2.435-.6A4.373,4.373,0,0,1-.167,15.637a5.076,5.076,0,0,1,1.23,3.6v.105A4.925,4.925,0,0,1-.171,22.871a4.384,4.384,0,0,1-3.344,1.305,4.434,4.434,0,0,1-3.261-1.217,4.761,4.761,0,0,1-1.327-3.3Zm2.962.185a3.538,3.538,0,0,0,.413,1.934,1.376,1.376,0,0,0,1.222.615q1.582,0,1.617-2.435v-.3q0-2.558-1.635-2.558-1.485,0-1.608,2.206ZM5.493,24H2.522V10.5H5.493Zm1.45-4.843A5.613,5.613,0,0,1,7.5,16.622a3.96,3.96,0,0,1,1.591-1.709,4.791,4.791,0,0,1,2.435-.6,4.373,4.373,0,0,1,3.366,1.323,5.076,5.076,0,0,1,1.23,3.6v.105a4.925,4.925,0,0,1-1.235,3.529,4.384,4.384,0,0,1-3.344,1.305,4.434,4.434,0,0,1-3.261-1.217,4.761,4.761,0,0,1-1.327-3.3Zm2.962.185a3.538,3.538,0,0,0,.413,1.934,1.376,1.376,0,0,0,1.222.615q1.582,0,1.617-2.435v-.3q0-2.558-1.635-2.558-1.485,0-1.608,2.206ZM11.927,10.5h3.129l-2.443,2.76-2.417,0Zm5.15,8.675a6.421,6.421,0,0,1,.475-2.549,3.821,3.821,0,0,1,1.362-1.709,3.591,3.591,0,0,1,2.065-.6,2.855,2.855,0,0,1,2.32,1l.105-.826h2.689V23.64a4.009,4.009,0,0,1-.584,2.184,3.75,3.75,0,0,1-1.692,1.424,6.219,6.219,0,0,1-2.566.5,5.365,5.365,0,0,1-2.026-.4,3.657,3.657,0,0,1-1.5-1.028l1.239-1.74a2.716,2.716,0,0,0,2.18.976,1.764,1.764,0,0,0,1.969-2.021v-.3a2.781,2.781,0,0,1-2.153.94,3.437,3.437,0,0,1-2.812-1.332,5.517,5.517,0,0,1-1.072-3.564Zm2.971.185a3.383,3.383,0,0,0,.439,1.85,1.387,1.387,0,0,0,1.23.681,1.573,1.573,0,0,0,1.4-.642v-4a1.534,1.534,0,0,0-1.38-.65,1.4,1.4,0,0,0-1.239.708A3.858,3.858,0,0,0,20.048,19.359ZM30.9,24H27.932V14.49H30.9ZM27.756,12.029a1.334,1.334,0,0,1,.457-1.043,1.934,1.934,0,0,1,2.373,0,1.42,1.42,0,0,1,0,2.087,1.934,1.934,0,0,1-2.373,0A1.334,1.334,0,0,1,27.756,12.029Zm8.991,9.861a1.317,1.317,0,0,0,.967-.338,1.241,1.241,0,0,0,.334-.945h2.777A3.288,3.288,0,0,1,39.7,23.174a4.168,4.168,0,0,1-2.887,1,4.22,4.22,0,0,1-3.27-1.3,5.125,5.125,0,0,1-1.2-3.6v-.123a5.792,5.792,0,0,1,.532-2.544,3.872,3.872,0,0,1,1.534-1.7,4.573,4.573,0,0,1,2.373-.593,4.116,4.116,0,0,1,2.944,1.028,3.647,3.647,0,0,1,1.09,2.786H38.048A1.626,1.626,0,0,0,37.688,17a1.244,1.244,0,0,0-.967-.4q-1.151,0-1.345,1.468a10.357,10.357,0,0,0-.062,1.283,4.068,4.068,0,0,0,.343,1.986A1.187,1.187,0,0,0,36.747,21.891ZM47.435,24a3.344,3.344,0,0,1-.281-.853,2.754,2.754,0,0,1-2.285,1.028,3.374,3.374,0,0,1-2.285-.813,2.588,2.588,0,0,1-.94-2.043,2.66,2.66,0,0,1,1.143-2.338,5.821,5.821,0,0,1,3.322-.791h.914v-.5q0-1.316-1.134-1.316a.927.927,0,0,0-1.055,1.042H41.871a2.655,2.655,0,0,1,1.173-2.239,4.931,4.931,0,0,1,2.993-.86,4.323,4.323,0,0,1,2.874.888,3.086,3.086,0,0,1,1.081,2.435v4.21a4.311,4.311,0,0,0,.4,2V24ZM45.58,22.066a1.652,1.652,0,0,0,.918-.237,1.487,1.487,0,0,0,.523-.536V19.772H46.16q-1.547,0-1.547,1.389a.848.848,0,0,0,.272.655A.986.986,0,0,0,45.58,22.066Zm11.03-.738a.684.684,0,0,0-.4-.606,6.016,6.016,0,0,0-1.5-.475,6.853,6.853,0,0,1-1.828-.646,3.062,3.062,0,0,1-1.1-.971,2.319,2.319,0,0,1-.378-1.31,2.628,2.628,0,0,1,1.081-2.158,4.453,4.453,0,0,1,2.83-.848,4.934,4.934,0,0,1,3.023.853,2.666,2.666,0,0,1,1.143,2.241H56.514q0-1.143-1.2-1.143a1.194,1.194,0,0,0-.782.259.8.8,0,0,0-.316.646.737.737,0,0,0,.387.642,3.654,3.654,0,0,0,1.235.4,10.671,10.671,0,0,1,1.49.378,2.706,2.706,0,0,1,2.145,2.646,2.491,2.491,0,0,1-1.156,2.118,5.068,5.068,0,0,1-2.993.817,5.172,5.172,0,0,1-2.18-.439,3.645,3.645,0,0,1-1.494-1.2,2.707,2.707,0,0,1-.536-1.591h2.769a1.145,1.145,0,0,0,.439.962,1.808,1.808,0,0,0,1.081.3,1.422,1.422,0,0,0,.91-.246A.787.787,0,0,0,56.61,21.328Z" transform="translate(1163 805)" fill="#12263f"/>
    <path id="Path_189727" data-name="Path 189727" d="M-50.555-12.8l2.856,8.9,2.848-8.9h4.061V0h-3.094V-2.988l.3-6.117L-46.679,0h-2.039l-3.1-9.114.3,6.126V0h-3.085V-12.8ZM-34.365.176a4.889,4.889,0,0,1-3.542-1.305,4.507,4.507,0,0,1-1.354-3.4v-.246a5.84,5.84,0,0,1,.541-2.575,3.955,3.955,0,0,1,1.578-1.727,4.763,4.763,0,0,1,2.461-.611,4.117,4.117,0,0,1,3.164,1.244,4.887,4.887,0,0,1,1.16,3.467v1.151h-5.889a2.135,2.135,0,0,0,.694,1.257,2.066,2.066,0,0,0,1.389.457,2.662,2.662,0,0,0,2.2-.984l1.354,1.6A3.784,3.784,0,0,1-32.181-.277,5.3,5.3,0,0,1-34.365.176ZM-34.7-7.4q-1.3,0-1.547,1.723h2.988v-.229a1.467,1.467,0,0,0-.36-1.1A1.434,1.434,0,0,0-34.7-7.4Zm8.982-4.474V-9.51h1.564v2.057h-1.564V-3.1a1.111,1.111,0,0,0,.193.747,1.037,1.037,0,0,0,.765.211,4.345,4.345,0,0,0,.738-.053V-.079a5.466,5.466,0,0,1-1.67.255,3.1,3.1,0,0,1-2.259-.721,2.954,2.954,0,0,1-.729-2.188v-4.72h-1.213V-9.51h1.213v-2.364Zm2.092,7.031a5.613,5.613,0,0,1,.554-2.536A3.96,3.96,0,0,1-21.48-9.088a4.791,4.791,0,0,1,2.435-.6A4.373,4.373,0,0,1-15.68-8.363a5.076,5.076,0,0,1,1.23,3.6v.105a4.925,4.925,0,0,1-1.235,3.529A4.384,4.384,0,0,1-19.028.176a4.434,4.434,0,0,1-3.261-1.217,4.761,4.761,0,0,1-1.327-3.3Zm2.962.185a3.538,3.538,0,0,0,.413,1.934,1.376,1.376,0,0,0,1.222.615q1.582,0,1.617-2.435v-.3q0-2.558-1.635-2.558-1.485,0-1.608,2.206Zm7.146-.167a5.809,5.809,0,0,1,.976-3.56,3.211,3.211,0,0,1,2.725-1.3,2.731,2.731,0,0,1,2.145,1V-13.5H-4.7V0H-7.365l-.149-1.02a2.8,2.8,0,0,1-2.32,1.2,3.205,3.205,0,0,1-2.689-1.3A5.993,5.993,0,0,1-13.518-4.825Zm2.962.185q0,2.531,1.477,2.531a1.458,1.458,0,0,0,1.406-.826V-6.557A1.419,1.419,0,0,0-9.062-7.4q-1.371,0-1.485,2.215Zm7.163-.2a5.613,5.613,0,0,1,.554-2.536A3.96,3.96,0,0,1-1.248-9.088a4.791,4.791,0,0,1,2.435-.6A4.373,4.373,0,0,1,4.553-8.363a5.076,5.076,0,0,1,1.23,3.6v.105A4.925,4.925,0,0,1,4.548-1.129,4.384,4.384,0,0,1,1.2.176,4.434,4.434,0,0,1-2.057-1.042a4.761,4.761,0,0,1-1.327-3.3Zm2.962.185A3.538,3.538,0,0,0-.018-2.725,1.376,1.376,0,0,0,1.2-2.109q1.582,0,1.617-2.435v-.3Q2.821-7.4,1.187-7.4-.3-7.4-.422-5.194ZM10.213,0H7.242V-13.5h2.971Zm1.45-4.843a5.613,5.613,0,0,1,.554-2.536,3.96,3.96,0,0,1,1.591-1.709,4.791,4.791,0,0,1,2.435-.6,4.373,4.373,0,0,1,3.366,1.323,5.076,5.076,0,0,1,1.23,3.6v.105A4.925,4.925,0,0,1,19.6-1.129,4.384,4.384,0,0,1,16.26.176,4.434,4.434,0,0,1,13-1.042a4.761,4.761,0,0,1-1.327-3.3Zm2.962.185a3.538,3.538,0,0,0,.413,1.934,1.376,1.376,0,0,0,1.222.615q1.582,0,1.617-2.435v-.3q0-2.558-1.635-2.558-1.485,0-1.608,2.206ZM21.8-4.825a6.421,6.421,0,0,1,.475-2.549,3.821,3.821,0,0,1,1.362-1.709,3.591,3.591,0,0,1,2.065-.6,2.855,2.855,0,0,1,2.32,1l.105-.826h2.689V-.36a4.009,4.009,0,0,1-.584,2.184,3.75,3.75,0,0,1-1.692,1.424,6.219,6.219,0,0,1-2.566.5,5.365,5.365,0,0,1-2.026-.4,3.657,3.657,0,0,1-1.5-1.028L23.687.58a2.716,2.716,0,0,0,2.18.976A1.764,1.764,0,0,0,27.835-.466v-.3a2.781,2.781,0,0,1-2.153.94,3.437,3.437,0,0,1-2.812-1.332A5.517,5.517,0,0,1,21.8-4.72Zm2.971.185a3.383,3.383,0,0,0,.439,1.85,1.386,1.386,0,0,0,1.23.681,1.573,1.573,0,0,0,1.4-.642v-4a1.534,1.534,0,0,0-1.38-.65,1.4,1.4,0,0,0-1.239.708A3.858,3.858,0,0,0,24.768-4.641ZM35.728,0H32.748V-9.51h2.979ZM34.62-13.324h3.129l-2.443,2.76-2.417,0ZM42.987,0a3.344,3.344,0,0,1-.281-.853A2.754,2.754,0,0,1,40.421.176a3.374,3.374,0,0,1-2.285-.813,2.588,2.588,0,0,1-.94-2.043,2.66,2.66,0,0,1,1.143-2.338A5.821,5.821,0,0,1,41.66-5.81h.914v-.5q0-1.316-1.134-1.316a.927.927,0,0,0-1.055,1.042H37.424A2.655,2.655,0,0,1,38.6-8.825a4.931,4.931,0,0,1,2.993-.86,4.323,4.323,0,0,1,2.874.888,3.086,3.086,0,0,1,1.081,2.435v4.21a4.311,4.311,0,0,0,.4,2V0ZM41.133-1.934a1.652,1.652,0,0,0,.918-.237,1.487,1.487,0,0,0,.523-.536V-4.228h-.861q-1.547,0-1.547,1.389a.848.848,0,0,0,.272.655A.986.986,0,0,0,41.133-1.934Zm11.03-.738a.684.684,0,0,0-.4-.606,6.016,6.016,0,0,0-1.5-.475A6.853,6.853,0,0,1,48.437-4.4a3.062,3.062,0,0,1-1.1-.971,2.319,2.319,0,0,1-.378-1.31,2.628,2.628,0,0,1,1.081-2.158,4.453,4.453,0,0,1,2.83-.848,4.934,4.934,0,0,1,3.023.853,2.666,2.666,0,0,1,1.143,2.241H52.066q0-1.143-1.2-1.143a1.194,1.194,0,0,0-.782.259.8.8,0,0,0-.316.646.737.737,0,0,0,.387.642,3.654,3.654,0,0,0,1.235.4,10.671,10.671,0,0,1,1.49.378A2.706,2.706,0,0,1,55.02-2.76,2.491,2.491,0,0,1,53.864-.642a5.068,5.068,0,0,1-2.993.817,5.172,5.172,0,0,1-2.18-.439,3.645,3.645,0,0,1-1.494-1.2,2.707,2.707,0,0,1-.536-1.591H49.43a1.145,1.145,0,0,0,.439.962,1.808,1.808,0,0,0,1.081.3,1.422,1.422,0,0,0,.91-.246A.787.787,0,0,0,52.163-2.672ZM-60.75,20.476l1.5-5.985h3.12l-3.1,9.51h-3.023l-3.1-9.51h3.129Zm5.019-1.3a5.809,5.809,0,0,1,.976-3.56,3.211,3.211,0,0,1,2.725-1.3,2.731,2.731,0,0,1,2.145,1V10.5h2.971V24h-2.663l-.149-1.02a2.8,2.8,0,0,1-2.32,1.2,3.205,3.205,0,0,1-2.689-1.3A5.993,5.993,0,0,1-55.731,19.175Zm2.962.185q0,2.531,1.477,2.531a1.458,1.458,0,0,0,1.406-.826V17.443a1.419,1.419,0,0,0-1.389-.844q-1.371,0-1.485,2.215Zm12.138,4.816a4.889,4.889,0,0,1-3.542-1.305,4.507,4.507,0,0,1-1.354-3.4v-.246a5.84,5.84,0,0,1,.541-2.575,3.955,3.955,0,0,1,1.578-1.727,4.763,4.763,0,0,1,2.461-.611,4.117,4.117,0,0,1,3.164,1.244,4.887,4.887,0,0,1,1.16,3.467v1.151h-5.889a2.135,2.135,0,0,0,.694,1.257,2.066,2.066,0,0,0,1.389.457,2.662,2.662,0,0,0,2.2-.984l1.354,1.6a3.784,3.784,0,0,1-1.569,1.217A5.3,5.3,0,0,1-40.632,24.176Zm-.334-7.576q-1.3,0-1.547,1.723h2.988v-.229a1.467,1.467,0,0,0-.36-1.1A1.434,1.434,0,0,0-40.966,16.6Zm18.844,2.716a5.735,5.735,0,0,1-1,3.538,3.2,3.2,0,0,1-2.694,1.323,2.742,2.742,0,0,1-2.153-.958v4.438h-2.962V14.49h2.769l.088.879a2.742,2.742,0,0,1,2.241-1.055,3.224,3.224,0,0,1,2.733,1.3,5.805,5.805,0,0,1,.976,3.564Zm-2.962-.185q0-2.531-1.477-2.531a1.394,1.394,0,0,0-1.406.756V21.1a1.439,1.439,0,0,0,1.424.791q1.415,0,1.459-2.443Zm10.02-1.96-.976-.07a1.752,1.752,0,0,0-1.793.879V24h-2.962V14.49h2.777l.1,1.222a2.294,2.294,0,0,1,2.083-1.4,2.888,2.888,0,0,1,.826.105ZM-10.872,24h-2.971V14.49h2.971Zm-3.146-11.971a1.334,1.334,0,0,1,.457-1.043,1.718,1.718,0,0,1,1.187-.407,1.718,1.718,0,0,1,1.187.407,1.334,1.334,0,0,1,.457,1.043,1.334,1.334,0,0,1-.457,1.043,1.718,1.718,0,0,1-1.187.407,1.718,1.718,0,0,1-1.187-.407A1.334,1.334,0,0,1-14.019,12.029Zm4.6,7.128a5.613,5.613,0,0,1,.554-2.536,3.96,3.96,0,0,1,1.591-1.709,4.791,4.791,0,0,1,2.435-.6,4.373,4.373,0,0,1,3.366,1.323,5.076,5.076,0,0,1,1.23,3.6v.105a4.925,4.925,0,0,1-1.235,3.529,4.384,4.384,0,0,1-3.344,1.305,4.434,4.434,0,0,1-3.261-1.217,4.761,4.761,0,0,1-1.327-3.3Zm2.962.185a3.538,3.538,0,0,0,.413,1.934,1.376,1.376,0,0,0,1.222.615q1.582,0,1.617-2.435v-.3q0-2.558-1.635-2.558-1.485,0-1.608,2.206ZM6.812,17.171l-.976-.07a1.752,1.752,0,0,0-1.793.879V24H1.081V14.49H3.858l.1,1.222a2.294,2.294,0,0,1,2.083-1.4,2.888,2.888,0,0,1,.826.105ZM11,24H8.033V14.49H11ZM7.857,12.029a1.334,1.334,0,0,1,.457-1.043A1.718,1.718,0,0,1,9.5,10.579a1.718,1.718,0,0,1,1.187.407,1.42,1.42,0,0,1,0,2.087,1.718,1.718,0,0,1-1.187.407,1.718,1.718,0,0,1-1.187-.407A1.334,1.334,0,0,1,7.857,12.029Zm8.464,9.686h4.333V24H12.577V22.348L16.8,16.775H12.762V14.49h7.8v1.6ZM27.448,24a3.344,3.344,0,0,1-.281-.853,2.754,2.754,0,0,1-2.285,1.028,3.374,3.374,0,0,1-2.285-.813,2.588,2.588,0,0,1-.94-2.043A2.66,2.66,0,0,1,22.8,18.981a5.821,5.821,0,0,1,3.322-.791h.914v-.5q0-1.316-1.134-1.316a.927.927,0,0,0-1.055,1.042H21.885a2.655,2.655,0,0,1,1.173-2.239,4.931,4.931,0,0,1,2.993-.86,4.323,4.323,0,0,1,2.874.888,3.086,3.086,0,0,1,1.081,2.435v4.21a4.311,4.311,0,0,0,.4,2V24Zm-1.854-1.934a1.652,1.652,0,0,0,.918-.237,1.487,1.487,0,0,0,.523-.536V19.772h-.861q-1.547,0-1.547,1.389a.848.848,0,0,0,.272.655A.986.986,0,0,0,25.594,22.066Zm10.072-.176a1.317,1.317,0,0,0,.967-.338,1.241,1.241,0,0,0,.334-.945h2.777a3.288,3.288,0,0,1-1.121,2.566,4.168,4.168,0,0,1-2.887,1,4.22,4.22,0,0,1-3.27-1.3,5.125,5.125,0,0,1-1.2-3.6v-.123A5.792,5.792,0,0,1,31.8,16.6a3.872,3.872,0,0,1,1.534-1.7,4.573,4.573,0,0,1,2.373-.593,4.116,4.116,0,0,1,2.944,1.028,3.647,3.647,0,0,1,1.09,2.786H36.967A1.626,1.626,0,0,0,36.606,17a1.244,1.244,0,0,0-.967-.4q-1.151,0-1.345,1.468a10.357,10.357,0,0,0-.062,1.283,4.068,4.068,0,0,0,.343,1.986A1.187,1.187,0,0,0,35.666,21.891ZM44.121,24H41.15V14.49h2.971ZM40.975,12.029a1.334,1.334,0,0,1,.457-1.043,1.934,1.934,0,0,1,2.373,0,1.42,1.42,0,0,1,0,2.087,1.934,1.934,0,0,1-2.373,0A1.334,1.334,0,0,1,40.975,12.029Zm4.6,7.128a5.613,5.613,0,0,1,.554-2.536,3.96,3.96,0,0,1,1.591-1.709,4.791,4.791,0,0,1,2.435-.6,4.373,4.373,0,0,1,3.366,1.323,5.076,5.076,0,0,1,1.23,3.6v.105a4.925,4.925,0,0,1-1.235,3.529,4.384,4.384,0,0,1-3.344,1.305,4.434,4.434,0,0,1-3.261-1.217,4.761,4.761,0,0,1-1.327-3.3Zm2.962.185a3.538,3.538,0,0,0,.413,1.934,1.376,1.376,0,0,0,1.222.615q1.582,0,1.617-2.435v-.3q0-2.558-1.635-2.558-1.485,0-1.608,2.206ZM50.555,10.5h3.129L51.24,13.26l-2.417,0Zm8.218,3.99.1,1.116a3.225,3.225,0,0,1,2.716-1.292A2.713,2.713,0,0,1,63.8,15.2a4.226,4.226,0,0,1,.76,2.672V24H61.594V18a1.6,1.6,0,0,0-.29-1.059,1.342,1.342,0,0,0-1.055-.338,1.413,1.413,0,0,0-1.292.686V24H56V14.49Z" transform="translate(1341 805)" fill="#12263f"/>
    <rect id="Rectangle_39360" data-name="Rectangle 39360" width="158" height="105" rx="8" transform="translate(515 758)" fill="#fff4e6"/>
    <path id="Rectangle_39360_-_Outline" data-name="Rectangle 39360 - Outline" d="M8,3A5.006,5.006,0,0,0,3,8V97a5.006,5.006,0,0,0,5,5H150a5.006,5.006,0,0,0,5-5V8a5.006,5.006,0,0,0-5-5H8M8,0H150a8,8,0,0,1,8,8V97a8,8,0,0,1-8,8H8a8,8,0,0,1-8-8V8A8,8,0,0,1,8,0Z" transform="translate(515 758)" fill="#ef9310"/>
    <rect id="Rectangle_39361" data-name="Rectangle 39361" width="158" height="105" rx="8" transform="translate(693 758)" fill="#fff4e6"/>
    <path id="Rectangle_39361_-_Outline" data-name="Rectangle 39361 - Outline" d="M8,3A5.006,5.006,0,0,0,3,8V97a5.006,5.006,0,0,0,5,5H150a5.006,5.006,0,0,0,5-5V8a5.006,5.006,0,0,0-5-5H8M8,0H150a8,8,0,0,1,8,8V97a8,8,0,0,1-8,8H8a8,8,0,0,1-8-8V8A8,8,0,0,1,8,0Z" transform="translate(693 758)" fill="#ef9310"/>
    <path id="Path_189723" data-name="Path 189723" d="M-35.653-5.1h-4.975V0h-3.085V-12.8h8.561v2.382h-5.476v2.944h4.975Zm7.119,4.069a3.054,3.054,0,0,1-2.54,1.2,3,3,0,0,1-2.369-.91,3.826,3.826,0,0,1-.8-2.615V-9.51h2.962v6.179A1.065,1.065,0,0,0-30.1-2.109a1.548,1.548,0,0,0,1.45-.729V-9.51h2.979V0h-2.777Zm9.088,1.2a4.889,4.889,0,0,1-3.542-1.305,4.507,4.507,0,0,1-1.354-3.4v-.246A5.84,5.84,0,0,1-23.8-7.348a3.955,3.955,0,0,1,1.578-1.727,4.763,4.763,0,0,1,2.461-.611A4.117,4.117,0,0,1-16.6-8.442a4.887,4.887,0,0,1,1.16,3.467v1.151h-5.889a2.135,2.135,0,0,0,.694,1.257,2.066,2.066,0,0,0,1.389.457,2.662,2.662,0,0,0,2.2-.984l1.354,1.6A3.784,3.784,0,0,1-17.262-.277,5.3,5.3,0,0,1-19.446.176ZM-19.78-7.4q-1.3,0-1.547,1.723h2.988v-.229a1.467,1.467,0,0,0-.36-1.1A1.434,1.434,0,0,0-19.78-7.4Zm8.253-2.109.1,1.116A3.225,3.225,0,0,1-8.714-9.686,2.713,2.713,0,0,1-6.5-8.8a4.226,4.226,0,0,1,.76,2.672V0H-8.706V-6A1.6,1.6,0,0,0-9-7.062,1.342,1.342,0,0,0-10.05-7.4a1.413,1.413,0,0,0-1.292.686V0H-14.3V-9.51ZM-.646-11.874V-9.51H.918v2.057H-.646V-3.1a1.111,1.111,0,0,0,.193.747,1.037,1.037,0,0,0,.765.211A4.345,4.345,0,0,0,1.05-2.2V-.079A5.466,5.466,0,0,1-.62.176,3.1,3.1,0,0,1-2.878-.545a2.954,2.954,0,0,1-.729-2.188v-4.72H-4.821V-9.51h1.213v-2.364ZM6.684.176A4.889,4.889,0,0,1,3.142-1.129a4.507,4.507,0,0,1-1.354-3.4v-.246a5.84,5.84,0,0,1,.541-2.575A3.955,3.955,0,0,1,3.907-9.075a4.763,4.763,0,0,1,2.461-.611A4.117,4.117,0,0,1,9.532-8.442a4.887,4.887,0,0,1,1.16,3.467v1.151H4.8A2.135,2.135,0,0,0,5.5-2.566a2.066,2.066,0,0,0,1.389.457,2.662,2.662,0,0,0,2.2-.984l1.354,1.6A3.784,3.784,0,0,1,8.868-.277,5.3,5.3,0,0,1,6.684.176ZM6.35-7.4q-1.3,0-1.547,1.723H7.792v-.229a1.467,1.467,0,0,0-.36-1.1A1.434,1.434,0,0,0,6.35-7.4ZM16.862-2.672a.684.684,0,0,0-.4-.606,6.016,6.016,0,0,0-1.5-.475A6.853,6.853,0,0,1,13.135-4.4a3.062,3.062,0,0,1-1.1-.971,2.319,2.319,0,0,1-.378-1.31A2.628,2.628,0,0,1,12.74-8.837a4.453,4.453,0,0,1,2.83-.848,4.934,4.934,0,0,1,3.023.853,2.666,2.666,0,0,1,1.143,2.241H16.765q0-1.143-1.2-1.143a1.194,1.194,0,0,0-.782.259.8.8,0,0,0-.316.646.737.737,0,0,0,.387.642,3.654,3.654,0,0,0,1.235.4,10.671,10.671,0,0,1,1.49.378A2.706,2.706,0,0,1,19.718-2.76,2.491,2.491,0,0,1,18.563-.642,5.068,5.068,0,0,1,15.57.176a5.172,5.172,0,0,1-2.18-.439,3.645,3.645,0,0,1-1.494-1.2A2.707,2.707,0,0,1,11.36-3.05h2.769a1.145,1.145,0,0,0,.439.962,1.808,1.808,0,0,0,1.081.3,1.422,1.422,0,0,0,.91-.246A.787.787,0,0,0,16.862-2.672Zm8.35-2.153a5.809,5.809,0,0,1,.976-3.56,3.211,3.211,0,0,1,2.725-1.3,2.731,2.731,0,0,1,2.145,1V-13.5h2.971V0H31.364l-.149-1.02a2.8,2.8,0,0,1-2.32,1.2,3.205,3.205,0,0,1-2.689-1.3A5.993,5.993,0,0,1,25.211-4.825Zm2.962.185q0,2.531,1.477,2.531a1.458,1.458,0,0,0,1.406-.826V-6.557A1.419,1.419,0,0,0,29.667-7.4q-1.371,0-1.485,2.215ZM40.311.176a4.889,4.889,0,0,1-3.542-1.305,4.507,4.507,0,0,1-1.354-3.4v-.246a5.84,5.84,0,0,1,.541-2.575,3.955,3.955,0,0,1,1.578-1.727,4.763,4.763,0,0,1,2.461-.611,4.117,4.117,0,0,1,3.164,1.244,4.887,4.887,0,0,1,1.16,3.467v1.151H38.43a2.135,2.135,0,0,0,.694,1.257,2.066,2.066,0,0,0,1.389.457,2.662,2.662,0,0,0,2.2-.984l1.354,1.6A3.784,3.784,0,0,1,42.5-.277,5.3,5.3,0,0,1,40.311.176ZM39.977-7.4q-1.3,0-1.547,1.723h2.988v-.229a1.467,1.467,0,0,0-.36-1.1A1.434,1.434,0,0,0,39.977-7.4ZM-45.127,24H-48.1V14.49h2.971Zm-3.146-11.971a1.334,1.334,0,0,1,.457-1.043,1.718,1.718,0,0,1,1.187-.407,1.718,1.718,0,0,1,1.187.407,1.334,1.334,0,0,1,.457,1.043,1.334,1.334,0,0,1-.457,1.043,1.718,1.718,0,0,1-1.187.407,1.718,1.718,0,0,1-1.187-.407A1.334,1.334,0,0,1-48.274,12.029Zm7.69,2.461.1,1.116a3.225,3.225,0,0,1,2.716-1.292,2.713,2.713,0,0,1,2.219.888,4.226,4.226,0,0,1,.76,2.672V24h-2.971V18a1.6,1.6,0,0,0-.29-1.059,1.342,1.342,0,0,0-1.055-.338,1.413,1.413,0,0,0-1.292.686V24h-2.962V14.49ZM-32.5,24V16.547h-1.38V14.49h1.38v-.756a3.286,3.286,0,0,1,.958-2.522,3.785,3.785,0,0,1,2.689-.9,5.89,5.89,0,0,1,1.389.185l.009,2.18a2.706,2.706,0,0,0-.729-.079q-1.345,0-1.345,1.16v.729h1.854v2.057h-1.854V24ZM-27,19.157a5.613,5.613,0,0,1,.554-2.536,3.96,3.96,0,0,1,1.591-1.709,4.791,4.791,0,0,1,2.435-.6,4.373,4.373,0,0,1,3.366,1.323,5.076,5.076,0,0,1,1.23,3.6v.105a4.925,4.925,0,0,1-1.235,3.529,4.384,4.384,0,0,1-3.344,1.305,4.434,4.434,0,0,1-3.261-1.217A4.761,4.761,0,0,1-27,19.658Zm2.962.185a3.538,3.538,0,0,0,.413,1.934,1.376,1.376,0,0,0,1.222.615q1.582,0,1.617-2.435v-.3q0-2.558-1.635-2.558-1.485,0-1.608,2.206Zm13.271-2.171-.976-.07a1.752,1.752,0,0,0-1.793.879V24H-16.5V14.49h2.777l.1,1.222a2.294,2.294,0,0,1,2.083-1.4,2.888,2.888,0,0,1,.826.105ZM-6.9,14.49l.1,1.116a3.27,3.27,0,0,1,2.716-1.292,2.407,2.407,0,0,1,2.435,1.433,3.165,3.165,0,0,1,2.795-1.433q2.892,0,2.971,3.5V24H1.138V18a1.813,1.813,0,0,0-.246-1.063A1.048,1.048,0,0,0,0,16.6a1.4,1.4,0,0,0-1.31.782l.009.123V24H-4.276V18.015a1.906,1.906,0,0,0-.237-1.081,1.045,1.045,0,0,0-.905-.334,1.42,1.42,0,0,0-1.3.782V24H-9.681V14.49ZM11.158,24a3.344,3.344,0,0,1-.281-.853,2.754,2.754,0,0,1-2.285,1.028,3.374,3.374,0,0,1-2.285-.813,2.588,2.588,0,0,1-.94-2.043,2.66,2.66,0,0,1,1.143-2.338,5.821,5.821,0,0,1,3.322-.791h.914v-.5q0-1.316-1.134-1.316a.927.927,0,0,0-1.055,1.042H5.594a2.655,2.655,0,0,1,1.173-2.239,4.931,4.931,0,0,1,2.993-.86,4.323,4.323,0,0,1,2.874.888,3.086,3.086,0,0,1,1.081,2.435v4.21a4.311,4.311,0,0,0,.4,2V24ZM9.3,22.066a1.652,1.652,0,0,0,.918-.237,1.487,1.487,0,0,0,.523-.536V19.772H9.883q-1.547,0-1.547,1.389a.848.848,0,0,0,.272.655A.986.986,0,0,0,9.3,22.066Zm10.072-.176a1.317,1.317,0,0,0,.967-.338,1.241,1.241,0,0,0,.334-.945h2.777a3.288,3.288,0,0,1-1.121,2.566,4.168,4.168,0,0,1-2.887,1,4.22,4.22,0,0,1-3.27-1.3,5.125,5.125,0,0,1-1.2-3.6v-.123a5.792,5.792,0,0,1,.532-2.544,3.872,3.872,0,0,1,1.534-1.7,4.573,4.573,0,0,1,2.373-.593,4.116,4.116,0,0,1,2.944,1.028,3.647,3.647,0,0,1,1.09,2.786H20.676A1.626,1.626,0,0,0,20.316,17a1.244,1.244,0,0,0-.967-.4Q18.2,16.6,18,18.067a10.357,10.357,0,0,0-.062,1.283,4.068,4.068,0,0,0,.343,1.986A1.187,1.187,0,0,0,19.375,21.891ZM27.831,24H24.86V14.49h2.971ZM24.684,12.029a1.334,1.334,0,0,1,.457-1.043,1.934,1.934,0,0,1,2.373,0,1.42,1.42,0,0,1,0,2.087,1.934,1.934,0,0,1-2.373,0A1.334,1.334,0,0,1,24.684,12.029Zm4.6,7.128a5.613,5.613,0,0,1,.554-2.536,3.96,3.96,0,0,1,1.591-1.709,4.791,4.791,0,0,1,2.435-.6,4.373,4.373,0,0,1,3.366,1.323,5.076,5.076,0,0,1,1.23,3.6v.105a4.925,4.925,0,0,1-1.235,3.529,4.384,4.384,0,0,1-3.344,1.305,4.434,4.434,0,0,1-3.261-1.217,4.761,4.761,0,0,1-1.327-3.3Zm2.962.185a3.538,3.538,0,0,0,.413,1.934,1.376,1.376,0,0,0,1.222.615q1.582,0,1.617-2.435v-.3q0-2.558-1.635-2.558-1.485,0-1.608,2.206ZM34.264,10.5h3.129L34.95,13.26l-2.417,0Zm8.218,3.99.1,1.116a3.225,3.225,0,0,1,2.716-1.292,2.713,2.713,0,0,1,2.219.888,4.226,4.226,0,0,1,.76,2.672V24H45.3V18a1.6,1.6,0,0,0-.29-1.059,1.342,1.342,0,0,0-1.055-.338,1.413,1.413,0,0,0-1.292.686V24H39.7V14.49Z" transform="translate(594 805)" fill="#12263f"/>
    <path id="Path_189724" data-name="Path 189724" d="M-15.57-3.4a1.268,1.268,0,0,0-.479-1.055,5.954,5.954,0,0,0-1.683-.782A16.147,16.147,0,0,1-19.7-6.021q-2.487-1.222-2.487-3.357a3.011,3.011,0,0,1,.62-1.876,4.008,4.008,0,0,1,1.753-1.266,6.823,6.823,0,0,1,2.549-.453,5.969,5.969,0,0,1,2.474.492,3.917,3.917,0,0,1,1.7,1.4A3.661,3.661,0,0,1-12.485-9h-3.076a1.547,1.547,0,0,0-.479-1.213,1.867,1.867,0,0,0-1.3-.431,2.106,2.106,0,0,0-1.305.365,1.119,1.119,0,0,0-.479.927,1.127,1.127,0,0,0,.527.892,6.65,6.65,0,0,0,1.854.826,11.36,11.36,0,0,1,2.18.918,3.663,3.663,0,0,1,2.074,3.3A3.125,3.125,0,0,1-13.75-.782a5.629,5.629,0,0,1-3.472.958,6.888,6.888,0,0,1-2.817-.558,4.247,4.247,0,0,1-1.9-1.529,3.985,3.985,0,0,1-.637-2.237h3.094a1.963,1.963,0,0,0,.532,1.516,2.513,2.513,0,0,0,1.727.488,1.985,1.985,0,0,0,1.208-.33A1.088,1.088,0,0,0-15.57-3.4Zm10.2,2.373a3.054,3.054,0,0,1-2.54,1.2,3,3,0,0,1-2.369-.91,3.826,3.826,0,0,1-.8-2.615V-9.51h2.962v6.179A1.065,1.065,0,0,0-6.939-2.109a1.548,1.548,0,0,0,1.45-.729V-9.51h2.979V0H-5.287ZM3.713.176A4.889,4.889,0,0,1,.171-1.129a4.507,4.507,0,0,1-1.354-3.4v-.246A5.84,5.84,0,0,1-.642-7.348,3.955,3.955,0,0,1,.936-9.075,4.763,4.763,0,0,1,3.4-9.686,4.117,4.117,0,0,1,6.561-8.442a4.887,4.887,0,0,1,1.16,3.467v1.151H1.833a2.135,2.135,0,0,0,.694,1.257,2.066,2.066,0,0,0,1.389.457,2.662,2.662,0,0,0,2.2-.984l1.354,1.6A3.784,3.784,0,0,1,5.9-.277,5.3,5.3,0,0,1,3.713.176ZM3.379-7.4q-1.3,0-1.547,1.723H4.821v-.229a1.467,1.467,0,0,0-.36-1.1A1.434,1.434,0,0,0,3.379-7.4ZM12.037,0H9.066V-13.5h2.971Zm1.45-4.843a5.613,5.613,0,0,1,.554-2.536,3.96,3.96,0,0,1,1.591-1.709,4.791,4.791,0,0,1,2.435-.6,4.373,4.373,0,0,1,3.366,1.323,5.076,5.076,0,0,1,1.23,3.6v.105a4.925,4.925,0,0,1-1.235,3.529A4.384,4.384,0,0,1,18.083.176a4.434,4.434,0,0,1-3.261-1.217,4.761,4.761,0,0,1-1.327-3.3Zm2.962.185a3.538,3.538,0,0,0,.413,1.934,1.376,1.376,0,0,0,1.222.615q1.582,0,1.617-2.435v-.3Q19.7-7.4,18.066-7.4q-1.485,0-1.608,2.206Z" transform="translate(772 817)" fill="#12263f"/>
    <path id="Path_189729" data-name="Path 189729" d="M-33.5-12.729H-38.2V0H-41.97V-12.729h-4.608v-2.911H-33.5ZM-27.414.215a5.975,5.975,0,0,1-4.329-1.6A5.509,5.509,0,0,1-33.4-5.532v-.3a7.138,7.138,0,0,1,.661-3.147,4.834,4.834,0,0,1,1.928-2.111,5.821,5.821,0,0,1,3.008-.747,5.031,5.031,0,0,1,3.867,1.52A5.973,5.973,0,0,1-22.516-6.08v1.407h-7.2a2.609,2.609,0,0,0,.849,1.536,2.525,2.525,0,0,0,1.7.559,3.254,3.254,0,0,0,2.686-1.2l1.654,1.955A4.624,4.624,0,0,1-24.745-.338,6.48,6.48,0,0,1-27.414.215Zm-.408-9.26q-1.59,0-1.891,2.105h3.652v-.279a1.793,1.793,0,0,0-.44-1.348A1.753,1.753,0,0,0-27.822-9.045Zm13.793.7-1.192-.086a2.142,2.142,0,0,0-2.191,1.074V0h-3.62V-11.623h3.395l.118,1.493a2.8,2.8,0,0,1,2.546-1.708,3.53,3.53,0,0,1,1.01.129Zm8.336,0-1.192-.086A2.142,2.142,0,0,0-9.077-7.358V0H-12.7V-11.623H-9.3l.118,1.493a2.8,2.8,0,0,1,2.546-1.708,3.53,3.53,0,0,1,1.01.129ZM-.569,0H-4.2V-11.623H-.569ZM-4.415-14.631a1.63,1.63,0,0,1,.559-1.275,2.1,2.1,0,0,1,1.45-.5,2.1,2.1,0,0,1,1.45.5A1.63,1.63,0,0,1-.4-14.631a1.63,1.63,0,0,1-.559,1.275,2.1,2.1,0,0,1-1.45.5,2.1,2.1,0,0,1-1.45-.5A1.63,1.63,0,0,1-4.415-14.631Zm10.291.118v2.89H7.788v2.514H5.876v5.317a1.358,1.358,0,0,0,.236.913,1.268,1.268,0,0,0,.935.258,5.311,5.311,0,0,0,.9-.064V-.1A6.681,6.681,0,0,1,5.908.215,3.792,3.792,0,0,1,3.147-.666a3.61,3.61,0,0,1-.892-2.675V-9.109H.773v-2.514H2.256v-2.89ZM8.433-5.919a6.86,6.86,0,0,1,.677-3.1,4.84,4.84,0,0,1,1.944-2.089,5.856,5.856,0,0,1,2.976-.73,5.344,5.344,0,0,1,4.114,1.617,6.2,6.2,0,0,1,1.5,4.4v.129A6.019,6.019,0,0,1,18.138-1.38a5.359,5.359,0,0,1-4.087,1.6,5.42,5.42,0,0,1-3.985-1.488A5.819,5.819,0,0,1,8.443-5.307Zm3.62.226a4.325,4.325,0,0,0,.5,2.363,1.682,1.682,0,0,0,1.493.752q1.934,0,1.977-2.976v-.365q0-3.126-2-3.126-1.815,0-1.966,2.7ZM28.273-8.347l-1.192-.086A2.142,2.142,0,0,0,24.89-7.358V0H21.27V-11.623h3.395l.118,1.493a2.8,2.8,0,0,1,2.546-1.708,3.53,3.53,0,0,1,1.01.129ZM33.4,0H29.767V-11.623H33.4ZM29.552-14.631a1.63,1.63,0,0,1,.559-1.275,2.1,2.1,0,0,1,1.45-.5,2.1,2.1,0,0,1,1.45.5,1.63,1.63,0,0,1,.559,1.275,1.63,1.63,0,0,1-.559,1.275,2.1,2.1,0,0,1-1.45.5,2.1,2.1,0,0,1-1.45-.5A1.63,1.63,0,0,1,29.552-14.631ZM35.17-5.919a6.86,6.86,0,0,1,.677-3.1,4.84,4.84,0,0,1,1.944-2.089,5.856,5.856,0,0,1,2.976-.73,5.344,5.344,0,0,1,4.114,1.617,6.2,6.2,0,0,1,1.5,4.4v.129A6.019,6.019,0,0,1,44.875-1.38a5.359,5.359,0,0,1-4.087,1.6A5.42,5.42,0,0,1,36.8-1.273a5.819,5.819,0,0,1-1.622-4.034Zm3.62.226a4.325,4.325,0,0,0,.5,2.363,1.682,1.682,0,0,0,1.493.752q1.934,0,1.977-2.976v-.365q0-3.126-2-3.126-1.815,0-1.966,2.7Z" transform="translate(683 641)" fill="#12263f"/>
    <path id="Path_189728" data-name="Path 189728" d="M-66.967,0V-15.641h5.618a7.956,7.956,0,0,1,4.592,1.106,3.682,3.682,0,0,1,1.574,3.212,3.721,3.721,0,0,1-.559,2.073,3.255,3.255,0,0,1-1.644,1.268,3.3,3.3,0,0,1,1.88,1.2A3.5,3.5,0,0,1-54.85-4.63a4.141,4.141,0,0,1-1.456,3.454A6.927,6.927,0,0,1-60.618,0ZM-63.2-6.649V-2.9h2.471a2.35,2.35,0,0,0,1.568-.467,1.635,1.635,0,0,0,.548-1.316,1.734,1.734,0,0,0-1.944-1.966Zm0-2.471h1.966a2.793,2.793,0,0,0,1.762-.453,1.606,1.606,0,0,0,.526-1.3,1.686,1.686,0,0,0-.569-1.428,3.047,3.047,0,0,0-1.837-.436H-63.2ZM-49.124,0h-3.631V-11.623h3.631ZM-52.97-14.631a1.63,1.63,0,0,1,.559-1.275,2.1,2.1,0,0,1,1.45-.5,2.1,2.1,0,0,1,1.45.5,1.63,1.63,0,0,1,.559,1.275,1.63,1.63,0,0,1-.559,1.275,2.1,2.1,0,0,1-1.45.5,2.1,2.1,0,0,1-1.45-.5A1.63,1.63,0,0,1-52.97-14.631Zm5.618,8.712a6.86,6.86,0,0,1,.677-3.1,4.84,4.84,0,0,1,1.944-2.089,5.856,5.856,0,0,1,2.976-.73,5.344,5.344,0,0,1,4.114,1.617,6.2,6.2,0,0,1,1.5,4.4v.129A6.019,6.019,0,0,1-37.646-1.38a5.359,5.359,0,0,1-4.087,1.6,5.42,5.42,0,0,1-3.985-1.488,5.819,5.819,0,0,1-1.622-4.034Zm3.62.226a4.325,4.325,0,0,0,.5,2.363,1.682,1.682,0,0,0,1.493.752q1.934,0,1.977-2.976v-.365q0-3.126-2-3.126-1.815,0-1.966,2.7ZM-35-5.9a7.1,7.1,0,0,1,1.192-4.351,3.925,3.925,0,0,1,3.33-1.59,3.338,3.338,0,0,1,2.621,1.225V-16.5h3.631V0h-3.255l-.183-1.246A3.428,3.428,0,0,1-30.5.215a3.918,3.918,0,0,1-3.287-1.59A7.325,7.325,0,0,1-35-5.9Zm3.62.226q0,3.094,1.8,3.094a1.782,1.782,0,0,0,1.719-1.01V-8.014a1.734,1.734,0,0,0-1.7-1.031q-1.676,0-1.815,2.707ZM-18.348,0h-3.631V-11.623h3.631Zm-3.846-14.631a1.63,1.63,0,0,1,.559-1.275,2.1,2.1,0,0,1,1.45-.5,2.1,2.1,0,0,1,1.45.5,1.63,1.63,0,0,1,.559,1.275,1.63,1.63,0,0,1-.559,1.275,2.1,2.1,0,0,1-1.45.5,2.1,2.1,0,0,1-1.45-.5A1.63,1.63,0,0,1-22.193-14.631Zm10.71,10.323,1.837-7.315h3.813L-9.625,0h-3.7l-3.792-11.623h3.824ZM.73.215A5.975,5.975,0,0,1-3.6-1.38,5.509,5.509,0,0,1-5.253-5.532v-.3A7.138,7.138,0,0,1-4.592-8.98a4.834,4.834,0,0,1,1.928-2.111,5.821,5.821,0,0,1,3.008-.747,5.031,5.031,0,0,1,3.867,1.52A5.973,5.973,0,0,1,5.629-6.08v1.407h-7.2A2.609,2.609,0,0,0-.72-3.137a2.525,2.525,0,0,0,1.7.559,3.254,3.254,0,0,0,2.686-1.2L5.317-1.826A4.624,4.624,0,0,1,3.4-.338,6.48,6.48,0,0,1,.73.215ZM.322-9.045q-1.59,0-1.891,2.105H2.084v-.279a1.793,1.793,0,0,0-.44-1.348A1.753,1.753,0,0,0,.322-9.045Zm13.793.7-1.192-.086a2.142,2.142,0,0,0-2.191,1.074V0H7.111V-11.623h3.395l.118,1.493a2.8,2.8,0,0,1,2.546-1.708,3.53,3.53,0,0,1,1.01.129Zm7.391,5.081a.836.836,0,0,0-.483-.741,7.353,7.353,0,0,0-1.837-.58,8.376,8.376,0,0,1-2.234-.79,3.743,3.743,0,0,1-1.343-1.187,2.834,2.834,0,0,1-.462-1.6A3.212,3.212,0,0,1,16.468-10.8a5.443,5.443,0,0,1,3.459-1.037,6.03,6.03,0,0,1,3.7,1.042,3.258,3.258,0,0,1,1.4,2.739H21.388q0-1.4-1.472-1.4a1.459,1.459,0,0,0-.956.317.981.981,0,0,0-.387.79.9.9,0,0,0,.473.784,4.466,4.466,0,0,0,1.509.494,13.043,13.043,0,0,1,1.821.462Q25-5.7,25-3.373A3.044,3.044,0,0,1,23.584-.784a6.2,6.2,0,0,1-3.658,1,6.322,6.322,0,0,1-2.664-.537,4.455,4.455,0,0,1-1.826-1.461,3.308,3.308,0,0,1-.655-1.944h3.384A1.4,1.4,0,0,0,18.7-2.551a2.209,2.209,0,0,0,1.321.371,1.738,1.738,0,0,0,1.112-.3A.962.962,0,0,0,21.506-3.266Zm9,3.266H26.877V-11.623h3.631ZM26.662-14.631a1.63,1.63,0,0,1,.559-1.275,2.1,2.1,0,0,1,1.45-.5,2.1,2.1,0,0,1,1.45.5,1.63,1.63,0,0,1,.559,1.275,1.63,1.63,0,0,1-.559,1.275,2.1,2.1,0,0,1-1.45.5,2.1,2.1,0,0,1-1.45-.5A1.63,1.63,0,0,1,26.662-14.631ZM32.28-5.9a7.1,7.1,0,0,1,1.192-4.351,3.925,3.925,0,0,1,3.33-1.59,3.338,3.338,0,0,1,2.621,1.225V-16.5h3.631V0H39.8l-.183-1.246A3.428,3.428,0,0,1,36.781.215a3.918,3.918,0,0,1-3.287-1.59A7.325,7.325,0,0,1,32.28-5.9Zm3.62.226q0,3.094,1.8,3.094a1.782,1.782,0,0,0,1.719-1.01V-8.014a1.734,1.734,0,0,0-1.7-1.031q-1.676,0-1.815,2.707ZM51.659,0a4.088,4.088,0,0,1-.344-1.042A3.366,3.366,0,0,1,48.522.215a4.124,4.124,0,0,1-2.793-.994,3.163,3.163,0,0,1-1.149-2.5,3.251,3.251,0,0,1,1.4-2.857A7.114,7.114,0,0,1,50.037-7.1h1.117v-.615q0-1.608-1.386-1.608A1.133,1.133,0,0,0,48.479-8.05h-3.62a3.245,3.245,0,0,1,1.434-2.736,6.027,6.027,0,0,1,3.658-1.051,5.284,5.284,0,0,1,3.513,1.085,3.772,3.772,0,0,1,1.321,2.976v5.146a5.269,5.269,0,0,0,.494,2.449V0ZM49.393-2.363a2.019,2.019,0,0,0,1.123-.29,1.818,1.818,0,0,0,.639-.655V-5.167H50.1q-1.891,0-1.891,1.7a1.036,1.036,0,0,0,.333.8A1.205,1.205,0,0,0,49.393-2.363ZM56.332-5.9a7.1,7.1,0,0,1,1.192-4.351,3.925,3.925,0,0,1,3.33-1.59,3.338,3.338,0,0,1,2.621,1.225V-16.5h3.631V0H63.852l-.183-1.246A3.428,3.428,0,0,1,60.833.215a3.918,3.918,0,0,1-3.287-1.59A7.325,7.325,0,0,1,56.332-5.9Zm3.62.226q0,3.094,1.8,3.094a1.782,1.782,0,0,0,1.719-1.01V-8.014a1.734,1.734,0,0,0-1.7-1.031q-1.676,0-1.815,2.707Z" transform="translate(1163 641)" fill="#12263f"/>
    <path id="Path_188497" data-name="Path 188497" d="M4639.5-11118h-3v-36.5h-828v36.5h-3v-39.5h834Z" transform="translate(-3475 11700)" fill="#afafaf"/>
    <path id="Path_188501" data-name="Path 188501" d="M3986.5-11133h-3v-21.5h-175v21.5h-3v-24.5h181Z" transform="translate(-3212.5 11885)" fill="#afafaf"/>
    <path id="Path_188503" data-name="Path 188503" d="M4164.5-11133h-3v-21.5h-353v21.5h-3v-24.5h359Z" transform="translate(-2822 11885)" fill="#afafaf"/>
    <path id="Path_188498" data-name="Path 188498" d="M4276.5-11155.333h-3V-11206h3Z" transform="translate(-3475 11700)" fill="#afafaf"/>
    <path id="Path_188499" data-name="Path 188499" d="M4276.5-11172.238h-3V-11206h3Z" transform="translate(-3591.5 11750.667)" fill="#afafaf"/>
    <path id="Path_188500" data-name="Path 188500" d="M4276.5-11163.25h-3V-11206h3Z" transform="translate(-3943 11914)" fill="#afafaf"/>
    <path id="Path_188502" data-name="Path 188502" d="M4276.5-11155h-3v-51h3Z" transform="translate(-3591.5 11884)" fill="#afafaf"/>
    <path id="Path_188504" data-name="Path 188504" d="M4276.5-11133h-3v-73h3Z" transform="translate(-3111.5 11884)" fill="#afafaf"/>
    <path id="Polygon_10" data-name="Polygon 10" d="M7,0l7,12H0Z" transform="translate(339 588) rotate(-180)" fill="#afafaf"/>
    <path id="Polygon_13" data-name="Polygon 13" d="M7,0l7,12H0Z" transform="translate(339 758) rotate(-180)" fill="#afafaf"/>
    <path id="Polygon_14" data-name="Polygon 14" d="M7.5,0,15,12H0Z" transform="translate(602 758) rotate(-180)" fill="#afafaf"/>
    <path id="Polygon_18" data-name="Polygon 18" d="M7.5,0,15,12H0Z" transform="translate(780 758) rotate(-180)" fill="#afafaf"/>
    <path id="Polygon_11" data-name="Polygon 11" d="M7.5,0,15,12H0Z" transform="translate(691 588) rotate(-180)" fill="#afafaf"/>
    <path id="Polygon_12" data-name="Polygon 12" d="M7,0l7,12H0Z" transform="translate(1170 588) rotate(-180)" fill="#afafaf"/>
    <path id="Polygon_15" data-name="Polygon 15" d="M7.5,0,15,12H0Z" transform="translate(1171 758) rotate(-180)" fill="#afafaf"/>
    <path id="Polygon_16" data-name="Polygon 16" d="M7,0l7,12H0Z" transform="translate(992 758) rotate(-180)" fill="#afafaf"/>
    <path id="Polygon_17" data-name="Polygon 17" d="M7,0l7,12H0Z" transform="translate(1348 758) rotate(-180)" fill="#afafaf"/>
  </g>
</svg>
