<svg xmlns="http://www.w3.org/2000/svg" xmlns:xlink="http://www.w3.org/1999/xlink" width="400" height="380" viewBox="0 0 400 380">
  <defs>
    <filter id="Ellipse_5172" x="129" y="78" width="143" height="143" filterUnits="userSpaceOnUse">
      <feOffset dy="3" input="SourceAlpha"/>
      <feGaussianBlur stdDeviation="3" result="blur"/>
      <feFlood flood-opacity="0.161"/>
      <feComposite operator="in" in2="blur"/>
      <feComposite in="SourceGraphic"/>
    </filter>
  </defs>
  <g id="t2-c2" transform="translate(3969 9235)">
    <rect id="Rectangle_39193" data-name="Rectangle 39193" width="400" height="380" rx="20" transform="translate(-3969 -9235)" fill="#e1faee"/>
    <path id="Path_189738" data-name="Path 189738" d="M110.062,16.843a1.549,1.549,0,0,0-.585-1.289,7.277,7.277,0,0,0-2.057-.956,19.736,19.736,0,0,1-2.406-.956q-3.04-1.493-3.04-4.1a3.68,3.68,0,0,1,.757-2.293A4.9,4.9,0,0,1,104.874,5.7a8.34,8.34,0,0,1,3.115-.553,7.3,7.3,0,0,1,3.024.6,4.788,4.788,0,0,1,2.079,1.713A4.474,4.474,0,0,1,113.833,10h-3.76a1.891,1.891,0,0,0-.585-1.482,2.282,2.282,0,0,0-1.584-.526,2.573,2.573,0,0,0-1.6.446,1.313,1.313,0,0,0,.059,2.224,8.128,8.128,0,0,0,2.267,1.01,13.885,13.885,0,0,1,2.664,1.123,4.477,4.477,0,0,1,2.535,4.028,3.819,3.819,0,0,1-1.547,3.223,6.88,6.88,0,0,1-4.243,1.171,8.418,8.418,0,0,1-3.443-.682,5.191,5.191,0,0,1-2.32-1.869,4.87,4.87,0,0,1-.779-2.734h3.781a2.4,2.4,0,0,0,.65,1.853,3.072,3.072,0,0,0,2.111.6,2.427,2.427,0,0,0,1.477-.4A1.33,1.33,0,0,0,110.062,16.843Zm11.161,4.372a5.975,5.975,0,0,1-4.329-1.6,5.509,5.509,0,0,1-1.654-4.152v-.3a7.138,7.138,0,0,1,.661-3.147,4.834,4.834,0,0,1,1.928-2.111,5.821,5.821,0,0,1,3.008-.747,5.031,5.031,0,0,1,3.867,1.52,5.973,5.973,0,0,1,1.418,4.238v1.407h-7.2a2.609,2.609,0,0,0,.849,1.536,2.525,2.525,0,0,0,1.7.559,3.254,3.254,0,0,0,2.686-1.2l1.654,1.955a4.624,4.624,0,0,1-1.917,1.488A6.48,6.48,0,0,1,121.223,21.215Zm-.408-9.26q-1.59,0-1.891,2.105h3.652v-.279a1.793,1.793,0,0,0-.44-1.348A1.753,1.753,0,0,0,120.815,11.955Zm11.677,6.467a1.61,1.61,0,0,0,1.182-.414,1.517,1.517,0,0,0,.408-1.155h3.395a4.018,4.018,0,0,1-1.37,3.137,5.1,5.1,0,0,1-3.529,1.225,5.158,5.158,0,0,1-4-1.59,6.264,6.264,0,0,1-1.461-4.4v-.15a7.08,7.08,0,0,1,.65-3.11,4.732,4.732,0,0,1,1.875-2.073,5.589,5.589,0,0,1,2.9-.725,5.03,5.03,0,0,1,3.6,1.257,4.458,4.458,0,0,1,1.332,3.405h-3.395a1.987,1.987,0,0,0-.44-1.386,1.52,1.52,0,0,0-1.182-.483q-1.407,0-1.644,1.794a12.659,12.659,0,0,0-.075,1.568,4.972,4.972,0,0,0,.419,2.428A1.45,1.45,0,0,0,132.492,18.422Zm13.438,1.321a3.732,3.732,0,0,1-3.1,1.472,3.661,3.661,0,0,1-2.9-1.112,4.676,4.676,0,0,1-.983-3.2V9.377h3.62v7.552a1.3,1.3,0,0,0,1.45,1.493,1.892,1.892,0,0,0,1.772-.892V9.377h3.642V21h-3.395Zm8.809-10.366.118,1.364a3.942,3.942,0,0,1,3.319-1.579,3.316,3.316,0,0,1,2.712,1.085,5.165,5.165,0,0,1,.929,3.266V21h-3.631V13.663a1.961,1.961,0,0,0-.354-1.294,1.64,1.64,0,0,0-1.289-.414,1.726,1.726,0,0,0-1.579.838V21h-3.62V9.377Zm8.626,5.726a7.1,7.1,0,0,1,1.192-4.351,3.925,3.925,0,0,1,3.33-1.59,3.338,3.338,0,0,1,2.621,1.225V4.5h3.631V21h-3.255l-.183-1.246a3.428,3.428,0,0,1-2.836,1.461,3.918,3.918,0,0,1-3.287-1.59A7.325,7.325,0,0,1,163.365,15.1Zm3.62.226q0,3.094,1.8,3.094a1.782,1.782,0,0,0,1.719-1.01V12.986a1.734,1.734,0,0,0-1.7-1.031q-1.676,0-1.815,2.707ZM182.744,21a4.088,4.088,0,0,1-.344-1.042,3.366,3.366,0,0,1-2.793,1.257,4.124,4.124,0,0,1-2.793-.994,3.163,3.163,0,0,1-1.149-2.5,3.251,3.251,0,0,1,1.4-2.857,7.114,7.114,0,0,1,4.061-.967h1.117v-.615q0-1.608-1.386-1.608a1.133,1.133,0,0,0-1.289,1.274h-3.62a3.245,3.245,0,0,1,1.434-2.736,6.027,6.027,0,0,1,3.658-1.051,5.284,5.284,0,0,1,3.513,1.085,3.772,3.772,0,0,1,1.321,2.976v5.146a5.269,5.269,0,0,0,.494,2.449V21Zm-2.267-2.363a2.019,2.019,0,0,0,1.123-.29,1.818,1.818,0,0,0,.639-.655V15.833h-1.053q-1.891,0-1.891,1.7a1.036,1.036,0,0,0,.333.8A1.205,1.205,0,0,0,180.477,18.637ZM194.9,12.653l-1.192-.086a2.142,2.142,0,0,0-2.191,1.074V21H187.9V9.377h3.395l.118,1.493a2.8,2.8,0,0,1,2.546-1.708,3.53,3.53,0,0,1,1.01.129ZM200.028,21H196.4V9.377h3.631ZM196.182,6.369a1.63,1.63,0,0,1,.559-1.275,2.364,2.364,0,0,1,2.9,0,1.63,1.63,0,0,1,.559,1.275,1.63,1.63,0,0,1-.559,1.275,2.364,2.364,0,0,1-2.9,0A1.63,1.63,0,0,1,196.182,6.369ZM208.8,21a4.088,4.088,0,0,1-.344-1.042,3.366,3.366,0,0,1-2.793,1.257,4.124,4.124,0,0,1-2.793-.994,3.163,3.163,0,0,1-1.149-2.5,3.251,3.251,0,0,1,1.4-2.857,7.114,7.114,0,0,1,4.061-.967H208.3v-.615q0-1.608-1.386-1.608a1.133,1.133,0,0,0-1.289,1.274H202a3.245,3.245,0,0,1,1.434-2.736A6.027,6.027,0,0,1,207.1,9.162a5.284,5.284,0,0,1,3.513,1.085,3.772,3.772,0,0,1,1.321,2.976v5.146a5.269,5.269,0,0,0,.494,2.449V21Zm-2.267-2.363a2.019,2.019,0,0,0,1.123-.29,1.818,1.818,0,0,0,.639-.655V15.833h-1.053q-1.891,0-1.891,1.7a1.036,1.036,0,0,0,.333.8A1.205,1.205,0,0,0,206.538,18.637Zm13.481-.9a.836.836,0,0,0-.483-.741,7.353,7.353,0,0,0-1.837-.58,8.376,8.376,0,0,1-2.234-.79,3.743,3.743,0,0,1-1.343-1.187,2.835,2.835,0,0,1-.462-1.6,3.212,3.212,0,0,1,1.321-2.637,5.443,5.443,0,0,1,3.459-1.037,6.03,6.03,0,0,1,3.7,1.042,3.258,3.258,0,0,1,1.4,2.739H219.9q0-1.4-1.472-1.4a1.459,1.459,0,0,0-.956.317.981.981,0,0,0-.387.79.9.9,0,0,0,.473.784,4.466,4.466,0,0,0,1.509.494,13.042,13.042,0,0,1,1.821.462q2.621.9,2.621,3.233a3.044,3.044,0,0,1-1.413,2.589,6.2,6.2,0,0,1-3.658,1,6.322,6.322,0,0,1-2.664-.537,4.455,4.455,0,0,1-1.826-1.461,3.308,3.308,0,0,1-.655-1.944h3.384a1.4,1.4,0,0,0,.537,1.176,2.209,2.209,0,0,0,1.321.371,1.738,1.738,0,0,0,1.112-.3A.962.962,0,0,0,220.019,17.734Z" transform="translate(-3931 -8973)" fill="#12263f"/>
    <path id="Path_188119" data-name="Path 188119" d="M0,0H172V3H0Z" transform="translate(-3855 -9001)" fill="#1b4733"/>
    <g id="t2-ic3">
      <g transform="matrix(1, 0, 0, 1, -3969, -9235)" filter="url(#Ellipse_5172)">
        <circle id="Ellipse_5172-2" data-name="Ellipse 5172" cx="62.5" cy="62.5" r="62.5" transform="translate(138 84)" fill="#fff"/>
      </g>
      <g id="vigilancia" transform="translate(-3822 -9142)">
        <path id="Path_153895" data-name="Path 153895" d="M80,26.533A2.533,2.533,0,0,1,82.533,24h59.533a2.533,2.533,0,0,1,2.533,2.533v41.8a2.533,2.533,0,0,1-2.533,2.533H80Z" transform="translate(-53.867 -6.733)" fill="#e1faee"/>
        <path id="Path_153896" data-name="Path 153896" d="M323,368.467,330.6,352h-19L304,368.467Z" transform="translate(-242.4 -282.8)" fill="#dee4f0"/>
        <path id="Path_153897" data-name="Path 153897" d="M240,456h29.133v2.533a2.533,2.533,0,0,1-2.533,2.533H242.533A2.533,2.533,0,0,1,240,458.533Z" transform="translate(-188.533 -370.333)" fill="#b0c0d2"/>
        <path id="Path_153898" data-name="Path 153898" d="M64,280h8.713v11.4H64Z" transform="translate(-40.4 -222.2)" fill="#ffceb6"/>
        <path id="Path_153899" data-name="Path 153899" d="M102.333,240v9.98a2.687,2.687,0,0,1-4.587,1.9L96,250.133V240Z" transform="translate(-67.333 -188.533)" fill="#ffceb6"/>
        <path id="Path_153900" data-name="Path 153900" d="M43.8,229.933l-2.952-4.92A5.952,5.952,0,0,1,40,221.952h0A5.952,5.952,0,0,1,45.951,216H55.2a2.533,2.533,0,1,1,0,5.067H51.4l-2.533,3.8v5.067Z" transform="translate(-20.2 -168.333)" fill="#12263f"/>
        <path id="Path_153901" data-name="Path 153901" d="M63.267,357.533H52.857a5.067,5.067,0,0,1-3.766-1.677l-4.824-5.36v10.837H24V343.6a7.6,7.6,0,0,1,7.6-7.6h8.465a8.867,8.867,0,0,1,6.862,3.252l8.739,10.681h7.6Z" transform="translate(-6.733 -269.333)" fill="#1d6142"/>
        <path id="Path_153902" data-name="Path 153902" d="M272,424.867v-7.6h2.533L279.6,416l5.645,3.387a1.418,1.418,0,0,1-1.008,2.607l-4.637-.927-4.391,3.293a2.533,2.533,0,0,1-1.52.507Z" transform="translate(-215.467 -336.667)" fill="#ffceb6"/>
        <path id="Path_153903" data-name="Path 153903" d="M347.4,461.067h-8.867A2.533,2.533,0,0,1,336,458.533V456h13.933v2.533A2.533,2.533,0,0,1,347.4,461.067Z" transform="translate(-269.333 -370.333)" fill="#b0c0d2"/>
        <path id="Path_153904" data-name="Path 153904" d="M192,248h7.6v6.333H192Z" transform="translate(-148.133 -195.267)" fill="#ef9310"/>
        <path id="Path_153905" data-name="Path 153905" d="M240,216h7.6v11.4H240Z" transform="translate(-188.533 -168.333)" fill="#ef9b24"/>
        <path id="Path_153906" data-name="Path 153906" d="M288,176h7.6v17.733H288Z" transform="translate(-228.933 -134.667)" fill="#efa53c"/>
        <path id="Path_153907" data-name="Path 153907" d="M336,136h7.6v24.067H336Z" transform="translate(-269.333 -101)" fill="#efaf54"/>
        <path id="Path_153908" data-name="Path 153908" d="M384,104h7.6v29.133H384Z" transform="translate(-309.733 -74.067)" fill="#efbe78"/>
        <g id="Group_98789" data-name="Group 98789" transform="translate(42.363 22.285)">
          <circle id="Ellipse_4530" data-name="Ellipse 4530" cx="2.636" cy="2.636" r="2.636" transform="translate(0 17.575)" fill="#f9dfbd"/>
          <circle id="Ellipse_4531" data-name="Ellipse 4531" cx="2.636" cy="2.636" r="2.636" transform="translate(12.888 8.788)" fill="#f9dfbd"/>
          <circle id="Ellipse_4532" data-name="Ellipse 4532" cx="2.636" cy="2.636" r="2.636" transform="translate(24.019 0)" fill="#f9dfbd"/>
        </g>
        <path id="Path_153909" data-name="Path 153909" d="M88.2,229.533h-19a1.267,1.267,0,0,0-1.15.736l-4.372,9.472-4.767,1.192H49.534l-8.359-10.217a10.091,10.091,0,0,0-7.595-3.71v-.216a3.96,3.96,0,0,0,2.687-3.744v-7.664A3.8,3.8,0,0,0,35,208H25.752a7.218,7.218,0,0,0-6.19,10.932l2.771,4.619v3.82a8.881,8.881,0,0,0-6.333,8.5V253.6h2.533V235.867a6.341,6.341,0,0,1,6.333-6.333h8.465a7.572,7.572,0,0,1,5.882,2.788L47.953,243a1.267,1.267,0,0,0,.98.464h6.333v5.067H46.123a3.805,3.805,0,0,1-2.824-1.258l-9.89-10.989-1.883,1.695,4.741,5.268V253.6H38.8v-7.536l2.616,2.906a6.343,6.343,0,0,0,4.707,2.1h4.295A3.806,3.806,0,0,0,54,253.6H78.067a3.8,3.8,0,0,0,3.8-3.8v-2.255l7.483-16.214a1.267,1.267,0,0,0-1.15-1.8Zm-55.887-5.067a1.412,1.412,0,0,1-1-.416l-1.375-1.375v-4.159l1.945-2.917h1.855v7.446a1.422,1.422,0,0,1-1.42,1.42Zm-11.246-9.248a4.69,4.69,0,0,1,4.685-4.685H35a1.267,1.267,0,1,1,0,2.533H31.2a1.267,1.267,0,0,0-1.054.564l-2.533,3.8a1.266,1.266,0,0,0-.213.7v3.8H24.317l-2.583-4.3A4.686,4.686,0,0,1,21.067,215.218Zm3.8,9.248h3.275l1.375,1.375a3.937,3.937,0,0,0,1.529.95V227h-6.18Zm32.933,19h1.267a1.263,1.263,0,0,0,.307-.038l4.557-1.139,5.195,3.117a.152.152,0,0,1-.108.279l-4.637-.927a1.267,1.267,0,0,0-1.008.229l-4.391,3.293a1.275,1.275,0,0,1-.76.253H57.8Zm2.7,6.84,2.364-1.773H65.4V249.8a3.781,3.781,0,0,0,.218,1.267h-7.4A3.825,3.825,0,0,0,60.5,250.307Zm18.831-.507a1.268,1.268,0,0,1-1.267,1.267H69.2a1.268,1.268,0,0,1-1.267-1.267v-1.267h11.4Zm.456-3.8h-8.1a2.654,2.654,0,0,0-1.26-2.766l-4.365-2.619,3.945-8.548H86.22Z" transform="translate(0 -161.6)"/>
        <path id="Path_153910" data-name="Path 153910" d="M135.333,16H75.8A3.8,3.8,0,0,0,72,19.8V43.867h2.533V19.8A1.268,1.268,0,0,1,75.8,18.533h59.533A1.268,1.268,0,0,1,136.6,19.8V61.6a1.268,1.268,0,0,1-1.267,1.267h-49.4V65.4h49.4a3.8,3.8,0,0,0,3.8-3.8V19.8A3.8,3.8,0,0,0,135.333,16Z" transform="translate(-47.133 0)"/>
        <circle id="Ellipse_4533" data-name="Ellipse 4533" cx="1.172" cy="1.172" r="1.172" transform="translate(28.889 19.942)"/>
        <circle id="Ellipse_4534" data-name="Ellipse 4534" cx="1.172" cy="1.172" r="1.172" transform="translate(32.404 19.942)"/>
        <circle id="Ellipse_4535" data-name="Ellipse 4535" cx="1.172" cy="1.172" r="1.172" transform="translate(36.504 19.942)"/>
        <path id="Path_153911" data-name="Path 153911" d="M209.8,96h-7.6a1.267,1.267,0,0,0-1.267,1.267v3.8H194.6a1.267,1.267,0,0,0-1.267,1.267V107.4H187a1.267,1.267,0,0,0-1.267,1.267v5.067H179.4A1.267,1.267,0,0,0,178.133,115v3.8H171.8a1.267,1.267,0,0,0-1.267,1.267v5.067H168v2.533h45.6v-2.533h-2.533V97.267A1.267,1.267,0,0,0,209.8,96Zm-36.733,25.333h5.067v3.8h-5.067Zm7.6-5.067h5.067v8.867h-5.067Zm7.6-6.333h5.067v15.2h-5.067Zm7.6-6.333h5.067v21.533h-5.067Zm12.667,21.533h-5.067v-26.6h5.067Z" transform="translate(-127.933 -67.333)"/>
        <path id="Path_153912" data-name="Path 153912" d="M144,70.794h5.285a3.8,3.8,0,0,0,7.218-2.372l6.588-4.854a3.8,3.8,0,0,0,5.946-4.381l5.766-4.249a3.8,3.8,0,0,0,5.714-1.877h7.818V50.528h-7.818A3.8,3.8,0,0,0,173.3,52.9l-5.981,4.407a3.8,3.8,0,0,0-5.516,4.064L155,66.384a3.8,3.8,0,0,0-5.714,1.877H144Zm32.933-20.267a1.267,1.267,0,1,1-1.267,1.267A1.267,1.267,0,0,1,176.933,50.528Zm-11.4,8.867a1.267,1.267,0,1,1-1.267,1.267A1.267,1.267,0,0,1,165.533,59.394Zm-12.667,8.867a1.267,1.267,0,1,1-1.267,1.267A1.267,1.267,0,0,1,152.867,68.261Z" transform="translate(-107.733 -26.928)"/>
        <path id="Path_153913" data-name="Path 153913" d="M440,64h2.533v2.533H440Z" transform="translate(-356.867 -40.4)"/>
        <path id="Path_153914" data-name="Path 153914" d="M112,176h2.533v2.533H112Z" transform="translate(-80.8 -134.667)"/>
      </g>
    </g>
  </g>
</svg>
