<svg xmlns="http://www.w3.org/2000/svg" xmlns:xlink="http://www.w3.org/1999/xlink" width="143" height="143" viewBox="0 0 143 143">
  <defs>
    <filter id="Ellipse_4877" x="0" y="0" width="143" height="143" filterUnits="userSpaceOnUse">
      <feOffset dy="3" input="SourceAlpha"/>
      <feGaussianBlur stdDeviation="3" result="blur"/>
      <feFlood flood-opacity="0.161"/>
      <feComposite operator="in" in2="blur"/>
      <feComposite in="SourceGraphic"/>
    </filter>
  </defs>
  <g id="t2-ic2" transform="translate(-519 -2543)">
    <g transform="matrix(1, 0, 0, 1, 519, 2543)" filter="url(#Ellipse_4877)">
      <circle id="Ellipse_4877-2" data-name="Ellipse 4877" cx="62.5" cy="62.5" r="62.5" transform="translate(9 6)" fill="#fff"/>
    </g>
    <g id="literature" transform="translate(551 2550)">
      <g id="Group_97196" data-name="Group 97196" transform="translate(1.563 27.563)">
        <path id="Path_151987" data-name="Path 151987" d="M10,116v50H42.187c0,1.727,2.8,3.125,6.25,3.125s6.25-1.4,6.25-3.125H86.875V116Z" transform="translate(-10 -103.5)" fill="#ef9310"/>
        <path id="Path_151988" data-name="Path 151988" d="M367.375,408.5l-4.622-3.125L358,408.5V396h9.375Z" transform="translate(-303.625 -339.75)" fill="#257a53"/>
        <path id="Path_151989" data-name="Path 151989" d="M107.5,42.25V36a54.141,54.141,0,0,0-25.312,6.25H50v50h64.063v-50Z" transform="translate(-43.75 -36)" fill="#eefaff"/>
      </g>
      <g id="Group_97197" data-name="Group 97197" transform="translate(0 26)">
        <path id="Path_151990" data-name="Path 151990" d="M78.438,38.5h-5V33.813a1.562,1.562,0,0,0-1.562-1.562h-5V27.563A1.562,1.562,0,0,0,65.313,26a55.728,55.728,0,0,0-25.681,6.25H7.813A1.562,1.562,0,0,0,6.25,33.813V38.5H1.563A1.562,1.562,0,0,0,0,40.063v50a1.562,1.562,0,0,0,1.563,1.563h9.062a1.563,1.563,0,1,0,0-3.125h-7.5V41.625H6.25V83.813a1.562,1.562,0,0,0,1.563,1.563H54.375V88.5H46.25a1.562,1.562,0,0,0-1.562,1.563c0,.054-.168.413-.967.812a9.6,9.6,0,0,1-7.441,0c-.8-.4-.967-.758-.967-.812A1.562,1.562,0,0,0,33.75,88.5H24.688a1.563,1.563,0,0,0,0,3.125H32.6c1.025,1.858,3.869,3.125,7.4,3.125s6.376-1.267,7.4-3.125h6.974v4.688A1.562,1.562,0,0,0,56.8,97.618l3.883-2.553,3.759,2.542a1.562,1.562,0,0,0,2.438-1.294V91.625H78.438A1.562,1.562,0,0,0,80,90.063v-50A1.562,1.562,0,0,0,78.438,38.5Zm-40,43.75H9.375V35.375H38.438Zm3.125-47.471a53.435,53.435,0,0,1,22.188-5.63V76.022A55.461,55.461,0,0,0,41.563,81.3ZM63.75,93.37l-2.184-1.477a1.563,1.563,0,0,0-1.734-.011L57.5,93.415v-8.04h6.25ZM47.418,82.25a53.628,53.628,0,0,1,17.894-3.125,1.562,1.562,0,0,0,1.563-1.562V35.375h3.438V82.25ZM76.875,88.5h-10V85.375h5a1.562,1.562,0,0,0,1.563-1.562V41.625h3.438Z" transform="translate(0 -26)"/>
        <path id="Path_151991" data-name="Path 151991" d="M81.563,129.125H95A1.563,1.563,0,0,0,95,126H81.563a1.563,1.563,0,1,0,0,3.125Z" transform="translate(-67.5 -110.375)"/>
        <path id="Path_151992" data-name="Path 151992" d="M81.563,169.125H101.25a1.563,1.563,0,1,0,0-3.125H81.563a1.563,1.563,0,1,0,0,3.125Z" transform="translate(-67.5 -144.125)"/>
        <path id="Path_151993" data-name="Path 151993" d="M81.563,209.125H101.25a1.563,1.563,0,0,0,0-3.125H81.563a1.563,1.563,0,1,0,0,3.125Z" transform="translate(-67.5 -177.875)"/>
        <path id="Path_151994" data-name="Path 151994" d="M81.563,249.125H101.25a1.563,1.563,0,1,0,0-3.125H81.563a1.563,1.563,0,1,0,0,3.125Z" transform="translate(-67.5 -211.625)"/>
        <path id="Path_151995" data-name="Path 151995" d="M81.563,289.125H101.25a1.563,1.563,0,1,0,0-3.125H81.563a1.563,1.563,0,1,0,0,3.125Z" transform="translate(-67.5 -245.375)"/>
        <path id="Path_151996" data-name="Path 151996" d="M81.563,329.125H101.25a1.563,1.563,0,1,0,0-3.125H81.563a1.563,1.563,0,1,0,0,3.125Z" transform="translate(-67.5 -279.125)"/>
        <circle id="Ellipse_4413" data-name="Ellipse 4413" cx="1.674" cy="1.674" r="1.674" transform="translate(16.067 62.502)"/>
      </g>
    </g>
  </g>
</svg>
