<svg xmlns="http://www.w3.org/2000/svg" width="100" height="100" viewBox="0 0 100 100">
  <g id="t3-p7" transform="translate(-1120.265 6652.873)">
    <rect id="Rectangle_39218" data-name="Rectangle 39218" width="79.048" height="56.876" transform="translate(1121.938 -6651.713)" fill="#e1faee"/>
    <path id="Path_188128" data-name="Path 188128" d="M1148.4-6611s10.255,11.623,10.825,11.85,16.75,0,16.75,0-1.594,15.725-16.18,15.725-16.18-13.788-15.839-13.674,1.367-8.545,1.367-8.545Z" transform="translate(-12.869 -22.788)" fill="#ffb64f"/>
    <path id="Path_188129" data-name="Path 188129" d="M1166.52-6619v15.155L1156-6615.81l4.9-3.19Z" transform="translate(-19.448 -18.434)" fill="#ebdd81"/>
    <path id="Path_188130" data-name="Path 188130" d="M1180.993-6608.51h17.775a17.571,17.571,0,0,0-5.583-11.964c-5.7-5.469-12.42-6.153-12.192-5.355S1180.993-6608.51,1180.993-6608.51Z" transform="translate(-33.046 -14.111)" fill="#ef9310"/>
    <path id="Path_188130_-_Outline" data-name="Path 188130 - Outline" d="M1199.26-6608.01h-18.774l.007-.507c.09-6.5.168-16.42.017-17.184a.623.623,0,0,1,.1-.542c.189-.251.537-.363,1.13-.363,2.233,0,7.408,1.567,11.788,5.771a18.918,18.918,0,0,1,5.061,8.252,14.8,14.8,0,0,1,.676,4.082Zm-17.76-1h16.749a15.545,15.545,0,0,0-.627-3.328,17.922,17.922,0,0,0-4.783-7.775,21.764,21.764,0,0,0-6.534-4.322,13.284,13.284,0,0,0-4.561-1.17c-.089,0-.161,0-.219.008.048.66.1,2.586.054,8.73C1181.557-6613.541,1181.516-6610.243,1181.5-6609.01Z" transform="translate(-33.046 -14.111)" fill="#707070"/>
    <path id="Path_188131" data-name="Path 188131" d="M1125-6457.526h31.9v-10.141l-6.153-5.583-19.712.456s-5.355,3.875-5.242,4.216S1125-6457.526,1125-6457.526Z" transform="translate(-2.577 -97.754)" fill="#ebdd81"/>
    <path id="Path_188132" data-name="Path 188132" d="M1207.417-6475.25l-7.52,1.823-2.621,3.419-1.025,4.557v6.495h31.677l-.8-10.254-5.7-4.216Z" transform="translate(-41.352 -96.666)" fill="#ef9310"/>
    <path id="Path_188133" data-name="Path 188133" d="M1150.476-6508l-4.33,1.253-3.646,4.331s.911,6.723,1.026,7.064,5.7,2.962,5.7,2.962l5.241-.683,3.418-4.786v-6.381L1153.1-6508Z" transform="translate(-12.101 -78.843)" fill="#afafaf"/>
    <path id="Path_188134" data-name="Path 188134" d="M1229.335-6501.619l-1.026,5.812-2.165,2.507h-5.355l-5.241-1.254-.8-7.862,4.444-5.583,4.216.456,2.735,1.025Z" transform="translate(-51.421 -78.843)" fill="#727997"/>
    <path id="Path_188135" data-name="Path 188135" d="M1310.718-6572.823l.57,5.47-1.937,5.126-6.609,1.938a43.5,43.5,0,0,1-4.216-3.076c-.114-.342-1.025-7.977-1.025-7.977l2.507-3.988s6.609-.8,6.951-.684S1310.718-6572.823,1310.718-6572.823Z" transform="translate(-96.455 -41.822)" fill="#ffceb6"/>
    <path id="Path_188136" data-name="Path 188136" d="M1288.56-6524.931h-19.75v-17.775l-5.166-3.039-10.027-5.014-3.95-7.6,1.671-3.646h3.494l3.19,3.038,11.7,5.318,12.61,1.519,4.254,1.367,1.975,3.343Z" transform="translate(-70.423 -49.455)" fill="#257a53"/>
    <path id="Path_188137" data-name="Path 188137" d="M1290.25-6461.4v-18.345h20.282v18.345Z" transform="translate(-92.509 -94.217)" fill="#b0c0d2"/>
    <g id="_000000ff" data-name="#000000ff" transform="translate(1120.265 -6652.873)">
      <path id="Path_188120" data-name="Path 188120" d="M1.8,0H80.34a2,2,0,0,1,1.682,1.953c.02,6.316.01,12.635.006,18.951a1.95,1.95,0,1,1-3.9.01c-.014-5.668,0-11.338-.006-17.008H3.906q0,26.086,0,52.174c4.887.006,9.775-.008,14.662.006a1.948,1.948,0,1,1-.014,3.895q-8.3.012-16.6,0A2.013,2.013,0,0,1,0,58.314V1.8A2.013,2.013,0,0,1,1.8,0Z"/>
      <path id="Path_188121" data-name="Path 188121" d="M61.546,53.994a1.954,1.954,0,0,1,1.877-1.289,21.046,21.046,0,0,1,20.994,21.15,1.932,1.932,0,0,1-1.652,1.814,15.914,15.914,0,0,1-1.672.035A17.814,17.814,0,1,1,61.428,56.037a7.855,7.855,0,0,1,.117-2.043m3.789,2.721q0,7.541,0,15.082,7.541,0,15.082,0A17.225,17.225,0,0,0,65.335,56.715m-10.3,5.9q3.167,3.229,6.395,6.4-.009-4.518,0-9.035a14.294,14.294,0,0,0-6.393,2.635M49.85,76.973A13.9,13.9,0,0,0,77.128,75.7c-4.5.012-9,0-13.506.006a2.126,2.126,0,0,1-1.66-.619q-4.852-4.834-9.689-9.68A13.9,13.9,0,0,0,49.85,76.973Z" transform="translate(-36.667 -42.41)"/>
      <path id="Path_188122" data-name="Path 188122" d="M316.235,75.419c1.986-.131,3.986-.02,5.979-.057a2.052,2.052,0,0,1,1.82.809,1.958,1.958,0,0,1-.4,2.7,2.735,2.735,0,0,1-1.828.4c-1.758-.021-3.516.021-5.273-.02a1.944,1.944,0,0,1-.293-3.834Z" transform="translate(-253.253 -60.636)"/>
      <path id="Path_188123" data-name="Path 188123" d="M272.933,115.411c4.781-.1,9.57-.012,14.355-.043a2.064,2.064,0,0,1,1.842.811,1.954,1.954,0,0,1-.4,2.7,2.406,2.406,0,0,1-1.617.406c-4.625-.016-9.25.012-13.875-.014a1.945,1.945,0,0,1-.309-3.855Z" transform="translate(-218.351 -92.831)"/>
      <path id="Path_188124" data-name="Path 188124" d="M401.286,137.55a1.947,1.947,0,1,1-.473,3.322A1.958,1.958,0,0,1,401.286,137.55Z" transform="translate(-321.95 -110.556)"/>
      <path id="Path_188125" data-name="Path 188125" d="M211.635,175.291a8.767,8.767,0,0,1,7.225-5.674,11.065,11.065,0,0,1,5.717.738,8.765,8.765,0,0,1,5.012,6.887,30.05,30.05,0,0,1,.057,3.51,8.856,8.856,0,0,1-1.893,5.059,8.874,8.874,0,0,1,5.355,7.232v41.7a2.128,2.128,0,0,1-1.66,1.691H210.61a2.045,2.045,0,0,1-1.674-2.145q0-17.971,0-35.941c-1.152-.561-2.322-1.09-3.473-1.656a2.094,2.094,0,0,0-1.066-.275q-18.36.015-36.721.006a2.125,2.125,0,0,1-1.824-.727,1.954,1.954,0,0,1,.314-2.766,3.493,3.493,0,0,1,2.295-.418q14.912.009,29.822,0a27.629,27.629,0,0,1-5.646-6.234,16.6,16.6,0,0,1-2.232-3.67,5.645,5.645,0,0,1,1.031-5.25,5.577,5.577,0,0,1,4.77-1.992,5.648,5.648,0,0,1,3.9,2.076,22.578,22.578,0,0,0,12.043,7.1,9.057,9.057,0,0,1-1.043-3.947,14.177,14.177,0,0,1,.527-5.3m6.9-1.652a4.842,4.842,0,0,0-3.525,4.582c.021,1.486-.205,3.088.582,4.436a5.8,5.8,0,0,0,9.537.063c.818-1.352.6-2.984.619-4.488a4.84,4.84,0,0,0-2.164-3.969,6.8,6.8,0,0,0-5.049-.623m-23.375,5.705a1.683,1.683,0,0,0-.9,2.4c.686,1.061,1.43,2.082,2.148,3.117a22.545,22.545,0,0,0,8.561,7.279c2.234,1.08,4.484,2.121,6.721,3.2a1.973,1.973,0,0,1,1.143,1.854q.012,7.641,0,15.281,8.18.012,16.359,0c0-6.275.014-12.549-.006-18.824a4.721,4.721,0,0,0-4.5-4.551c-3.453-.037-6.908.021-10.361-.027-1.375-.25-2.717-.674-4.08-.988a26.21,26.21,0,0,1-13.107-8.094,1.763,1.763,0,0,0-1.986-.645m17.682,37.037q-.006,8.071,0,16.143,3.114.006,6.229,0c.006-2.676-.008-5.35,0-8.025a1.95,1.95,0,1,1,3.9.033c.01,2.664,0,5.328,0,7.992q3.114.006,6.227,0,0-8.074,0-16.148Q221.021,216.386,212.844,216.381Z" transform="translate(-133.108 -136.432)"/>
      <path id="Path_188126" data-name="Path 188126" d="M126.8,287.177a1.947,1.947,0,1,1-.848,3.193A1.959,1.959,0,0,1,126.8,287.177Z" transform="translate(-100.931 -231.007)"/>
      <path id="Path_188127" data-name="Path 188127" d="M12.109,329.3a9.062,9.062,0,0,1,14.25,3.48,13.094,13.094,0,0,1,.662,5.666,9.23,9.23,0,0,1-1.592,4.709,10.985,10.985,0,0,1,8.555,4.635,10.982,10.982,0,0,1,8.555-4.635,9.685,9.685,0,0,1-1.295-2.809,15.494,15.494,0,0,1-.3-4.436,9.063,9.063,0,0,1,17.332-3.4,12.846,12.846,0,0,1,.768,6.119,9.246,9.246,0,0,1-1.582,4.529,10.877,10.877,0,0,1,10.5,10.707c.012,2.479.018,4.959,0,7.439a1.979,1.979,0,0,1-1.789,1.941H1.693A2.125,2.125,0,0,1,0,361.593v-8.022a10.91,10.91,0,0,1,10.51-10.408,9.712,9.712,0,0,1-1.3-2.812,15.535,15.535,0,0,1-.3-4.441,9.04,9.04,0,0,1,3.2-6.605m4.791,1.859a5.194,5.194,0,0,0-3.76,3.223,10,10,0,0,0-.332,3.67,5.158,5.158,0,0,0,9.408,2.861c1.139-1.551.957-3.57.865-5.381a5.188,5.188,0,0,0-6.182-4.373m32.037,0a5.183,5.183,0,0,0-4.074,4.568c-.049.9-.045,1.809,0,2.711a5.159,5.159,0,0,0,9.611,2.125c.912-1.51.713-3.348.643-5.031a5.189,5.189,0,0,0-6.176-4.373M3.949,353.289c-.094,2.018-.02,4.037-.043,6.057H32.031c-.006-1.826.012-3.652-.008-5.477a6.951,6.951,0,0,0-7.016-6.8c-4.824.006-9.65-.018-14.473.012a6.966,6.966,0,0,0-6.586,6.209m32.031-.006c-.094,2.02-.02,4.041-.043,6.063H64.062c-.01-1.889.021-3.777-.016-5.666a6.969,6.969,0,0,0-4.66-6.229,12.6,12.6,0,0,0-4.295-.385c-4.172.01-8.344-.018-12.516.014A6.968,6.968,0,0,0,35.98,353.283Z" transform="translate(0 -263.252)"/>
    </g>
  </g>
</svg>
