<svg xmlns="http://www.w3.org/2000/svg" width="100" height="100" viewBox="0 0 100 100">
  <g id="t3-p4" transform="translate(-1643 9407)">
    <rect id="Rectangle_39215" data-name="Rectangle 39215" width="100" height="100" transform="translate(1643 -9407)" fill="none"/>
    <g id="Group_125101" data-name="Group 125101" transform="translate(4549 1186.194)">
      <path id="Path_152206" data-name="Path 152206" d="M-2789.948-10561.157l-9.9,11.72-15.364-14.063s-4.818-3.254-7.553.913-14.583,23.567-14.583,23.567l-1.172,1.433-14.453-13.282h-5.469l-1.562,3.516.912,3.516,14.974,13.542h11.979l14.453-22.4,14.974,13.672,4.427.911,3.646-2.733,4.688-5.079,7.161-8.724,3.646,2.734h3.125l2.213-1.823,3.646-18.358-1.693-3.126-3.255-.781-17.708,6.25-1.172,2.474v2.344Z" transform="translate(-37.016 -13.835)" fill="#ef9310"/>
      <circle id="Ellipse_4426" data-name="Ellipse 4426" cx="14.941" cy="14.941" r="14.941" transform="translate(-2885.883 -10591.789)" fill="#ffb64f"/>
      <path id="Path_152207" data-name="Path 152207" d="M-2900.422-10342l-.911,2.864,4.688,18.881a52.613,52.613,0,0,0,32.682,26.433c23.958,6.77,44.922-12.109,44.922-12.109s9.505-10.548,12.5-18.751a54.264,54.264,0,0,0,2.865-17.058Z" transform="translate(-3.756 -202.133)" fill="none"/>
      <path id="Path_152209" data-name="Path 152209" d="M-2900.422-10342l-.911,2.864,4.688,18.881a52.613,52.613,0,0,0,32.682,26.433c23.958,6.77,44.922-12.109,44.922-12.109s9.505-10.548,12.5-18.751a54.264,54.264,0,0,0,2.865-17.058Z" transform="translate(-3.756 -202.133)" fill="#318c62"/>
      <path id="Path_152208" data-name="Path 152208" d="M-2901.333-10339.786l1.953,12.11,5.078,10.416,3.646,6.379s8.2,11.72,25.261,16.017,26.953,0,26.953,0-17.708-3.256-26.953-17.968a124.425,124.425,0,0,1-13.281-29.167h-20.7Z" transform="translate(-3.756 -202.133)" fill="#257a53"/>
      <g id="_000000ff" data-name="#000000ff" transform="translate(-2906 -10593.193)">
        <path id="Path_152204" data-name="Path 152204" d="M20.1,11.214A16.35,16.35,0,0,1,46.541,6.679a16.708,16.708,0,0,1,4.475,8.514,6,6,0,0,1,3.295,1.475c4.883,4.5,9.742,9.035,14.629,13.535,2.75-3.246,5.531-6.465,8.268-9.721-1.094-1.039-2.477-1.85-3.187-3.23a5.3,5.3,0,0,1,3.039-7.5c5.34-1.895,10.674-3.8,16.018-5.68a5.314,5.314,0,0,1,6.615,3.313,5.935,5.935,0,0,1,.074,3.4c-.986,5.314-1.949,10.633-2.941,15.945a5.3,5.3,0,0,1-7.158,3.98c-1.357-.531-2.307-1.689-3.447-2.545-.812.926-1.58,1.893-2.41,2.8a1.449,1.449,0,0,1-2.408-.8c-.166-.725.379-1.277.809-1.773.945-1.08,1.85-2.2,2.8-3.268a1.407,1.407,0,0,1,1.857-.2c1.217.924,2.293,2.025,3.531,2.92a2.4,2.4,0,0,0,3.553-1.584c1.01-5.367,1.98-10.744,2.98-16.113a3.06,3.06,0,0,0-.08-2.045,2.418,2.418,0,0,0-3.01-1.23c-5.365,1.9-10.734,3.8-16.09,5.723a2.407,2.407,0,0,0-.77,3.85c1.029.949,2.135,1.811,3.178,2.744a1.45,1.45,0,0,1,.193,2.082Q75.3,27.233,70.213,33.177a1.484,1.484,0,0,1-2.24.1Q60.221,26.082,52.461,18.9a2.859,2.859,0,0,0-1.2-.682,16.156,16.156,0,0,1-2.947,9.289,16.448,16.448,0,0,1-9.445,6.514c-.25.061-.527.115-.631.383q-3.243,5.06-6.494,10.113a1.448,1.448,0,0,1-2.2.244c-4.705-4.281-9.377-8.6-14.086-12.873a3.01,3.01,0,0,0-4.738,3.4,6.148,6.148,0,0,0,1.813,2.08q6.715,6.17,13.455,12.313c3.219-.02,6.439.027,9.656-.035,4.682-7.369,9.438-14.693,14.133-22.053.252-.4.523-.848,1.012-.975a1.514,1.514,0,0,1,1.584.42q6.981,6.483,13.979,12.947a6.035,6.035,0,0,0,2.221,1.639A3.042,3.042,0,0,0,71.7,40.73c2.072-2.418,4.129-4.848,6.2-7.27a1.445,1.445,0,1,1,2.23,1.836c-2.014,2.406-4.068,4.779-6.1,7.172a5.946,5.946,0,0,1-8.615.611q-6.943-6.422-13.883-12.848c-4.143,6.488-8.344,12.941-12.457,19.447q29.678-.015,59.355,0A1.511,1.511,0,0,1,100,50.956v1.037A49.96,49.96,0,0,1,80.158,90.988a49.516,49.516,0,0,1-20.393,9.162A50.2,50.2,0,0,1,26.252,95.1a1.45,1.45,0,0,1,.074-2.514c.758-.445,1.557.094,2.223.449a46.213,46.213,0,0,0,11.988,4.188,32.667,32.667,0,0,1-7.258-9.9A64.128,64.128,0,0,1,29.125,76.38,47.068,47.068,0,0,0,17.17,84.847a47.448,47.448,0,0,0,5.42,4.547,1.626,1.626,0,0,1,.881,1.51,1.444,1.444,0,0,1-2.266,1.064A50.037,50.037,0,0,1,0,51.581v-.654a1.516,1.516,0,0,1,1.563-1.252q10.037,0,20.076-.008c-3.906-3.619-7.846-7.2-11.777-10.791a6.167,6.167,0,0,1-2.127-3.484,5.913,5.913,0,0,1,8.521-6.436,13.277,13.277,0,0,1,2.588,2.086c3.789,3.49,7.611,6.947,11.4,10.441,1.5-2.318,3-4.635,4.467-6.975A16.355,16.355,0,0,1,20.1,11.214m12.447-6.3A13.44,13.44,0,0,0,24.82,9.267a13.467,13.467,0,0,0-.867,16.689A13.444,13.444,0,1,0,32.545,4.913M2.939,52.579A47.083,47.083,0,0,0,15.127,82.744c.781-.643,1.477-1.383,2.258-2.025A50.7,50.7,0,0,1,28.379,73.5a100.009,100.009,0,0,1-2.5-20.932c-7.646.02-15.293,0-22.939.01m25.852,0a93.626,93.626,0,0,0,2.314,19.727,50.216,50.216,0,0,1,37.813-.014,96.305,96.305,0,0,0,2.291-19.713q-21.208-.012-42.418,0m44.934,7.482a93.853,93.853,0,0,1-2.1,13.441,52.132,52.132,0,0,1,13.264,9.242,48.669,48.669,0,0,0,5.605-7.584,46.957,46.957,0,0,0,6.572-22.584c-7.645-.014-15.291.014-22.936-.014-.115,2.5-.15,5.006-.4,7.5M31.813,75.146a49.946,49.946,0,0,0,7.324,16.262c2.035,2.729,4.629,5.256,7.936,6.324a10.049,10.049,0,0,0,8.408-1.174A23.43,23.43,0,0,0,63.014,88.1a56.049,56.049,0,0,0,5.176-12.953,47.41,47.41,0,0,0-36.377,0M70.66,77.054A57.66,57.66,0,0,1,65.707,89.23a30.974,30.974,0,0,1-6.262,8.016A46.81,46.81,0,0,0,82.838,84.857a47.221,47.221,0,0,0-11.8-8.406C70.721,76.347,70.77,76.886,70.66,77.054Z" transform="translate(0 -1.805)"/>
        <path id="Path_152205" data-name="Path 152205" d="M154.658,29.212a1.451,1.451,0,0,1,2.318-.178c.432.445.344,1.107.387,1.676a5.468,5.468,0,0,1,2.668,1.318,1.46,1.46,0,0,1-.492,2.266,1.488,1.488,0,0,1-1.566-.219,3.3,3.3,0,0,0-3.105-.371c-1.035.432-1.539,2.166-.508,2.852,1.391.955,3.064,1.332,4.561,2.066a5,5,0,0,1,2.588,4.07,5.736,5.736,0,0,1-4.158,5.73c-.027.668.1,1.467-.445,1.973a1.459,1.459,0,0,1-2.254-.275,2.828,2.828,0,0,1-.205-1.535,7.322,7.322,0,0,1-3.588-1.488,1.46,1.46,0,0,1,.555-2.369c1.018-.408,1.756.658,2.687.846a5.335,5.335,0,0,0,2.936-.115,2.649,2.649,0,0,0,1.311-3.5c-.541-.947-1.711-1.115-2.631-1.512a10.728,10.728,0,0,1-3.83-2.207,4.728,4.728,0,0,1,.668-6.455,5.11,5.11,0,0,1,1.889-1.016A2.847,2.847,0,0,1,154.658,29.212Z" transform="translate(-121.072 -23.317)"/>
      </g>
    </g>
  </g>
</svg>
