<svg xmlns="http://www.w3.org/2000/svg" width="100" height="100" viewBox="0 0 100 100">
  <g id="t3-p2" transform="translate(-1448 9561)">
    <rect id="Rectangle_39202" data-name="Rectangle 39202" width="100" height="100" transform="translate(1448 -9561)" fill="none"/>
    <g id="questionnaire" transform="translate(1444.733 -9561)">
      <g id="Group_97314" data-name="Group 97314" transform="translate(16.304 1.365)">
        <path id="Path_152605" data-name="Path 152605" d="M86.707,9.749H73.866v8.594H33.436V9.749H20.593a3.906,3.906,0,0,0-3.906,3.906v83.2a3.906,3.906,0,0,0,3.906,3.906H86.707a3.906,3.906,0,0,0,3.906-3.906v-83.2a3.906,3.906,0,0,0-3.906-3.905Z" transform="translate(-16.687 -3.497)" fill="#257a53"/>
        <path id="Path_152606" data-name="Path 152606" d="M42.031,1.747H74.649a3.906,3.906,0,0,1,3.906,3.906V16.595H38.125V5.653a3.906,3.906,0,0,1,3.906-3.906Z" transform="translate(-21.376 -1.747)" fill="#e8e8e8"/>
        <path id="Path_152607" data-name="Path 152607" d="M24.687,20.752H86.113V96.921H24.687Z" transform="translate(-18.437 -5.904)" fill="#eff4f9"/>
        <path id="Path_152608" data-name="Path 152608" d="M46.125,9.747h27.93v8.6H46.125Z" transform="translate(-23.126 -3.497)" fill="#afafaf"/>
        <path id="Path_152609" data-name="Path 152609" d="M32.687,81.4H40.43v8.039H32.687Z" transform="translate(-20.187 -19.171)" fill="#ebdd81"/>
        <path id="Path_152610" data-name="Path 152610" d="M32.687,99.957H40.43V108H32.687Z" transform="translate(-20.187 -23.23)" fill="#ebdd81"/>
        <g id="Group_97312" data-name="Group 97312" transform="translate(26.363 21.388)">
          <path id="Path_152611" data-name="Path 152611" d="M64.157,52.323h-6.25V44.072h3.125a4.35,4.35,0,1,0-4.35-4.35h-6.25A10.6,10.6,0,1,1,64.157,49.853Z" transform="translate(-50.432 -29.123)" fill="#ffb64f"/>
          <path id="Path_152612" data-name="Path 152612" d="M60,65.63h6.25v5.691H60Z" transform="translate(-52.525 -37.109)" fill="#ffb64f"/>
        </g>
        <g id="Group_97313" data-name="Group 97313" transform="translate(25.44 61.819)">
          <path id="Path_152613" data-name="Path 152613" d="M85.236,83.609H50.617a1.367,1.367,0,0,1,0-2.734H85.236a1.367,1.367,0,1,1,0,2.734Z" transform="translate(-49.25 -80.875)" fill="#d8e5ef"/>
          <path id="Path_152614" data-name="Path 152614" d="M78.254,91.448H50.617a1.367,1.367,0,0,1,0-2.734H78.254a1.367,1.367,0,0,1,0,2.734Z" transform="translate(-49.25 -82.59)" fill="#d8e5ef"/>
          <path id="Path_152615" data-name="Path 152615" d="M85.236,102.166H50.617a1.367,1.367,0,0,1,0-2.734H85.236a1.367,1.367,0,1,1,0,2.734Z" transform="translate(-49.25 -84.934)" fill="#d8e5ef"/>
          <path id="Path_152616" data-name="Path 152616" d="M78.254,110.005H50.617a1.367,1.367,0,0,1,0-2.734H78.254a1.367,1.367,0,0,1,0,2.734Z" transform="translate(-49.25 -86.649)" fill="#d8e5ef"/>
        </g>
      </g>
      <g id="Group_97315" data-name="Group 97315" transform="translate(14.937 0)">
        <path id="Path_152617" data-name="Path 152617" d="M86.324,6.25H74.85V5.271A5.28,5.28,0,0,0,69.576,0H36.959a5.28,5.28,0,0,0-5.273,5.273V6.25H20.21a5.279,5.279,0,0,0-5.273,5.273v83.2A5.28,5.28,0,0,0,20.21,100H86.324A5.28,5.28,0,0,0,91.6,94.727v-83.2A5.279,5.279,0,0,0,86.324,6.25Zm-51.9-.979a2.542,2.542,0,0,1,2.539-2.539H69.576a2.542,2.542,0,0,1,2.539,2.539v9.573H68.6V7.615A1.367,1.367,0,0,0,67.233,6.25H39.3a1.367,1.367,0,0,0-1.367,1.367v7.227H34.42Zm31.446,9.573H40.67V8.984h25.2Zm23,79.88a2.542,2.542,0,0,1-2.539,2.539H20.21a2.542,2.542,0,0,1-2.539-2.539v-83.2A2.542,2.542,0,0,1,20.21,8.983H31.686v5.861H22.554a1.368,1.368,0,0,0-1.367,1.367V92.384a1.368,1.368,0,0,0,1.367,1.367H83.98a1.367,1.367,0,0,0,1.367-1.367V82.051a1.367,1.367,0,0,0-2.734,0v8.966H23.921V17.578H82.613V60.371a1.367,1.367,0,0,0,2.734,0V16.213a1.367,1.367,0,0,0-1.367-1.367H74.85V8.984H86.324a2.542,2.542,0,0,1,2.539,2.539Z" transform="translate(-14.937 0)"/>
        <path id="Path_152618" data-name="Path 152618" d="M102.929,88.274a1.368,1.368,0,0,0-1.367,1.367V91.4a1.367,1.367,0,0,0,2.734,0V89.641A1.367,1.367,0,0,0,102.929,88.274Z" transform="translate(-33.886 -19.309)"/>
        <path id="Path_152619" data-name="Path 152619" d="M40.049,79.649H32.3a1.368,1.368,0,0,0-1.367,1.367v8.04A1.368,1.368,0,0,0,32.3,90.423h7.745a1.368,1.368,0,0,0,1.367-1.367V81.017A1.368,1.368,0,0,0,40.049,79.649Zm-1.368,8.04H33.671V82.383h5.009Z" transform="translate(-18.437 -17.423)"/>
        <path id="Path_152620" data-name="Path 152620" d="M40.049,98.207H32.3a1.367,1.367,0,0,0-1.367,1.367v8.039a1.368,1.368,0,0,0,1.367,1.367h7.745a1.368,1.368,0,0,0,1.367-1.367V99.574a1.367,1.367,0,0,0-1.367-1.367Zm-1.367,8.039h-5.01v-5.3h5.009Z" transform="translate(-18.437 -21.482)"/>
        <path id="Path_152621" data-name="Path 152621" d="M56.3,40.706a1.368,1.368,0,0,0,1.367-1.367,2.983,2.983,0,1,1,2.983,2.983H57.524a1.367,1.367,0,0,0-1.367,1.367V51.94a1.366,1.366,0,0,0,1.367,1.367h6.25a1.366,1.366,0,0,0,1.367-1.367V50.434a11.969,11.969,0,0,0-4.492-23.062,1.367,1.367,0,0,0,0,2.734A9.234,9.234,0,0,1,63.37,48.164a1.366,1.366,0,0,0-.963,1.306v1.1H58.891V45.057h1.758A5.717,5.717,0,1,0,55.1,37.972H51.516a9.164,9.164,0,0,1,3.573-6,1.367,1.367,0,0,0-1.65-2.18,11.882,11.882,0,0,0-4.757,9.546,1.367,1.367,0,0,0,1.367,1.367Z" transform="translate(-22.318 -5.987)"/>
        <path id="Path_152622" data-name="Path 152622" d="M65.867,63.88h-6.25a1.367,1.367,0,0,0-1.367,1.367v5.691a1.367,1.367,0,0,0,1.367,1.367h6.25a1.367,1.367,0,0,0,1.367-1.367V65.247A1.367,1.367,0,0,0,65.867,63.88ZM64.5,69.571H60.984V66.614H64.5Z" transform="translate(-24.411 -13.973)"/>
        <path id="Path_152623" data-name="Path 152623" d="M85.236,80.875H50.617a1.367,1.367,0,0,0,0,2.734H85.236a1.367,1.367,0,1,0,0-2.734Z" transform="translate(-22.443 -17.691)"/>
        <path id="Path_152624" data-name="Path 152624" d="M50.617,91.448H78.254a1.367,1.367,0,0,0,0-2.734H50.617a1.367,1.367,0,0,0,0,2.734Z" transform="translate(-22.443 -19.406)"/>
        <path id="Path_152625" data-name="Path 152625" d="M85.236,99.432H50.617a1.367,1.367,0,0,0,0,2.734H85.236a1.367,1.367,0,1,0,0-2.734Z" transform="translate(-22.443 -21.75)"/>
        <path id="Path_152626" data-name="Path 152626" d="M78.254,107.271H50.617a1.367,1.367,0,0,0,0,2.734H78.254a1.367,1.367,0,0,0,0-2.734Z" transform="translate(-22.443 -23.465)"/>
      </g>
    </g>
  </g>
</svg>
