<svg xmlns="http://www.w3.org/2000/svg" width="100" height="100" viewBox="0 0 100 100">
  <g id="t3-p5" transform="translate(-16 -16)">
    <path id="Path_153895" data-name="Path 153895" d="M80,27.333A3.333,3.333,0,0,1,83.333,24h78.333A3.333,3.333,0,0,1,165,27.333v55a3.333,3.333,0,0,1-3.333,3.333H80Z" transform="translate(-50.667 -6.333)" fill="#e1faee"/>
    <path id="Path_153896" data-name="Path 153896" d="M329,373.667,339,352H314l-10,21.667Z" transform="translate(-228 -266)" fill="#dee4f0"/>
    <path id="Path_153897" data-name="Path 153897" d="M240,456h38.333v3.333A3.333,3.333,0,0,1,275,462.667H243.333A3.333,3.333,0,0,1,240,459.333Z" transform="translate(-177.333 -348.333)" fill="#b0c0d2"/>
    <path id="Path_153898" data-name="Path 153898" d="M64,280H75.465v15H64Z" transform="translate(-38 -209)" fill="#ffceb6"/>
    <path id="Path_153899" data-name="Path 153899" d="M104.333,240v13.131a3.536,3.536,0,0,1-6.036,2.5l-2.3-2.3V240Z" transform="translate(-63.333 -177.333)" fill="#ffceb6"/>
    <path id="Path_153900" data-name="Path 153900" d="M45,234.333l-3.884-6.473A7.831,7.831,0,0,1,40,223.831h0A7.831,7.831,0,0,1,47.831,216H60a3.333,3.333,0,1,1,0,6.667H55l-3.333,5v6.667Z" transform="translate(-19 -158.333)" fill="#12263f"/>
    <path id="Path_153901" data-name="Path 153901" d="M75.667,364.333h-13.7a6.666,6.666,0,0,1-4.955-2.207l-6.347-7.052v14.259H24V346a10,10,0,0,1,10-10H45.138a11.667,11.667,0,0,1,9.03,4.279l11.5,14.054h10Z" transform="translate(-6.333 -253.333)" fill="#1d6142"/>
    <path id="Path_153902" data-name="Path 153902" d="M272,427.667v-10h3.333L282,416l7.427,4.456a1.866,1.866,0,0,1-1.326,3.431l-6.1-1.22L276.222,427a3.333,3.333,0,0,1-2,.667Z" transform="translate(-202.667 -316.667)" fill="#ffceb6"/>
    <path id="Path_153903" data-name="Path 153903" d="M351,462.667H339.333A3.333,3.333,0,0,1,336,459.333V456h18.333v3.333A3.333,3.333,0,0,1,351,462.667Z" transform="translate(-253.333 -348.333)" fill="#b0c0d2"/>
    <path id="Path_153904" data-name="Path 153904" d="M192,248h10v8.333H192Z" transform="translate(-139.333 -183.667)" fill="#ef9310"/>
    <path id="Path_153905" data-name="Path 153905" d="M240,216h10v15H240Z" transform="translate(-177.333 -158.333)" fill="#ef9b24"/>
    <path id="Path_153906" data-name="Path 153906" d="M288,176h10v23.333H288Z" transform="translate(-215.333 -126.667)" fill="#efa53c"/>
    <path id="Path_153907" data-name="Path 153907" d="M336,136h10v31.667H336Z" transform="translate(-253.333 -95)" fill="#efaf54"/>
    <path id="Path_153908" data-name="Path 153908" d="M384,104h10v38.333H384Z" transform="translate(-291.333 -69.667)" fill="#efbe78"/>
    <g id="Group_98789" data-name="Group 98789" transform="translate(50.688 24.27)">
      <circle id="Ellipse_4530" data-name="Ellipse 4530" cx="3.469" cy="3.469" r="3.469" transform="translate(0 23.125)" fill="#f9dfbd"/>
      <circle id="Ellipse_4531" data-name="Ellipse 4531" cx="3.469" cy="3.469" r="3.469" transform="translate(16.958 11.563)" fill="#f9dfbd"/>
      <circle id="Ellipse_4532" data-name="Ellipse 4532" cx="3.469" cy="3.469" r="3.469" transform="translate(31.604 0)" fill="#f9dfbd"/>
    </g>
    <path id="Path_153909" data-name="Path 153909" d="M111,236.333H86a1.667,1.667,0,0,0-1.513.968l-5.753,12.464-6.273,1.568H60.123l-11-13.443a13.278,13.278,0,0,0-9.993-4.881v-.284a5.21,5.21,0,0,0,3.536-4.927V217.713A5,5,0,0,0,41,208H28.831a9.5,9.5,0,0,0-8.144,14.384l3.647,6.078v5.026A11.686,11.686,0,0,0,16,244.667V268h3.333V244.667a8.343,8.343,0,0,1,8.333-8.333H38.8A9.963,9.963,0,0,1,46.544,240l11.5,14.054a1.667,1.667,0,0,0,1.29.611h8.333v6.667H55.636a5.007,5.007,0,0,1-3.716-1.655l-13.014-14.46-2.478,2.23,6.239,6.932V268H46v-9.916l3.442,3.824a8.346,8.346,0,0,0,6.194,2.759h5.651A5.008,5.008,0,0,0,66,268H97.667a5.006,5.006,0,0,0,5-5v-2.967l9.847-21.334A1.667,1.667,0,0,0,111,236.333Zm-73.536-6.667a1.857,1.857,0,0,1-1.322-.547l-1.81-1.81v-5.472L36.892,218h2.441v9.8a1.871,1.871,0,0,1-1.869,1.869ZM22.667,217.5a6.171,6.171,0,0,1,6.164-6.164H41a1.667,1.667,0,1,1,0,3.333H36a1.667,1.667,0,0,0-1.387.742l-3.333,5a1.666,1.666,0,0,0-.28.924v5H26.944l-3.4-5.664A6.166,6.166,0,0,1,22.667,217.5Zm5,12.169h4.31l1.81,1.81a5.179,5.179,0,0,0,2.012,1.251V233H27.667Zm43.333,25h1.667a1.662,1.662,0,0,0,.4-.05l6-1.5,6.835,4.1a.2.2,0,0,1-.142.367l-6.1-1.22a1.667,1.667,0,0,0-1.327.3L72.556,261a1.677,1.677,0,0,1-1,.333H71Zm3.556,9,3.111-2.333H81V263a4.976,4.976,0,0,0,.287,1.667H71.556A5.032,5.032,0,0,0,74.556,263.667ZM99.333,263a1.669,1.669,0,0,1-1.667,1.667H86A1.669,1.669,0,0,1,84.333,263v-1.667h15Zm.6-5H89.276a3.491,3.491,0,0,0-1.657-3.639l-5.743-3.446,5.191-11.248H108.4Z" transform="translate(0 -152)"/>
    <path id="Path_153910" data-name="Path 153910" d="M155.333,16H77a5.006,5.006,0,0,0-5,5V52.667h3.333V21A1.669,1.669,0,0,1,77,19.333h78.333A1.669,1.669,0,0,1,157,21V76a1.669,1.669,0,0,1-1.667,1.667h-65V81h65a5.006,5.006,0,0,0,5-5V21A5.006,5.006,0,0,0,155.333,16Z" transform="translate(-44.333)"/>
    <circle id="Ellipse_4533" data-name="Ellipse 4533" cx="1.542" cy="1.542" r="1.542" transform="translate(32.959 21.187)"/>
    <circle id="Ellipse_4534" data-name="Ellipse 4534" cx="1.542" cy="1.542" r="1.542" transform="translate(37.584 21.187)"/>
    <circle id="Ellipse_4535" data-name="Ellipse 4535" cx="1.542" cy="1.542" r="1.542" transform="translate(42.98 21.187)"/>
    <path id="Path_153911" data-name="Path 153911" d="M223,96H213a1.667,1.667,0,0,0-1.667,1.667v5H203a1.667,1.667,0,0,0-1.667,1.667V111H193a1.667,1.667,0,0,0-1.667,1.667v6.667H183A1.667,1.667,0,0,0,181.333,121v5H173a1.667,1.667,0,0,0-1.667,1.667v6.667H168v3.333h60v-3.333h-3.333V97.667A1.667,1.667,0,0,0,223,96Zm-48.333,33.333h6.667v5h-6.667Zm10-6.667h6.667v11.667h-6.667Zm10-8.333h6.667v20h-6.667Zm10-8.333h6.667v28.333h-6.667Zm16.667,28.333h-6.667v-35h6.667Z" transform="translate(-120.333 -63.333)"/>
    <path id="Path_153912" data-name="Path 153912" d="M144,77.995h6.953a5,5,0,0,0,9.5-3.121l8.668-6.387a5,5,0,0,0,7.824-5.765l7.587-5.59a5,5,0,0,0,7.518-2.47h10.287V51.328H192.047a5,5,0,0,0-9.5,3.121l-7.87,5.8a5,5,0,0,0-7.258,5.348l-8.951,6.6a5,5,0,0,0-7.518,2.47H144Zm43.333-26.667a1.667,1.667,0,1,1-1.667,1.667A1.667,1.667,0,0,1,187.333,51.328Zm-15,11.667a1.667,1.667,0,1,1-1.667,1.667A1.667,1.667,0,0,1,172.333,62.995ZM155.667,74.661A1.667,1.667,0,1,1,154,76.328,1.667,1.667,0,0,1,155.667,74.661Z" transform="translate(-101.333 -25.328)"/>
    <path id="Path_153913" data-name="Path 153913" d="M440,64h3.333v3.333H440Z" transform="translate(-335.667 -38)"/>
    <path id="Path_153914" data-name="Path 153914" d="M112,176h3.333v3.333H112Z" transform="translate(-76 -126.667)"/>
  </g>
</svg>
