<svg xmlns="http://www.w3.org/2000/svg" width="100" height="100" viewBox="0 0 100 100">
  <g id="t3-p6" transform="translate(-1459 9410)">
    <rect id="Rectangle_39201" data-name="Rectangle 39201" width="100" height="100" transform="translate(1459 -9410)" fill="none"/>
    <g id="investigacion" transform="translate(1461 -9410)">
      <path id="Path_151274" data-name="Path 151274" d="M162.559,42.668Zm0,0" transform="translate(-130.809 -34.334)" fill="#e6e6e6"/>
      <path id="Path_151275" data-name="Path 151275" d="M143.628,377.465v19.026a3.333,3.333,0,1,1-6.667,0V378.785Zm0,1.32" transform="translate(-110.211 -301.492)" fill="#257a53"/>
      <path id="Path_151276" data-name="Path 151276" d="M140.294,476a3.333,3.333,0,0,1-3.333-3.333v-3.333h6.667v3.333A3.333,3.333,0,0,1,140.294,476Zm0,0" transform="translate(-110.211 -377.666)" fill="#1b4733"/>
      <path id="Path_151277" data-name="Path 151277" d="M86.427,158.2A21.667,21.667,0,1,1,64.76,136.531,21.667,21.667,0,0,1,86.427,158.2Zm0,0" transform="translate(-34.676 -109.865)" fill="#ffb64f"/>
      <path id="Path_151278" data-name="Path 151278" d="M57.892,174.667a23.333,23.333,0,1,0-23.334-23.334A23.333,23.333,0,0,0,57.892,174.667Zm0-43.333a20,20,0,1,1-20,20A20,20,0,0,1,57.892,131.333Zm0,0" transform="translate(-27.808 -103)"/>
      <path id="Path_151279" data-name="Path 151279" d="M25.457,77.882V95a5,5,0,1,0,10,0V91.667h60A1.666,1.666,0,0,0,97.124,90V13.333a1.666,1.666,0,0,0-1.666-1.666h-5V8.334a1.667,1.667,0,0,0-1.666-1.667h-35a6.667,6.667,0,0,0-13.333,0H32.124a1.667,1.667,0,0,0-1.666,1.667v10a29.983,29.983,0,0,0-5,59.548Zm5,.452c.563,0,1.112-.053,1.666-.085V90H28.79V78.249C29.346,78.28,29.894,78.333,30.457,78.333Zm0,18.333A1.667,1.667,0,0,1,28.79,95V93.334h3.333V95A1.667,1.667,0,0,1,30.457,96.667Zm60-13.333V15H93.79V88.333H35.457V85H88.791a1.666,1.666,0,0,0,1.666-1.666Zm-43.333-80a3.333,3.333,0,0,1,3.333,3.333H43.79A3.333,3.333,0,0,1,47.124,3.333ZM33.791,10H50.457v5a1.667,1.667,0,0,1-3.333,0V13.333H43.79V15a5,5,0,0,0,10,0V10H87.124V81.667H35.457V77.882A29.975,29.975,0,0,0,33.791,18.53ZM30.457,21.667A26.667,26.667,0,1,1,3.79,48.333,26.666,26.666,0,0,1,30.457,21.667Zm0,0" transform="translate(-0.374 0)"/>
      <path id="Path_151280" data-name="Path 151280" d="M95.96,211.067h8.333a13.349,13.349,0,0,0,13.334-13.333V189.4a1.667,1.667,0,0,0-1.667-1.666h-8.334a13.348,13.348,0,0,0-13.333,13.333V209.4A1.667,1.667,0,0,0,95.96,211.067Zm8.333-3.333h-4.31l3.333-3.333h8.41A9.971,9.971,0,0,1,104.293,207.734Zm9.417-6.667h-7.06l7.643-7.643v4.31A9.949,9.949,0,0,1,113.71,201.067Zm-1.773-10-4.311,4.31v-4.31Zm-7.644.583v7.06l-6.667,6.667v-4.31A10,10,0,0,1,104.293,191.65Zm0,0" transform="translate(-75.876 -151.067)"/>
      <path id="Path_151281" data-name="Path 151281" d="M401.492,76.8h3.333v3.333h-3.333Zm0,0" transform="translate(-323.076 -61.801)"/>
      <path id="Path_151282" data-name="Path 151282" d="M401.492,110.934h3.333v3.333h-3.333Zm0,0" transform="translate(-323.076 -89.267)"/>
      <path id="Path_151283" data-name="Path 151283" d="M324.7,153.6h3.333v3.333H324.7Zm0,0" transform="translate(-261.278 -123.602)"/>
      <path id="Path_151284" data-name="Path 151284" d="M358.828,153.6h11.666v3.333H358.828Zm0,0" transform="translate(-288.745 -123.602)"/>
      <path id="Path_151285" data-name="Path 151285" d="M324.7,187.734h18.333v3.333H324.7Zm0,0" transform="translate(-261.278 -151.067)"/>
      <path id="Path_151286" data-name="Path 151286" d="M299.094,341.332h3.333v3.333h-3.333Zm0,0" transform="translate(-240.677 -274.666)"/>
      <path id="Path_151287" data-name="Path 151287" d="M333.227,341.332h16.666v3.333H333.227Zm0,0" transform="translate(-268.144 -274.666)"/>
      <path id="Path_151288" data-name="Path 151288" d="M299.094,375.465h23.333V378.8H299.094Zm0,0" transform="translate(-240.677 -302.132)"/>
      <path id="Path_151289" data-name="Path 151289" d="M324.7,221.867h18.333V225.2H324.7Zm0,0" transform="translate(-261.278 -178.534)"/>
      <path id="Path_151290" data-name="Path 151290" d="M324.7,256h18.333v3.333H324.7Zm0,0" transform="translate(-261.278 -206)"/>
      <path id="Path_151291" data-name="Path 151291" d="M324.7,290.133h18.333v3.333H324.7Zm0,0" transform="translate(-261.278 -233.466)"/>
      <path id="Path_151292" data-name="Path 151292" d="M18.417,360.684V372.6H21.75V359.464a1.666,1.666,0,0,0-1.192-1.6A33.515,33.515,0,0,1,2.725,344.977L0,346.887a36.9,36.9,0,0,0,18.417,13.8Zm0,0" transform="translate(0 -277.599)"/>
      <path id="Path_151293" data-name="Path 151293" d="M247.9,486.4h3.333v3.333H247.9Zm0,0" transform="translate(-199.478 -391.398)"/>
      <path id="Path_151294" data-name="Path 151294" d="M282.027,486.4h35v3.333h-35Zm0,0" transform="translate(-226.944 -391.398)"/>
      <path id="Path_151295" data-name="Path 151295" d="M299.094,0h23.333V3.333H299.094Zm0,0" transform="translate(-240.677)"/>
    </g>
  </g>
</svg>
