<svg xmlns="http://www.w3.org/2000/svg" xmlns:xlink="http://www.w3.org/1999/xlink" width="508.218" height="430.607" viewBox="0 0 508.218 430.607">
  <defs>
    <clipPath id="clip-path">
      <rect id="Rectangle_39391" data-name="Rectangle 39391" width="201.247" height="139.885" fill="none"/>
    </clipPath>
    <filter id="Path_189328" x="0" y="69.892" width="196.891" height="181.016" filterUnits="userSpaceOnUse">
      <feOffset dy="3" input="SourceAlpha"/>
      <feGaussianBlur stdDeviation="3" result="blur"/>
      <feFlood flood-opacity="0.161"/>
      <feComposite operator="in" in2="blur"/>
      <feComposite in="SourceGraphic"/>
    </filter>
    <clipPath id="clip-path-2">
      <rect id="Rectangle_39398" data-name="Rectangle 39398" width="312" height="374.335" transform="translate(1079.333 202.5)" fill="#fff" stroke="#707070" stroke-width="1"/>
    </clipPath>
    <clipPath id="clip-path-3">
      <rect id="Rectangle_39393" data-name="Rectangle 39393" width="293.013" height="423.12" fill="none"/>
    </clipPath>
  </defs>
  <g id="banner-princiapal" transform="translate(-947.796 -146.228)">
    <g id="Group_125367" data-name="Group 125367" transform="translate(12759.333 13171)">
      <path id="Path_189112" data-name="Path 189112" d="M2113.262,1552.3l-144.339-1.134q2.254-2.332,4.509-4.779a46.318,46.318,0,0,1,55.7-9.808q.438.232.875.474s34.725-4.464,60.441,3.867C2107.6,1546.477,2113.262,1552.3,2113.262,1552.3Z" transform="translate(-13778.46 -14526.517)" fill="#f8fcff"/>
      <path id="Path_189113" data-name="Path 189113" d="M3160.693,1466.683l-223.678-1.568s15.335-19.354,52-17.2c0,0,53.239-32.257,110.007-4.3a376.721,376.721,0,0,1,45.19-1.787A170.772,170.772,0,0,1,3160.693,1466.683Z" transform="translate(-14464.013 -14456.982)" fill="#f8fcff"/>
      <path id="Path_189114" data-name="Path 189114" d="M2503.937,1731.391s6.861-8.054,23.269-7.159c0,0,23.82-13.425,49.223-1.79,0,0,27-2.883,47,2.5,13.333,3.586,17.737,7.349,17.737,7.349Z" transform="translate(-14123.013 -14615.38)" fill="#f8fcff"/>
    </g>
    <g id="Group_125371" data-name="Group 125371" transform="translate(961.938 436.949)">
      <g id="Group_125370" data-name="Group 125370" transform="translate(0 0)" clip-path="url(#clip-path)">
        <path id="Path_189126" data-name="Path 189126" d="M77.056,59.258l18.573-.112c-.759,13.5-.025,47.526.088,65.66l-18.252.115C63.95,125,52.9,110.371,52.785,92.242s10.757-32.9,24.271-32.984" transform="translate(12.907 14.463)" fill="#414042" fill-rule="evenodd"/>
        <path id="Path_189127" data-name="Path 189127" d="M92.132,124.807c13.481-.083,24.383-14.9,24.271-32.984S105.2,59.06,91.723,59.145s-24.383,14.9-24.27,32.983,11.2,32.762,24.679,32.679" transform="translate(16.494 14.463)" fill="#58595b" fill-rule="evenodd"/>
        <path id="Path_189128" data-name="Path 189128" d="M91.418,119.211c11.56-.072,20.909-12.778,20.814-28.284s-9.6-28.1-21.165-28.024S70.157,75.681,70.253,91.188s9.6,28.1,21.165,28.023" transform="translate(17.179 15.381)" fill="#6d6e71" fill-rule="evenodd"/>
        <path id="Path_189129" data-name="Path 189129" d="M109.722,113.846l-.017-2.877,1.385,1.813q-.459.76-.95,1.481Zm-.045-7.288-.009-1.359c.18-.437.351-.884.514-1.334l3.7,3.142q-.33.872-.7,1.714ZM109.5,78.59l-.015-2.387,3.039-2.134q.4.82.76,1.674l-3.562,3.385c-.073-.18-.147-.36-.223-.538m-.045-7.254-.015-2.4q.431.586.839,1.2Zm5.417,8.879c.174.607.339,1.223.487,1.847l-4.012,2.316q-.293-1.324-.68-2.587Zm1.342,6.663c.077.641.138,1.289.187,1.941l-4.286,1.145c-.054-.92-.141-1.828-.261-2.721Zm.28,6.885q-.035.984-.115,1.951l-4.372-.077q.131-1.346.161-2.73Zm-.787,6.811q-.187.946-.413,1.874l-4.27-1.3q.34-1.282.582-2.623Zm-6.267-31.64.015,2.4-2.133,3.108q-.259-.411-.531-.8l-.014-2.151,2.5-2.779Zm.045,7.269.015,2.387c-.264-.617-.545-1.221-.843-1.806Zm.18,29,.009,1.359-.474-.292c.161-.351.317-.706.465-1.067m.036,5.77.017,2.877-2.694-2.692-.006-.968q.489-.728.936-1.506Zm-2.635,7.106-.007-1.233.4.809c-.132.143-.263.285-.4.424m-.29-46.587.014,2.151c-.185-.27-.376-.536-.57-.8l0-.731Zm.241,38.7.006.968-.4-.4c.133-.188.265-.376.395-.569m.041,6.656.007,1.233q-.276.289-.561.57l-.017-2.952Zm-.88-50.691-.006-.966c.1.1.2.194.3.294Zm-15.6-7.08-.167,5.856c.448-.042.9-.067,1.353-.07.231,0,.462,0,.691.012l-.417-5.839c-.1,0-.205,0-.31,0-.385,0-.769.019-1.15.045m15.589,6.114.006.966-1.927,4.371a21.307,21.307,0,0,0-1.681-1.566l2.7-4.592c.3.265.6.539.9.821m.042,6.927,0,.731c-.1-.133-.2-.266-.3-.4Zm.273,43.581.017,2.952-.2.193-2.9-4.409a21.55,21.55,0,0,0,1.622-1.66ZM77.71,118.822l-.006-.968,1.925-4.368a21.558,21.558,0,0,0,1.683,1.566l-2.7,4.592q-.457-.4-.9-.821m-.044-6.927,0-.732c.1.134.2.268.3.4ZM77.4,68.32l-.019-2.953.2-.2,2.9,4.409a22.027,22.027,0,0,0-1.623,1.66Zm18.327-8.886q.724.153,1.435.363l-.5,5.824a15.954,15.954,0,0,0-2.01-.51Zm4.971,1.787q.683.353,1.347.758l-1.391,5.556a17.761,17.761,0,0,0-1.885-1.064Zm2.472,60.184q-.648.444-1.317.838l-2.151-5.12a18.425,18.425,0,0,0,1.844-1.169Zm-4.793,2.468q-.7.25-1.42.446l-1.312-5.6a15.991,15.991,0,0,0,1.988-.625ZM93.3,124.939c-.381.025-.763.041-1.149.044-.1,0-.207,0-.311,0l-.416-5.839c.229.009.459.014.691.012.456,0,.9-.029,1.352-.07Zm-5.134-.366q-.724-.153-1.435-.362l.5-5.827a15.475,15.475,0,0,0,2.009.512Zm-4.971-1.787c-.454-.235-.9-.489-1.347-.759l1.39-5.556a18.039,18.039,0,0,0,1.887,1.065ZM80.719,62.6q.648-.444,1.317-.836l2.152,5.119a18.231,18.231,0,0,0-1.846,1.17Zm4.793-2.467q.7-.252,1.42-.447l1.313,5.6a15.94,15.94,0,0,0-1.989.624Zm-8.136,5.231L77.4,68.32l-.574-1.152-.007-1.228c.187-.194.373-.386.563-.572m.285,45.8,0,.732-.563.626-.012-2.156c.187.271.376.536.57.8m.042,6.691.006.968c-.1-.1-.2-.2-.3-.295Zm-.84-44.025-.006-.974.4.4q-.2.282-.393.574m-.05-7.889.007,1.228-.4-.809c.131-.142.264-.281.4-.419m.044,6.915.006.974q-.489.726-.937,1.5l-1.745-2.285-.019-2.88Zm.234,37.511.012,2.156-2.5,2.778-.164-.223-.015-2.4,2.132-3.108c.173.271.351.54.531.8m-2.693-2.56-.015-2.39q.4.928.843,1.808Zm-.18-28.991-.009-1.362.473.291c-.162.352-.315.709-.464,1.07m-.055-8.65.019,2.88-1.388-1.817q.459-.76.951-1.482Zm.046,7.288.009,1.362c-.18.437-.353.88-.515,1.332L70,77q.33-.874.7-1.715Zm.174,27.963.015,2.39L71.36,109.94c-.268-.548-.52-1.105-.763-1.674l3.562-3.385c.073.179.148.358.224.535m.045,7.256.015,2.4q-.429-.588-.839-1.2Zm-5.417-8.877c-.174-.607-.339-1.222-.487-1.847l4.012-2.316q.293,1.324.68,2.587Zm-1.343-6.662q-.114-.961-.185-1.943l4.286-1.144q.08,1.38.261,2.719Zm-.279-6.885q.035-.984.115-1.951l4.372.077q-.131,1.346-.162,2.732Zm.785-6.81c.126-.632.261-1.258.413-1.876l4.27,1.3q-.338,1.284-.582,2.625Z" transform="translate(16.479 14.434)" fill="#6d6e71" fill-rule="evenodd"/>
        <path id="Path_189130" data-name="Path 189130" d="M90.631,113.043c9.443-.058,17.081-10.438,17-23.106S99.788,66.986,90.345,67.044s-17.082,10.439-17,23.106,7.846,22.952,17.289,22.893" transform="translate(17.934 16.394)" fill="#ffac36" fill-rule="evenodd"/>
        <path id="Path_189131" data-name="Path 189131" d="M90.288,110.357c8.521-.054,15.414-9.42,15.343-20.851s-7.079-20.71-15.6-20.657S74.615,78.268,74.686,89.7s7.08,20.712,15.6,20.658" transform="translate(18.263 16.836)" fill="#e65924" fill-rule="evenodd"/>
        <path id="Path_189132" data-name="Path 189132" d="M89.112,110.291c-8-.755-14.358-9.675-14.425-20.6S80.865,69.757,88.855,68.9c8,.755,14.357,9.676,14.425,20.607S97.1,109.436,89.112,110.291" transform="translate(18.263 16.849)" fill="#ef9310" fill-rule="evenodd"/>
        <path id="Path_189133" data-name="Path 189133" d="M88.317,94.184c2.972-.019,5.375-3.284,5.35-7.271s-2.469-7.223-5.44-7.2-5.376,3.286-5.351,7.272,2.469,7.222,5.441,7.2" transform="translate(20.266 19.491)" fill="#d6982f" fill-rule="evenodd"/>
        <path id="Path_189134" data-name="Path 189134" d="M89.28,94.178c2.972-.019,5.375-3.284,5.35-7.271s-2.469-7.223-5.44-7.2-5.375,3.286-5.351,7.272,2.469,7.222,5.441,7.2" transform="translate(20.501 19.49)" fill="#d6982f" fill-rule="evenodd"/>
        <path id="Path_189135" data-name="Path 189135" d="M56.979,17.893c-1.527,9.608-2.48,19.354-3.2,29.156L53.645,74.4c15.98-.1,36.218-.23,55.894-.353l-.353-56.388-50.314.314Z" transform="translate(13.118 4.319)" fill="#c0d8da" fill-rule="evenodd"/>
        <path id="Path_189136" data-name="Path 189136" d="M85.052,17.806,76.727,35.4l-.11-17.54ZM76.941,69.76l2.5,0,24.638-52.069-10.956.068L76.832,52.178ZM76.727,35.4,60.46,69.782l-6.8.009.111-22.749q.215-2.925.462-5.846L65.243,17.929l11.375-.071Zm.1,16.779L68.507,69.77l8.434-.01Z" transform="translate(13.122 4.325)" fill="#e7ebeb" fill-rule="evenodd"/>
        <path id="Path_189137" data-name="Path 189137" d="M44.772,6.812h-.01l.124,19.809,4.483-.027L49.246,6.785C49.116,3.3,46.735.465,44.012,0l.037,5.838c.584.11.665.406.723.973" transform="translate(10.762 0)" fill="#58595b" fill-rule="evenodd"/>
        <path id="Path_189138" data-name="Path 189138" d="M44.673,5.547h0l.123,19.809,1.1-.007L45.8,10.017c-.088-2.489-.29-3.883-1.128-4.47" transform="translate(10.923 1.356)" fill="#808285" fill-rule="evenodd"/>
        <rect id="Rectangle_39382" data-name="Rectangle 39382" width="6.111" height="4.238" transform="translate(54.883 28.885) rotate(-0.362)" fill="#58595b"/>
        <rect id="Rectangle_39383" data-name="Rectangle 39383" width="1.424" height="4.238" transform="translate(54.884 28.885) rotate(-0.35)" fill="#808285"/>
        <path id="Path_189139" data-name="Path 189139" d="M54.546,30.08l-13.4.083.22,35.251,4,.029-.026-4.061,4.335-10.895,4.989-.187Z" transform="translate(10.062 7.355)" fill="#58595b" fill-rule="evenodd"/>
        <path id="Path_189140" data-name="Path 189140" d="M43.574,30.135l-2.426.015L41.368,65.4l.726.05-.025-4.061L42.8,50.518l.9-.162Z" transform="translate(10.062 7.369)" fill="#808285" fill-rule="evenodd"/>
        <path id="Path_189141" data-name="Path 189141" d="M28.562,66.32l-25.9.348.164.987C21.248,68.349,30.764,75.808,34.647,87l20.836-.129C49.838,72.115,41.644,67.362,28.562,66.32" transform="translate(0.652 16.217)" fill="#01916f" fill-rule="evenodd"/>
        <path id="Path_189142" data-name="Path 189142" d="M27.22,67.223l-24.977.156C19.827,68.74,28.86,75.6,32.743,86.8l21.285-.133C48.382,71.9,40.3,68.265,27.22,67.223" transform="translate(0.548 16.438)" fill="#01644c" fill-rule="evenodd"/>
        <path id="Path_189143" data-name="Path 189143" d="M50.994,30.092l-5.526.035.174,27.858,2.984-7.5.743-.029,1.75-.143Z" transform="translate(11.118 7.359)" fill="#414042" fill-rule="evenodd"/>
        <path id="Path_189144" data-name="Path 189144" d="M51.03,26.584l-6.183.039-3.7,4.4,13.4-.083Z" transform="translate(10.062 6.501)" fill="#808285" fill-rule="evenodd"/>
        <path id="Path_189145" data-name="Path 189145" d="M54.358,29.91l-12.826.08c-.455,0-.826.261-.824.575v.219c0,.314.376.568.831.565l12.826-.08c.455,0,.826-.261.824-.575v-.219c0-.315-.376-.568-.831-.565" transform="translate(9.954 7.314)" fill="#a7a9ac" fill-rule="evenodd"/>
        <rect id="Rectangle_39384" data-name="Rectangle 39384" width="44.26" height="36.643" transform="translate(102.727 78.495) rotate(-0.358)" fill="#01644c"/>
        <path id="Path_189146" data-name="Path 189146" d="M76.471,72.838l20.715-.132L94.624,19.851l-18.483.116-.022-3.527,20.168-.126,1.684-.01L98.052,18l2.733,56.374.088,1.824-1.833.011-22.548.143ZM58.821,20.051c-.647,4.246-1.186,8.537-1.648,12.861-.514,4.811-.932,9.685-1.293,14.6h0l-.123,25.461,20.715-.131.021,3.512L54,76.493l-1.776.011.009-1.771.132-27.356v-.123c.36-4.892.782-9.792,1.307-14.705.52-4.872,1.145-9.738,1.917-14.595l.246-1.553,1.562.068,1.81.078v0l16.912-.106.022,3.527-16.912.106-.082-.007Z" transform="translate(12.771 3.987)" fill="#414042"/>
        <path id="Path_189147" data-name="Path 189147" d="M19.778,69.392l13.543-.081c-.617,11-.019,38.729.073,53.506l-13.283.083C9.1,122.969.093,111.044,0,96.27S8.765,69.458,19.778,69.392" transform="translate(0 16.949)" fill="#414042" fill-rule="evenodd"/>
        <path id="Path_189148" data-name="Path 189148" d="M30.785,122.816c10.985-.068,19.869-12.142,19.778-26.878s-9.126-26.7-20.112-26.629S10.582,81.452,10.673,96.187s9.126,26.7,20.112,26.629" transform="translate(2.61 16.948)" fill="#58595b" fill-rule="evenodd"/>
        <path id="Path_189149" data-name="Path 189149" d="M30.2,118.257c9.42-.058,17.039-10.413,16.96-23.049s-7.826-22.9-17.247-22.837-17.039,10.413-16.96,23.05,7.827,22.894,17.247,22.836" transform="translate(3.168 17.697)" fill="#6d6e71" fill-rule="evenodd"/>
        <path id="Path_189150" data-name="Path 189150" d="M45.119,113.885,45.1,111.54l1.129,1.479q-.373.62-.774,1.208Zm-.037-5.939-.007-1.108c.147-.356.286-.719.419-1.088l3.014,2.561q-.271.711-.57,1.4ZM44.94,85.155l-.012-1.945L47.4,81.472c.217.444.423.9.62,1.363l-2.9,2.759c-.06-.148-.119-.294-.182-.438m-.037-5.91-.012-1.959q.351.478.684.979Zm4.416,7.233q.213.743.4,1.506l-3.271,1.887q-.237-1.077-.554-2.108Zm1.094,5.43q.093.784.152,1.583l-3.493.933q-.065-1.126-.213-2.218Zm.228,5.612q-.03.8-.093,1.589l-3.564-.062q.108-1.1.132-2.226ZM50,103.069c-.1.515-.214,1.025-.337,1.527l-3.48-1.055q.276-1.045.474-2.137ZM44.89,77.286l.012,1.959-1.737,2.531c-.142-.223-.285-.441-.433-.655l-.011-1.754L44.757,77.1Zm.037,5.924.012,1.945c-.215-.5-.444-.994-.687-1.471Zm.147,23.629.007,1.108-.386-.239c.131-.285.258-.574.378-.869m.03,4.7.015,2.346-2.2-2.193,0-.79q.4-.594.763-1.226Zm-2.147,5.792-.006-1,.329.66c-.107.116-.214.231-.322.345m-.236-37.963.011,1.754q-.228-.33-.464-.65l0-.595Zm.2,31.534,0,.79-.326-.326c.108-.153.217-.307.321-.464m.034,5.425.006,1c-.151.157-.3.312-.457.464l-.015-2.4ZM42.234,75.02l0-.788.246.239ZM29.526,69.249l-.137,4.772c.365-.034.732-.054,1.1-.056.188,0,.375,0,.561.01l-.339-4.759-.254,0q-.47,0-.936.036m12.7,4.983,0,.788-1.569,3.561A17.546,17.546,0,0,0,39.294,77.3l2.2-3.742q.371.325.734.67m.035,5.645,0,.595c-.081-.108-.164-.218-.248-.325Zm.222,35.514.015,2.4-.164.158-2.36-3.593a18.129,18.129,0,0,0,1.322-1.353ZM19.033,117.94l0-.789,1.568-3.559a17.791,17.791,0,0,0,1.371,1.276l-2.2,3.742q-.373-.325-.733-.67M19,112.3l0-.6c.082.111.164.218.248.326Zm-.22-35.51-.015-2.406.162-.161,2.36,3.594a17.66,17.66,0,0,0-1.322,1.353Zm14.934-7.241q.59.125,1.169.3l-.406,4.747a12.814,12.814,0,0,0-1.637-.416ZM37.76,71q.556.287,1.1.619l-1.134,4.526a14.409,14.409,0,0,0-1.536-.866Zm2.015,49.045q-.528.362-1.073.682l-1.754-4.172a14.668,14.668,0,0,0,1.5-.953Zm-3.907,2.01q-.571.205-1.156.365l-1.07-4.566a12.935,12.935,0,0,0,1.62-.508Zm-4.136.869c-.31.021-.621.034-.936.036-.083,0-.169,0-.253,0L30.2,118.2c.187.007.375.011.564.01.371,0,.737-.022,1.1-.057Zm-4.183-.3q-.592-.125-1.17-.3l.406-4.748a12.578,12.578,0,0,0,1.638.417Zm-4.05-1.456c-.371-.192-.738-.4-1.1-.619l1.133-4.528a14.562,14.562,0,0,0,1.537.867ZM21.484,72.128q.528-.362,1.074-.681l1.752,4.17a14.883,14.883,0,0,0-1.5.953Zm3.907-2.011q.571-.2,1.156-.363l1.07,4.565a13.208,13.208,0,0,0-1.62.508Zm-6.63,4.264.015,2.406-.468-.938-.006-1c.152-.158.3-.314.459-.465m.231,37.319,0,.6-.458.509-.011-1.755q.228.33.465.648m.035,5.452,0,.789-.248-.24Zm-.686-35.875,0-.794.325.325q-.162.231-.321.469m-.04-6.431.006,1-.329-.66c.107-.116.214-.229.322-.342m.036,5.636,0,.794c-.264.395-.52.8-.763,1.222l-1.423-1.863-.014-2.346Zm.189,30.568.011,1.755L16.5,115.069l-.134-.182-.012-1.96L18.1,110.4c.141.222.285.441.432.655m-2.194-2.087-.012-1.948q.323.756.687,1.474Zm-.147-23.625-.007-1.11.386.238q-.2.429-.378.872m-.044-7.049.014,2.346-1.13-1.48q.375-.62.774-1.207Zm.036,5.939.007,1.11q-.22.534-.421,1.084l-3.013-2.56q.269-.711.57-1.4Zm.142,22.787.012,1.948L13.858,110.7c-.218-.446-.423-.9-.621-1.364l2.9-2.758c.058.146.121.291.182.436m.037,5.912.012,1.96q-.351-.48-.684-.981Zm-4.414-7.233c-.142-.494-.276-1-.4-1.5l3.271-1.888q.239,1.079.554,2.109Zm-1.094-5.429q-.093-.784-.152-1.583l3.492-.932q.065,1.126.213,2.217Zm-.228-5.61c.019-.534.051-1.064.093-1.591l3.562.063q-.106,1.1-.131,2.226Zm.64-5.549c.1-.515.213-1.025.337-1.528l3.48,1.055Q14.8,89.68,14.6,90.772Z" transform="translate(2.597 16.925)" fill="#6d6e71" fill-rule="evenodd"/>
        <path id="Path_189151" data-name="Path 189151" d="M29.562,113.231c7.7-.049,13.92-8.506,13.854-18.83S37.023,75.7,29.327,75.747,15.41,84.253,15.473,94.576s6.393,18.7,14.089,18.656" transform="translate(3.784 18.522)" fill="#ffac36" fill-rule="evenodd"/>
        <path id="Path_189152" data-name="Path 189152" d="M29.282,111.042c6.944-.044,12.561-7.675,12.5-16.99s-5.77-16.877-12.713-16.835-12.561,7.676-12.5,16.992,5.768,16.877,12.713,16.834" transform="translate(4.052 18.882)" fill="#e65924" fill-rule="evenodd"/>
        <path id="Path_189153" data-name="Path 189153" d="M28.325,110.988c-6.519-.616-11.7-7.883-11.756-16.79S21.6,77.958,28.115,77.261c6.519.615,11.7,7.884,11.756,16.791s-5.034,16.239-11.546,16.936" transform="translate(4.052 18.893)" fill="#ef9310" fill-rule="evenodd"/>
        <path id="Path_189154" data-name="Path 189154" d="M27.676,97.863c2.422-.015,4.38-2.677,4.36-5.925s-2.011-5.885-4.433-5.87-4.381,2.677-4.36,5.925,2.011,5.885,4.433,5.87" transform="translate(5.684 21.046)" fill="#e65924" fill-rule="evenodd"/>
        <path id="Path_189155" data-name="Path 189155" d="M144.544,50.605l-22.753.142.166.986c16.277,1.726,24.79,8.361,28.672,19.555l20.837-.129c-5.646-14.759-13.839-19.512-26.922-20.553" transform="translate(29.782 12.375)" fill="#4ac195" fill-rule="evenodd"/>
        <path id="Path_189156" data-name="Path 189156" d="M143.819,51.507l-24.977.156c17.585,1.362,26.618,8.221,30.5,19.417l21.285-.133c-5.645-14.759-13.726-18.4-26.808-19.44" transform="translate(29.061 12.595)" fill="#01644c" fill-rule="evenodd"/>
        <path id="Path_189157" data-name="Path 189157" d="M99.76,22.86l-5.884.036c-1.049.007-1.9.512-1.9,1.123l.072,11.6c0,.611.864,1.105,1.913,1.1l5.884-.036c1.049-.006,1.9-.512,1.9-1.121l-.072-11.6c0-.61-.864-1.1-1.913-1.1" transform="translate(22.491 5.59)" fill="#414042" fill-rule="evenodd"/>
        <path id="Path_189158" data-name="Path 189158" d="M99.76,22.86l-5.884.036c-1.049.007-1.9.512-1.9,1.121l.072,11.6v.03a3.114,3.114,0,0,0,.677.068l5.884-.036c1.049-.006,1.9-.512,1.9-1.121l-.072-11.6v-.03a3.114,3.114,0,0,0-.677-.068" transform="translate(22.491 5.59)" fill="#58595b" fill-rule="evenodd"/>
        <path id="Path_189159" data-name="Path 189159" d="M97.852,25.923l-.982.006-.026-4.112c-.009-1.541-.981-2.8-2.165-2.8l-4.22,0,0-.982,4.219,0c1.722,0,3.134,1.694,3.146,3.772Z" transform="translate(22.12 4.41)" fill="#414042"/>
        <path id="Path_189160" data-name="Path 189160" d="M99.469,42.352l6.6,57.672-90.674.565-.062-9.951L27.053,57.2,79.112,43.554Z" transform="translate(3.75 10.356)" fill="#01644c" fill-rule="evenodd"/>
        <path id="Path_189161" data-name="Path 189161" d="M7.484,60.323,17.15,95.231l22.079-.137L42.289,57.8l-9.71,2.366Z" transform="translate(1.83 14.134)" fill="#58595b" fill-rule="evenodd"/>
        <path id="Path_189162" data-name="Path 189162" d="M29.077,95.126l5.222-.032L37.359,57.8,27.65,60.166h-.007Z" transform="translate(6.76 14.134)" fill="#414042" fill-rule="evenodd"/>
        <path id="Path_189163" data-name="Path 189163" d="M131.26,44.175h0c1.532-.01,2.794,1.543,2.806,3.451l.015,2.355c.011,1.908-1.232,3.476-2.763,3.486s-2.8-1.543-2.806-3.451l-.015-2.355c-.012-1.908,1.231-3.476,2.763-3.486" transform="translate(31.422 10.802)" fill="#ef9310" fill-rule="evenodd"/>
        <path id="Path_189164" data-name="Path 189164" d="M134.079,48.756v.106c.011,1.908-1.232,3.476-2.763,3.485s-2.8-1.542-2.808-3.45v-.106Z" transform="translate(31.424 11.922)" fill="#414042" fill-rule="evenodd"/>
        <path id="Path_189165" data-name="Path 189165" d="M7.2,64.105c.061-1.531.553-3.293,1.792-4.144,15.385-10.57,41.291-14.69,68-17.619l24.469.014C76.737,45.395,53.374,49.742,34.113,59.8c-1.3.678-1.587,2.689-1.462,4.143Z" transform="translate(1.76 10.354)" fill="#4ac195" fill-rule="evenodd"/>
        <path id="Path_189166" data-name="Path 189166" d="M124.4,58.963l18.573-.112c-.759,13.5-.025,47.526.088,65.66l-18.252.115c-13.514.083-24.567-14.55-24.68-32.679s10.756-32.9,24.271-32.984" transform="translate(24.486 14.391)" fill="#414042" fill-rule="evenodd"/>
        <path id="Path_189167" data-name="Path 189167" d="M139.48,124.512c13.481-.083,24.383-14.9,24.271-32.984s-11.2-32.762-24.68-32.678-24.383,14.9-24.27,32.983,11.2,32.762,24.679,32.679" transform="translate(28.072 14.391)" fill="#58595b" fill-rule="evenodd"/>
        <path id="Path_189168" data-name="Path 189168" d="M138.767,118.916c11.56-.072,20.909-12.778,20.814-28.284s-9.6-28.1-21.165-28.024S117.506,75.386,117.6,90.893s9.6,28.1,21.165,28.023" transform="translate(28.757 15.309)" fill="#6d6e71" fill-rule="evenodd"/>
        <path id="Path_189169" data-name="Path 189169" d="M157.07,113.551l-.017-2.879,1.385,1.815q-.459.76-.95,1.481Zm-.045-7.289-.009-1.357q.271-.657.514-1.335l3.7,3.142q-.33.872-.7,1.714ZM156.851,78.3l-.015-2.387,3.039-2.134q.4.82.76,1.674l-3.562,3.385c-.073-.18-.147-.36-.223-.538m-.046-7.253-.015-2.4c.287.392.566.793.84,1.2Zm5.419,8.877c.174.607.338,1.223.487,1.847L158.7,84.082q-.291-1.324-.68-2.587Zm1.342,6.663c.077.641.138,1.289.187,1.941l-4.286,1.145c-.053-.92-.141-1.828-.261-2.721Zm.28,6.885q-.037.984-.115,1.951l-4.372-.077q.131-1.346.161-2.73Zm-.787,6.811q-.187.946-.413,1.874l-4.27-1.3q.338-1.282.581-2.623ZM156.79,68.637l.015,2.4-2.132,3.106q-.26-.411-.531-.8l-.014-2.151,2.5-2.779Zm.046,7.271.015,2.387c-.264-.617-.545-1.221-.843-1.806Zm.18,29,.009,1.357-.474-.291c.161-.351.316-.7.465-1.065m.036,5.767.017,2.879-2.694-2.692-.006-.968q.487-.728.936-1.506Zm-2.635,7.108-.007-1.233.4.809q-.2.215-.4.424m-.29-46.587.014,2.151c-.185-.27-.376-.536-.57-.8l0-.731Zm.241,38.7.006.968-.4-.4c.133-.188.265-.376.395-.569m.041,6.656.007,1.233q-.276.289-.561.57l-.017-2.952Zm-.88-50.691-.006-.966c.1.1.2.194.3.294Zm-15.6-7.08-.167,5.856c.447-.042.9-.067,1.354-.07.23,0,.459,0,.689.012l-.417-5.839c-.1,0-.207,0-.31,0-.386,0-.768.019-1.15.045m15.589,6.114.006.966L151.6,70.227a21.522,21.522,0,0,0-1.681-1.566l2.7-4.592c.3.265.6.539.9.821m.044,6.927,0,.731c-.1-.133-.2-.266-.3-.4Zm.271,43.581.017,2.952-.2.193-2.895-4.409a21.773,21.773,0,0,0,1.62-1.66Zm-28.781,3.129-.006-.968,1.925-4.368a21.56,21.56,0,0,0,1.683,1.566l-2.7,4.592q-.455-.4-.9-.821m-.044-6.927,0-.732q.149.2.3.4Zm-.271-43.575-.019-2.953.2-.2,2.895,4.409a22,22,0,0,0-1.62,1.66Zm18.327-8.886q.724.153,1.435.363l-.5,5.824a15.952,15.952,0,0,0-2.01-.51Zm4.969,1.787c.457.235.9.488,1.348.758L148,67.24a17.906,17.906,0,0,0-1.887-1.064Zm2.473,60.184q-.648.444-1.317.838l-2.152-5.12a18.444,18.444,0,0,0,1.846-1.169Zm-4.793,2.468q-.7.25-1.42.446l-1.313-5.6a15.947,15.947,0,0,0,1.989-.625Zm-5.075,1.065c-.381.025-.763.041-1.149.044-.1,0-.208,0-.311,0l-.416-5.839c.229.009.459.014.691.012.456,0,.9-.029,1.352-.07Zm-5.134-.366q-.724-.153-1.435-.362l.5-5.827a15.471,15.471,0,0,0,2.009.511Zm-4.969-1.787q-.685-.353-1.348-.759l1.39-5.556a18.038,18.038,0,0,0,1.887,1.065Zm-2.474-60.183q.648-.444,1.317-.836l2.152,5.119a18.1,18.1,0,0,0-1.846,1.17Zm4.793-2.467q.7-.252,1.42-.447l1.312,5.6a15.989,15.989,0,0,0-1.988.624Zm-8.136,5.231.019,2.953-.574-1.152-.007-1.228c.185-.194.373-.386.563-.572m.286,45.8,0,.732-.563.626-.012-2.154c.187.27.376.535.571.8m.041,6.691.006.968c-.1-.1-.2-.2-.3-.295Zm-.84-44.025-.006-.974.4.4q-.2.282-.393.574m-.05-7.889.007,1.228-.4-.809c.129-.142.263-.281.395-.419m.044,6.915.006.974q-.489.726-.937,1.5l-1.745-2.285-.019-2.88Zm.234,37.513.012,2.154-2.5,2.778-.166-.223-.015-2.406,2.132-3.106c.173.273.351.54.531.8m-2.693-2.561-.015-2.388q.4.928.843,1.807Zm-.18-28.991-.009-1.362.472.291c-.161.352-.314.709-.463,1.07m-.055-8.649.019,2.88-1.388-1.817q.459-.76.951-1.482Zm.046,7.288.009,1.362c-.18.437-.353.88-.515,1.332l-3.7-3.142q.33-.874.7-1.715Zm.174,27.965.015,2.388-3.039,2.134q-.4-.821-.762-1.674l3.562-3.385c.073.179.148.36.224.536m.045,7.253.015,2.406c-.286-.392-.568-.794-.839-1.2ZM116.36,103.5q-.263-.911-.489-1.847l4.014-2.316q.291,1.324.68,2.587Zm-1.344-6.662q-.114-.961-.185-1.943l4.285-1.144q.08,1.38.261,2.719Zm-.279-6.885q.035-.984.114-1.951l4.372.077q-.131,1.346-.162,2.732Zm.785-6.81q.187-.948.413-1.876l4.27,1.3q-.338,1.284-.581,2.625Z" transform="translate(28.057 14.362)" fill="#6d6e71" fill-rule="evenodd"/>
        <path id="Path_189170" data-name="Path 189170" d="M137.979,112.749c9.444-.058,17.081-10.438,17-23.106s-7.846-22.952-17.289-22.893-17.082,10.439-17,23.106,7.846,22.952,17.289,22.893" transform="translate(29.512 16.322)" fill="#ffac36" fill-rule="evenodd"/>
        <path id="Path_189171" data-name="Path 189171" d="M137.637,110.063c8.521-.054,15.414-9.42,15.343-20.851s-7.08-20.71-15.6-20.657-15.414,9.419-15.343,20.85,7.08,20.711,15.6,20.658" transform="translate(29.841 16.764)" fill="#e65924" fill-rule="evenodd"/>
        <path id="Path_189172" data-name="Path 189172" d="M136.461,110c-8-.755-14.358-9.675-14.425-20.6s6.178-19.93,14.168-20.785c8,.755,14.357,9.676,14.425,20.607S144.45,109.141,136.461,110" transform="translate(29.841 16.777)" fill="#ef9310" fill-rule="evenodd"/>
        <path id="Path_189173" data-name="Path 189173" d="M135.665,93.889c2.972-.019,5.375-3.284,5.35-7.271s-2.469-7.223-5.44-7.2-5.375,3.286-5.35,7.272,2.468,7.222,5.44,7.2" transform="translate(31.844 19.419)" fill="#e65924" fill-rule="evenodd"/>
        <path id="Path_189174" data-name="Path 189174" d="M136.628,93.883c2.972-.019,5.375-3.284,5.35-7.271s-2.469-7.223-5.44-7.2-5.375,3.286-5.35,7.272,2.468,7.222,5.44,7.2" transform="translate(32.08 19.418)" fill="#ffac36" fill-rule="evenodd"/>
        <path id="Path_189175" data-name="Path 189175" d="M134.173,75.283c.665,0,1.2-.734,1.2-1.625s-.553-1.614-1.216-1.609-1.2.734-1.2,1.624.551,1.614,1.216,1.61" transform="translate(32.512 17.618)" fill="#e65924" fill-rule="evenodd"/>
        <path id="Path_189176" data-name="Path 189176" d="M128.252,74.662a1.023,1.023,0,0,1,1.685.347,2,2,0,0,1-.253,2.261A1.024,1.024,0,0,1,128,76.924a2,2,0,0,1,.254-2.261" transform="translate(31.242 18.181)" fill="#e65924" fill-rule="evenodd"/>
        <path id="Path_189177" data-name="Path 189177" d="M124.636,81.436c.2-.851.879-1.32,1.513-1.048a1.78,1.78,0,0,1,.787,2.034c-.2.85-.879,1.319-1.513,1.048a1.782,1.782,0,0,1-.787-2.034" transform="translate(30.464 19.639)" fill="#e65924" fill-rule="evenodd"/>
        <path id="Path_189178" data-name="Path 189178" d="M124.687,89.782a1.78,1.78,0,0,1,.762-2.044c.631-.28,1.314.182,1.526,1.029a1.781,1.781,0,0,1-.762,2.044c-.631.28-1.315-.182-1.526-1.029" transform="translate(30.475 21.435)" fill="#e65924" fill-rule="evenodd"/>
        <path id="Path_189179" data-name="Path 189179" d="M128.385,96.511a2,2,0,0,1-.281-2.258,1.024,1.024,0,0,1,1.683-.368,2,2,0,0,1,.28,2.258,1.023,1.023,0,0,1-1.681.368" transform="translate(31.271 22.883)" fill="#e65924" fill-rule="evenodd"/>
        <path id="Path_189180" data-name="Path 189180" d="M134.318,99.054c-.666,0-1.212-.717-1.216-1.61s.529-1.62,1.2-1.625,1.21.718,1.216,1.61-.531,1.622-1.2,1.625" transform="translate(32.548 23.431)" fill="#e65924" fill-rule="evenodd"/>
        <path id="Path_189181" data-name="Path 189181" d="M140.219,96.44a1.024,1.024,0,0,1-1.686-.347,2,2,0,0,1,.253-2.261,1.023,1.023,0,0,1,1.686.347,2,2,0,0,1-.253,2.261" transform="translate(33.818 22.868)" fill="#e65924" fill-rule="evenodd"/>
        <path id="Path_189182" data-name="Path 189182" d="M143.834,89.667c-.2.85-.879,1.319-1.513,1.048a1.782,1.782,0,0,1-.787-2.034c.2-.85.879-1.319,1.513-1.048a1.78,1.78,0,0,1,.787,2.034" transform="translate(34.596 21.41)" fill="#e65924" fill-rule="evenodd"/>
        <path id="Path_189183" data-name="Path 189183" d="M143.783,81.321a1.781,1.781,0,0,1-.762,2.044c-.631.28-1.314-.182-1.526-1.029a1.783,1.783,0,0,1,.762-2.044c.631-.28,1.315.182,1.526,1.029" transform="translate(34.585 19.614)" fill="#e65924" fill-rule="evenodd"/>
        <path id="Path_189184" data-name="Path 189184" d="M140.085,74.592a2,2,0,0,1,.281,2.258,1.024,1.024,0,0,1-1.683.368,2,2,0,0,1-.281-2.258,1.024,1.024,0,0,1,1.683-.368" transform="translate(33.789 18.166)" fill="#e65924" fill-rule="evenodd"/>
        <path id="Path_189185" data-name="Path 189185" d="M134.64,75.28c.665,0,1.2-.734,1.2-1.625s-.553-1.614-1.216-1.609-1.2.734-1.2,1.624.551,1.614,1.216,1.61" transform="translate(32.626 17.617)" fill="#ffac36" fill-rule="evenodd"/>
        <path id="Path_189186" data-name="Path 189186" d="M128.719,74.659a1.024,1.024,0,0,1,1.686.347,2,2,0,0,1-.253,2.261,1.024,1.024,0,0,1-1.686-.347,2,2,0,0,1,.253-2.261" transform="translate(31.356 18.18)" fill="#ffac36" fill-rule="evenodd"/>
        <path id="Path_189187" data-name="Path 189187" d="M125.1,81.433c.2-.851.879-1.32,1.513-1.048a1.78,1.78,0,0,1,.787,2.034c-.2.85-.879,1.319-1.512,1.048a1.781,1.781,0,0,1-.788-2.034" transform="translate(30.578 19.638)" fill="#ffac36" fill-rule="evenodd"/>
        <path id="Path_189188" data-name="Path 189188" d="M125.154,89.779a1.782,1.782,0,0,1,.762-2.044c.631-.28,1.314.182,1.526,1.029a1.779,1.779,0,0,1-.762,2.044c-.631.28-1.315-.182-1.526-1.029" transform="translate(30.589 21.434)" fill="#ffac36" fill-rule="evenodd"/>
        <path id="Path_189189" data-name="Path 189189" d="M128.852,96.508a2,2,0,0,1-.281-2.258,1.024,1.024,0,0,1,1.683-.368,2,2,0,0,1,.281,2.258,1.024,1.024,0,0,1-1.683.368" transform="translate(31.385 22.883)" fill="#ffac36" fill-rule="evenodd"/>
        <path id="Path_189190" data-name="Path 189190" d="M134.785,99.052c-.666,0-1.211-.717-1.216-1.61s.53-1.62,1.2-1.625,1.21.718,1.216,1.61-.53,1.622-1.2,1.625" transform="translate(32.662 23.43)" fill="#ffac36" fill-rule="evenodd"/>
        <path id="Path_189191" data-name="Path 189191" d="M140.686,96.437A1.024,1.024,0,0,1,139,96.09a2,2,0,0,1,.253-2.261,1.023,1.023,0,0,1,1.686.347,2,2,0,0,1-.253,2.261" transform="translate(33.932 22.867)" fill="#ffac36" fill-rule="evenodd"/>
        <path id="Path_189192" data-name="Path 189192" d="M144.3,89.664c-.2.85-.879,1.319-1.513,1.048A1.782,1.782,0,0,1,142,88.678c.2-.85.879-1.319,1.513-1.048a1.781,1.781,0,0,1,.787,2.034" transform="translate(34.71 21.41)" fill="#ffac36" fill-rule="evenodd"/>
        <path id="Path_189193" data-name="Path 189193" d="M144.251,81.318a1.783,1.783,0,0,1-.762,2.044c-.631.28-1.315-.182-1.526-1.029a1.78,1.78,0,0,1,.762-2.044c.631-.28,1.314.182,1.526,1.029" transform="translate(34.699 19.613)" fill="#ffac36" fill-rule="evenodd"/>
        <path id="Path_189194" data-name="Path 189194" d="M140.553,74.589a2,2,0,0,1,.281,2.258,1.024,1.024,0,0,1-1.683.368,2,2,0,0,1-.281-2.258,1.024,1.024,0,0,1,1.683-.368" transform="translate(33.903 18.165)" fill="#ffac36" fill-rule="evenodd"/>
        <path id="Path_189195" data-name="Path 189195" d="M126.837,50.748l22.753-.142-.153.988c-16.255,1.928-24.683,8.668-28.426,19.911l-20.836.129c5.461-14.829,13.594-19.682,26.663-20.887" transform="translate(24.496 12.375)" fill="#4ac195" fill-rule="evenodd"/>
        <path id="Path_189196" data-name="Path 189196" d="M125.049,50.762l24.977-.156c-17.567,1.581-26.611,9.668-30.354,20.909l-21.285.133c5.461-14.829,13.6-19.682,26.663-20.887" transform="translate(24.058 12.375)" fill="#01916f" fill-rule="evenodd"/>
        <path id="Path_189197" data-name="Path 189197" d="M51.331,71.46l-.054-8.576q1.057-.513,2.126-.984l-.877,8.854c-.4.222-.8.457-1.195.707m-.065-10.272-.039-6.173h0c1.625.088,2.635,2.221,2.361,4.988l-.015.151q-1.159.493-2.31,1.034m-.039-6.173.039,6.173q-1.066.5-2.126,1.047l.9-7.284Zm.05,7.869.054,8.576a24.087,24.087,0,0,0-3.067,2.306l-.026-4.228.673-5.45q1.176-.629,2.366-1.2m-3.1-3.235-.03-4.8h.014l.607.032Zm-2.67,6.381q1.008-.61,2.025-1.185L46.174,75.815c-.2.218-.4.442-.6.671Zm2.64-11.181.03,4.8-.411,3.312q-1.139.618-2.27,1.288l-.047-7.656.073-.106a3.19,3.19,0,0,1,2.625-1.638m.091,14.689.026,4.228c-.205.182-.412.367-.617.56ZM41.871,79.815l1.383-12.373q1.12-.728,2.254-1.411l.066,10.455a41.122,41.122,0,0,0-3.727,5.054,8.571,8.571,0,0,1,.025-1.725m3.578-23.222.047,7.656q-1.014.6-2.025,1.235l.546-4.89a8.621,8.621,0,0,1,1.431-4" transform="translate(10.225 13.412)" fill="#414042" fill-rule="evenodd"/>
        <path id="Path_189198" data-name="Path 189198" d="M78.138,66.012l-25.9.348.164.987c18.419.693,27.935,8.153,31.818,19.348l20.836-.129c-5.645-14.759-13.838-19.512-26.92-20.553" transform="translate(12.775 16.142)" fill="#4ac195" fill-rule="evenodd"/>
        <path id="Path_189199" data-name="Path 189199" d="M76.8,66.914l-24.977.156c17.585,1.362,26.618,8.221,30.5,19.417l21.285-.133c-5.645-14.759-13.726-18.4-26.808-19.44" transform="translate(12.671 16.363)" fill="#014534" fill-rule="evenodd"/>
        <path id="Path_189200" data-name="Path 189200" d="M29.182,64.814l-8.488.068a.81.81,0,0,1-.8-.82l-.021-3.4a.808.808,0,0,1,.785-.83l7.371-.01,1.516.118L34.5,58.731c-1.093,1.308-4.44,5.934-5.32,6.083" transform="translate(4.861 14.362)" fill="#6d6e71" fill-rule="evenodd"/>
        <path id="Path_189201" data-name="Path 189201" d="M8.831,64.706l8.352-.036a.812.812,0,0,0,.787-.83l-.021-3.4a.843.843,0,0,0-.326-.661l-9.343.058H8.262l-.779,0Z" transform="translate(1.83 14.617)" fill="#6d6e71" fill-rule="evenodd"/>
        <path id="Path_189202" data-name="Path 189202" d="M19.9,63.891a.7.7,0,0,1-.006-.088l-.01-1.706a.841.841,0,0,1,.785-.779l8.733-1.5h.03c0,.027,0,.056,0,.085l-.343,3.169a.879.879,0,0,1-.787.778l-8.378.036Z" transform="translate(4.863 14.628)" fill="#a4a2a2" fill-rule="evenodd"/>
        <path id="Path_189203" data-name="Path 189203" d="M17.788,63.892a.7.7,0,0,0,0-.088l-.01-1.706a.84.84,0,0,0-.8-.769l-8.75-1.388h-.03a.656.656,0,0,0,0,.085l.383,3.164a.878.878,0,0,0,.8.768l8.379-.068Z" transform="translate(2.007 14.657)" fill="#a4a2a2" fill-rule="evenodd"/>
        <path id="Path_189204" data-name="Path 189204" d="M26.311,64.138c.721,0,1.3-.935,1.294-2.07s-.6-2.058-1.32-2.055-1.3.935-1.294,2.071.6,2.058,1.32,2.053" transform="translate(6.111 14.675)" fill="#807f82" fill-rule="evenodd"/>
        <path id="Path_189205" data-name="Path 189205" d="M10.014,64.239c.721,0,1.3-.935,1.294-2.07s-.6-2.058-1.32-2.055-1.3.935-1.294,2.071.6,2.058,1.32,2.053" transform="translate(2.126 14.7)" fill="#807f82" fill-rule="evenodd"/>
        <path id="Path_189206" data-name="Path 189206" d="M26.233,63.419c.51,0,.922-.662.917-1.466s-.426-1.459-.936-1.455-.922.662-.917,1.466.426,1.459.936,1.455" transform="translate(6.186 14.794)" fill="#bcbec0" fill-rule="evenodd"/>
        <path id="Path_189207" data-name="Path 189207" d="M9.936,63.52c.51,0,.922-.662.917-1.466S10.427,60.6,9.917,60.6,9,61.261,9,62.065s.426,1.459.936,1.455" transform="translate(2.201 14.818)" fill="#bcbec0" fill-rule="evenodd"/>
        <path id="Path_189208" data-name="Path 189208" d="M7.2,60.413A6.905,6.905,0,0,1,7.869,57.6L33,57.439a6.367,6.367,0,0,0-.353,2.816Z" transform="translate(1.76 14.046)" fill="#00a651" fill-rule="evenodd"/>
        <path id="Path_189209" data-name="Path 189209" d="M24.08,63.777c.626,0,1.133-.813,1.126-1.8s-.523-1.791-1.149-1.787-1.133.813-1.126,1.8.521,1.79,1.149,1.786" transform="translate(5.607 14.718)" fill="#dbdcda" fill-rule="evenodd"/>
        <path id="Path_189210" data-name="Path 189210" d="M12.176,63.851c.626,0,1.133-.813,1.126-1.8s-.523-1.791-1.149-1.787-1.133.813-1.126,1.8.523,1.79,1.149,1.786" transform="translate(2.696 14.736)" fill="#dbdcda" fill-rule="evenodd"/>
        <path id="Path_189211" data-name="Path 189211" d="M24.012,63.151c.443,0,.8-.576.8-1.276s-.37-1.268-.814-1.264-.8.575-.8,1.274.37,1.268.814,1.266" transform="translate(5.673 14.821)" fill="#807f82" fill-rule="evenodd"/>
        <path id="Path_189212" data-name="Path 189212" d="M12.107,63.225c.443,0,.8-.576.8-1.276s-.37-1.268-.814-1.264-.8.575-.8,1.274.371,1.268.814,1.266" transform="translate(2.761 14.839)" fill="#807f82" fill-rule="evenodd"/>
        <path id="Path_189213" data-name="Path 189213" d="M21.584,63.582c.441,0,.8-.57.79-1.264s-.366-1.257-.806-1.254-.8.571-.79,1.264.366,1.257.806,1.255" transform="translate(5.081 14.932)" fill="#dbdcda" fill-rule="evenodd"/>
        <path id="Path_189214" data-name="Path 189214" d="M14.536,63.626c.441,0,.8-.57.792-1.264s-.367-1.257-.808-1.254-.8.571-.79,1.264.366,1.257.806,1.254" transform="translate(3.357 14.943)" fill="#dbdcda" fill-rule="evenodd"/>
        <path id="Path_189215" data-name="Path 189215" d="M21.536,63.143c.311,0,.563-.4.56-.895s-.26-.891-.571-.89-.564.4-.56.9.26.891.571.889" transform="translate(5.127 15.004)" fill="#a4a2a2" fill-rule="evenodd"/>
        <path id="Path_189216" data-name="Path 189216" d="M14.488,63.187c.311,0,.564-.4.56-.895s-.259-.891-.571-.89-.563.4-.56.9.26.891.571.889" transform="translate(3.403 15.015)" fill="#a4a2a2" fill-rule="evenodd"/>
        <path id="Path_189217" data-name="Path 189217" d="M26.15,62.657c.287,0,.52-.373.518-.828s-.24-.823-.528-.82-.52.373-.518.828.24.821.528.82" transform="translate(6.265 14.919)" fill="#dbdcda" fill-rule="evenodd"/>
        <path id="Path_189218" data-name="Path 189218" d="M9.853,62.759c.287,0,.52-.373.518-.828s-.24-.823-.528-.82-.52.373-.518.828.24.821.528.82" transform="translate(2.28 14.944)" fill="#dbdcda" fill-rule="evenodd"/>
        <path id="Path_189219" data-name="Path 189219" d="M37.627,59.114c9.651-5.334,25.936-9.383,52.6-13.93l.551,3.659C70.429,50.623,56.742,53.1,37.627,59.114" transform="translate(9.201 11.049)" fill="#ef9310" fill-rule="evenodd"/>
        <rect id="Rectangle_39385" data-name="Rectangle 39385" width="24.249" height="6.544" transform="translate(14.921 109.294) rotate(-0.356)" fill="#01916f"/>
        <rect id="Rectangle_39386" data-name="Rectangle 39386" width="46.256" height="0.993" transform="matrix(1, -0.006, 0.006, 1, 14.914, 108.303)" fill="#4ac195"/>
        <rect id="Rectangle_39387" data-name="Rectangle 39387" width="22.006" height="6.544" transform="matrix(1, -0.006, 0.006, 1, 39.17, 109.143)" fill="#01644c"/>
        <path id="Path_189220" data-name="Path 189220" d="M67.127,69.1l13.544-.081c-.619,11-.02,38.729.072,53.506l-13.283.083c-11.013.068-20.02-11.857-20.112-26.63S56.114,69.163,67.127,69.1" transform="translate(11.578 16.877)" fill="#414042" fill-rule="evenodd"/>
        <path id="Path_189221" data-name="Path 189221" d="M78.134,122.521C89.119,122.453,98,110.38,97.912,95.643S88.786,68.946,77.8,69.014,57.931,81.157,58.022,95.892s9.126,26.7,20.112,26.629" transform="translate(14.188 16.876)" fill="#58595b" fill-rule="evenodd"/>
        <path id="Path_189222" data-name="Path 189222" d="M77.552,117.962c9.42-.058,17.039-10.413,16.96-23.049s-7.826-22.9-17.247-22.837-17.039,10.413-16.96,23.05,7.827,22.894,17.247,22.836" transform="translate(14.746 17.625)" fill="#6d6e71" fill-rule="evenodd"/>
        <path id="Path_189223" data-name="Path 189223" d="M92.468,113.59l-.015-2.345,1.129,1.477q-.373.62-.774,1.208Zm-.037-5.939-.007-1.108q.222-.534.419-1.088l3.014,2.561q-.271.711-.57,1.4ZM92.289,84.86l-.012-1.945,2.477-1.739c.217.444.423.9.62,1.363l-2.9,2.759c-.06-.148-.119-.294-.182-.438m-.037-5.91-.011-1.959c.234.319.46.645.683.979Zm4.416,7.233q.213.743.4,1.506l-3.271,1.887q-.237-1.077-.554-2.108Zm1.094,5.43q.093.784.152,1.583l-3.493.933q-.065-1.126-.213-2.218Zm.227,5.612q-.028.8-.093,1.589l-3.563-.062q.108-1.1.132-2.226Zm-.64,5.549c-.1.515-.214,1.025-.337,1.527l-3.48-1.055q.276-1.045.474-2.137ZM92.24,76.991l.011,1.959-1.737,2.531c-.142-.223-.285-.441-.433-.656l-.011-1.752L92.1,76.81Zm.036,5.924.012,1.945c-.215-.5-.444-.994-.687-1.471Zm.147,23.629.007,1.108-.386-.239c.131-.285.258-.574.378-.869m.03,4.7.015,2.345-2.2-2.193,0-.79q.4-.594.763-1.226Zm-2.147,5.791-.006-1,.329.66c-.107.116-.214.231-.322.345M90.07,79.073l.011,1.752q-.228-.33-.464-.648l0-.595Zm.2,31.534,0,.79-.326-.326c.108-.153.217-.307.321-.464m.034,5.425.006,1c-.151.158-.3.312-.458.464l-.015-2.4Zm-.718-41.307,0-.788.246.239ZM76.875,68.954l-.137,4.772c.365-.034.732-.054,1.1-.056.188,0,.375,0,.561.01l-.339-4.759-.254,0q-.47,0-.936.036m12.7,4.983,0,.788-1.568,3.561a17.552,17.552,0,0,0-1.371-1.276l2.2-3.742c.248.217.493.439.733.67m.036,5.645,0,.595c-.082-.108-.164-.218-.248-.325Zm.22,35.514.015,2.4-.163.158-2.36-3.593a18.131,18.131,0,0,0,1.322-1.353Zm-23.452,2.55,0-.79,1.568-3.559a17.79,17.79,0,0,0,1.371,1.276l-2.2,3.742c-.248-.217-.492-.438-.732-.668M66.345,112l0-.6c.082.111.164.218.248.326Zm-.22-35.51-.015-2.406.162-.161,2.36,3.594a17.659,17.659,0,0,0-1.322,1.353ZM81.06,69.25c.392.083.783.182,1.169.3l-.406,4.747a12.812,12.812,0,0,0-1.637-.416Zm4.05,1.456q.556.287,1.1.619l-1.134,4.526a14.534,14.534,0,0,0-1.536-.866Zm2.015,49.045q-.528.362-1.073.682L84.3,116.261a14.666,14.666,0,0,0,1.5-.953Zm-3.907,2.01q-.571.205-1.156.365l-1.07-4.566a13,13,0,0,0,1.62-.508Zm-4.136.869c-.31.021-.621.034-.936.036-.085,0-.168,0-.253,0l-.34-4.758c.188.007.375.011.564.01.37,0,.737-.022,1.1-.057Zm-4.183-.3c-.393-.083-.784-.182-1.17-.3l.406-4.748a12.579,12.579,0,0,0,1.638.417Zm-4.05-1.456c-.372-.192-.738-.4-1.1-.619l1.133-4.528a14.558,14.558,0,0,0,1.537.867ZM68.833,71.833q.528-.362,1.073-.681l1.754,4.17a14.88,14.88,0,0,0-1.5.953Zm3.905-2.011q.573-.2,1.157-.363l1.07,4.565a13.144,13.144,0,0,0-1.62.508ZM66.11,74.085l.015,2.406-.468-.938-.006-1q.228-.237.459-.465m.231,37.319,0,.6-.458.509-.011-1.755c.152.222.307.437.465.648m.035,5.452,0,.79c-.083-.08-.166-.161-.248-.241Zm-.686-35.875,0-.794.326.325c-.11.154-.215.311-.321.469m-.04-6.43.006,1-.329-.66c.106-.116.214-.229.322-.342m.035,5.636,0,.794q-.4.592-.763,1.222L63.505,80.34l-.014-2.346Zm.19,30.568.011,1.755-2.034,2.264-.134-.182-.012-1.96,1.737-2.531c.141.222.285.441.432.655m-2.194-2.087-.012-1.946q.323.756.687,1.472Zm-.147-23.625-.007-1.11.386.238q-.2.429-.378.872m-.044-7.049.014,2.346-1.13-1.48q.373-.62.774-1.207Zm.036,5.939.007,1.11c-.147.356-.287.717-.419,1.084L60.1,83.567q.269-.711.57-1.4Zm.142,22.789.012,1.946-2.475,1.739c-.218-.446-.423-.9-.621-1.364l2.9-2.758c.058.146.121.292.182.437m.037,5.91.012,1.96c-.234-.319-.463-.647-.684-.981ZM59.293,105.4q-.215-.741-.4-1.5l3.269-1.888q.239,1.079.554,2.109ZM58.2,99.97q-.091-.784-.151-1.583l3.492-.932q.065,1.126.213,2.217Zm-.227-5.61q.03-.8.093-1.591l3.563.063q-.108,1.1-.132,2.226Zm.64-5.549c.1-.515.213-1.025.337-1.528l3.48,1.055q-.276,1.047-.475,2.139Z" transform="translate(14.176 16.853)" fill="#6d6e71" fill-rule="evenodd"/>
        <path id="Path_189224" data-name="Path 189224" d="M76.91,112.936c7.7-.049,13.92-8.506,13.855-18.83S84.373,75.4,76.676,75.452,62.758,83.958,62.821,94.281s6.393,18.7,14.089,18.656" transform="translate(15.362 18.45)" fill="#ffac36" fill-rule="evenodd"/>
        <path id="Path_189225" data-name="Path 189225" d="M76.63,110.747c6.944-.044,12.561-7.675,12.5-16.99S83.364,76.88,76.42,76.922,63.859,84.6,63.917,93.914s5.768,16.877,12.713,16.834" transform="translate(15.63 18.81)" fill="#e65924" fill-rule="evenodd"/>
        <path id="Path_189226" data-name="Path 189226" d="M75.673,110.693c-6.519-.616-11.7-7.883-11.756-16.79s5.035-16.24,11.546-16.937c6.519.615,11.7,7.884,11.756,16.791S82.184,110,75.673,110.693" transform="translate(15.63 18.821)" fill="#ef9310" fill-rule="evenodd"/>
        <path id="Path_189227" data-name="Path 189227" d="M75.024,97.568c2.422-.015,4.381-2.677,4.36-5.925s-2.011-5.885-4.433-5.87-4.381,2.677-4.36,5.925,2.011,5.885,4.433,5.87" transform="translate(17.262 20.974)" fill="#e65924" fill-rule="evenodd"/>
        <path id="Path_189228" data-name="Path 189228" d="M75.809,97.563c2.422-.015,4.38-2.677,4.36-5.925s-2.011-5.885-4.433-5.87-4.381,2.677-4.36,5.925,2.011,5.885,4.433,5.87" transform="translate(17.454 20.973)" fill="#ffac36" fill-rule="evenodd"/>
        <path id="Path_189229" data-name="Path 189229" d="M73.809,82.406c.541,0,.979-.6.974-1.324s-.449-1.315-.991-1.312-.979.6-.974,1.324.449,1.315.991,1.312" transform="translate(17.806 19.506)" fill="#e65924" fill-rule="evenodd"/>
        <path id="Path_189230" data-name="Path 189230" d="M68.983,81.9a.835.835,0,0,1,1.375.283,1.629,1.629,0,0,1-.207,1.843.834.834,0,0,1-1.374-.284,1.627,1.627,0,0,1,.205-1.842" transform="translate(16.771 19.965)" fill="#e65924" fill-rule="evenodd"/>
        <path id="Path_189231" data-name="Path 189231" d="M66.037,87.42c.163-.693.716-1.075,1.233-.854a1.451,1.451,0,0,1,.641,1.656c-.163.693-.716,1.075-1.232.854a1.451,1.451,0,0,1-.642-1.656" transform="translate(16.137 21.153)" fill="#e65924" fill-rule="evenodd"/>
        <path id="Path_189232" data-name="Path 189232" d="M66.078,94.22a1.452,1.452,0,0,1,.621-1.665c.514-.228,1.072.148,1.243.839a1.453,1.453,0,0,1-.621,1.665c-.514.228-1.072-.148-1.243-.839" transform="translate(16.146 22.616)" fill="#e65924" fill-rule="evenodd"/>
        <path id="Path_189233" data-name="Path 189233" d="M69.092,99.7a1.629,1.629,0,0,1-.229-1.839.834.834,0,0,1,1.37-.3,1.63,1.63,0,0,1,.229,1.841.834.834,0,0,1-1.37.3" transform="translate(16.794 23.797)" fill="#e65924" fill-rule="evenodd"/>
        <path id="Path_189234" data-name="Path 189234" d="M73.927,101.777c-.543,0-.986-.585-.991-1.312s.432-1.322.974-1.324.986.584.991,1.312-.432,1.32-.974,1.324" transform="translate(17.835 24.243)" fill="#e65924" fill-rule="evenodd"/>
        <path id="Path_189235" data-name="Path 189235" d="M78.735,99.646a.835.835,0,0,1-1.375-.283,1.629,1.629,0,0,1,.207-1.843.834.834,0,0,1,1.374.284,1.627,1.627,0,0,1-.205,1.842" transform="translate(18.87 23.784)" fill="#e65924" fill-rule="evenodd"/>
        <path id="Path_189236" data-name="Path 189236" d="M81.681,94.127c-.163.693-.716,1.075-1.233.854a1.452,1.452,0,0,1-.641-1.656c.163-.693.716-1.077,1.233-.854a1.451,1.451,0,0,1,.641,1.656" transform="translate(19.504 22.596)" fill="#e65924" fill-rule="evenodd"/>
        <path id="Path_189237" data-name="Path 189237" d="M81.639,87.326a1.452,1.452,0,0,1-.621,1.665c-.514.228-1.072-.148-1.243-.839a1.451,1.451,0,0,1,.621-1.665c.514-.228,1.072.148,1.243.839" transform="translate(19.495 21.133)" fill="#e65924" fill-rule="evenodd"/>
        <path id="Path_189238" data-name="Path 189238" d="M78.626,81.843a1.628,1.628,0,0,1,.229,1.839.835.835,0,0,1-1.371.3,1.63,1.63,0,0,1-.228-1.841.834.834,0,0,1,1.37-.3" transform="translate(18.847 19.952)" fill="#e65924" fill-rule="evenodd"/>
        <path id="Path_189239" data-name="Path 189239" d="M74.19,82.4c.541,0,.979-.6.974-1.324s-.449-1.315-.991-1.312-.979.6-.974,1.324.449,1.315.991,1.312" transform="translate(17.899 19.506)" fill="#ffac36" fill-rule="evenodd"/>
        <path id="Path_189240" data-name="Path 189240" d="M69.364,81.9a.835.835,0,0,1,1.375.283,1.629,1.629,0,0,1-.207,1.843.834.834,0,0,1-1.374-.284,1.627,1.627,0,0,1,.205-1.842" transform="translate(16.864 19.964)" fill="#ffac36" fill-rule="evenodd"/>
        <path id="Path_189241" data-name="Path 189241" d="M66.418,87.417c.163-.693.716-1.075,1.233-.854a1.451,1.451,0,0,1,.641,1.656c-.163.693-.716,1.075-1.233.854a1.452,1.452,0,0,1-.641-1.656" transform="translate(16.23 21.152)" fill="#ffac36" fill-rule="evenodd"/>
        <path id="Path_189242" data-name="Path 189242" d="M66.459,94.218a1.451,1.451,0,0,1,.621-1.665c.514-.228,1.072.148,1.243.839a1.451,1.451,0,0,1-.621,1.665c-.514.228-1.072-.148-1.243-.839" transform="translate(16.239 22.616)" fill="#ffac36" fill-rule="evenodd"/>
        <path id="Path_189243" data-name="Path 189243" d="M69.473,99.7a1.629,1.629,0,0,1-.229-1.839.834.834,0,0,1,1.37-.3,1.63,1.63,0,0,1,.229,1.841.834.834,0,0,1-1.37.3" transform="translate(16.888 23.796)" fill="#ffac36" fill-rule="evenodd"/>
        <path id="Path_189244" data-name="Path 189244" d="M74.308,101.774c-.544,0-.987-.585-.992-1.312s.432-1.322.976-1.324.986.584.991,1.312-.432,1.32-.974,1.324" transform="translate(17.928 24.242)" fill="#ffac36" fill-rule="evenodd"/>
        <path id="Path_189245" data-name="Path 189245" d="M79.116,99.644a.834.834,0,0,1-1.374-.283,1.631,1.631,0,0,1,.205-1.843.835.835,0,0,1,1.375.284,1.627,1.627,0,0,1-.207,1.842" transform="translate(18.963 23.784)" fill="#ffac36" fill-rule="evenodd"/>
        <path id="Path_189246" data-name="Path 189246" d="M82.062,94.124c-.163.693-.716,1.075-1.233.854a1.452,1.452,0,0,1-.641-1.656c.163-.693.716-1.077,1.233-.854a1.451,1.451,0,0,1,.641,1.656" transform="translate(19.597 22.596)" fill="#ffac36" fill-rule="evenodd"/>
        <path id="Path_189247" data-name="Path 189247" d="M82.02,87.324a1.452,1.452,0,0,1-.621,1.665c-.514.228-1.072-.148-1.243-.839a1.451,1.451,0,0,1,.621-1.665c.514-.228,1.072.148,1.243.839" transform="translate(19.588 21.132)" fill="#ffac36" fill-rule="evenodd"/>
        <path id="Path_189248" data-name="Path 189248" d="M79.007,81.84a1.628,1.628,0,0,1,.229,1.839.835.835,0,0,1-1.371.3,1.63,1.63,0,0,1-.228-1.841.834.834,0,0,1,1.37-.3" transform="translate(18.94 19.952)" fill="#ffac36" fill-rule="evenodd"/>
        <path id="Path_189249" data-name="Path 189249" d="M46.718,6.536h0l.123,19.809,1.425-.009L48.14,6.527c-.055-3.486-3.253-4.972-4.121-5.447l.015,2.336c.443.179,2.653.918,2.684,3.12" transform="translate(10.764 0.264)" fill="#414042" fill-rule="evenodd"/>
        <rect id="Rectangle_39388" data-name="Rectangle 39388" width="2.084" height="4.238" transform="translate(57.939 28.865) rotate(-0.342)" fill="#414042"/>
        <path id="Path_189250" data-name="Path 189250" d="M50.293,25.905l-6.094.039a.456.456,0,0,0-.39.5v.192a.458.458,0,0,0,.4.5L50.3,27.1a.456.456,0,0,0,.39-.5V26.4a.458.458,0,0,0-.4-.5" transform="translate(10.713 6.335)" fill="#a7a9ac" fill-rule="evenodd"/>
        <path id="Path_189251" data-name="Path 189251" d="M49.434,21.368,44.9,21.4l-.932,2.192,6.276-.039Z" transform="translate(10.751 5.225)" fill="#808285" fill-rule="evenodd"/>
        <path id="Path_189252" data-name="Path 189252" d="M50.273,22.633l-6.094.039a.456.456,0,0,0-.39.5v.192a.455.455,0,0,0,.4.5l6.094-.037a.456.456,0,0,0,.39-.5V23.13a.458.458,0,0,0-.4-.5" transform="translate(10.708 5.534)" fill="#a7a9ac" fill-rule="evenodd"/>
        <path id="Path_189253" data-name="Path 189253" d="M49.434,20.622l-4.742.03c-.168,0-.3.227-.3.5v.192c0,.275.142.5.31.5l4.742-.03c.168,0,.3-.227.3-.5V21.12c0-.275-.141-.5-.309-.5" transform="translate(10.855 5.043)" fill="#a7a9ac" fill-rule="evenodd"/>
        <path id="Path_189254" data-name="Path 189254" d="M92.677,83.588l4.117-.026a1.894,1.894,0,0,1,1.9,1.876l.027,4.459a1.892,1.892,0,0,1-1.876,1.9l-4.117.026a1.892,1.892,0,0,1-1.9-1.876L90.8,85.487a1.89,1.89,0,0,1,1.874-1.9" transform="translate(22.204 20.434)" fill="#414042" fill-rule="evenodd"/>
        <path id="Path_189255" data-name="Path 189255" d="M96.222,88.046l.469.841c.579,1.034.378,1.884-.443,1.889l-3.259.021a3.077,3.077,0,0,1-2-1.123,1.872,1.872,0,0,1-.162-.752l-.007-1.147a1.168,1.168,0,0,1,.117-.006l4.179-.026a2.482,2.482,0,0,1,1.106.3" transform="translate(22.208 21.456)" fill="#4ac195" fill-rule="evenodd"/>
        <path id="Path_189256" data-name="Path 189256" d="M95.307,69.153l4.117-.026a1.892,1.892,0,0,1,1.9,1.876l.029,4.46a1.892,1.892,0,0,1-1.876,1.9l-4.117.026a1.892,1.892,0,0,1-1.9-1.876l-.027-4.459a1.89,1.89,0,0,1,1.874-1.9" transform="translate(22.847 16.904)" fill="#414042" fill-rule="evenodd"/>
        <path id="Path_189257" data-name="Path 189257" d="M98.852,73.611l.47.841c.577,1.034.378,1.885-.444,1.89l-3.259.02a3.08,3.08,0,0,1-2-1.123,1.87,1.87,0,0,1-.162-.75l-.007-1.149c.039,0,.077-.006.117-.006l4.179-.026a2.482,2.482,0,0,1,1.106.3" transform="translate(22.851 17.926)" fill="#4ac195" fill-rule="evenodd"/>
        <path id="Path_189258" data-name="Path 189258" d="M81.621,44.732l1.961-.273a2.632,2.632,0,0,1,1.986.523,2.591,2.591,0,0,1,.988,1.786l2.285,22.038a2.772,2.772,0,0,1-.595,2.006,2.821,2.821,0,0,1-1.822,1.053l-1.961.274-.116-1.11,1.961-.274a1.657,1.657,0,0,0,1.069-.617,1.631,1.631,0,0,0,.348-1.176L85.44,46.922a1.514,1.514,0,0,0-.58-1.045,1.541,1.541,0,0,0-1.164-.307l-1.961.273Z" transform="translate(19.959 10.865)" fill="#176b3f"/>
        <path id="Path_189259" data-name="Path 189259" d="M64.3,60.99l18.973-2.979c.446-.07.806-.7.8-1.411v-.235L63.478,59.6v.235c0,.707.373,1.227.819,1.157" transform="translate(15.522 13.783)" fill="#176b3f" fill-rule="evenodd"/>
        <path id="Path_189260" data-name="Path 189260" d="M64.266,55.966l18.973-2.979c.446-.07.806-.7.8-1.411V51.34L63.446,54.573v.235c0,.707.373,1.227.819,1.157" transform="translate(15.515 12.554)" fill="#176b3f" fill-rule="evenodd"/>
        <path id="Path_189261" data-name="Path 189261" d="M64.308,62.633l18.973-2.979c.446-.07.806-.7.8-1.411v-.235L63.488,61.24v.235c0,.707.373,1.227.819,1.157" transform="translate(15.525 14.185)" fill="#176b3f" fill-rule="evenodd"/>
        <path id="Path_189262" data-name="Path 189262" d="M64.277,57.609,83.25,54.63c.446-.07.806-.7.8-1.411v-.235L63.457,56.216v.235c0,.707.373,1.227.819,1.157" transform="translate(15.517 12.956)" fill="#176b3f" fill-rule="evenodd"/>
        <path id="Path_189263" data-name="Path 189263" d="M64.318,64.277,83.291,61.3c.446-.07.806-.7.8-1.411v-.235L63.5,62.884v.235c0,.707.373,1.227.819,1.157" transform="translate(15.527 14.587)" fill="#176b3f" fill-rule="evenodd"/>
        <path id="Path_189264" data-name="Path 189264" d="M64.287,59.253,83.26,56.274c.446-.07.806-.7.8-1.411v-.235L63.467,57.86V58.1c0,.707.373,1.227.819,1.157" transform="translate(15.52 13.358)" fill="#176b3f" fill-rule="evenodd"/>
        <path id="Path_189265" data-name="Path 189265" d="M64.028,58.993l19.621-3.08c.46-.072.841.446.846,1.152V57.3L63.2,60.644v-.235c0-.707.37-1.344.83-1.416" transform="translate(15.454 13.671)" fill="#4ac195" fill-rule="evenodd"/>
        <path id="Path_189266" data-name="Path 189266" d="M64,53.969l19.621-3.08c.46-.073.841.446.846,1.152v.235l-21.3,3.344v-.235c0-.707.37-1.344.83-1.416" transform="translate(15.446 12.442)" fill="#4ac195" fill-rule="evenodd"/>
        <path id="Path_189267" data-name="Path 189267" d="M64.039,60.636l19.621-3.08c.46-.073.841.446.846,1.152v.235l-21.3,3.344v-.235c0-.707.37-1.344.83-1.416" transform="translate(15.457 14.072)" fill="#4ac195" fill-rule="evenodd"/>
        <path id="Path_189268" data-name="Path 189268" d="M64.007,55.612l19.621-3.08c.46-.072.841.447.846,1.152v.235l-21.3,3.344v-.235c0-.707.37-1.344.83-1.416" transform="translate(15.449 12.844)" fill="#4ac195" fill-rule="evenodd"/>
        <path id="Path_189269" data-name="Path 189269" d="M64.049,62.279,83.67,59.2c.46-.072.841.447.846,1.152v.235L63.22,63.93v-.235c0-.707.37-1.344.83-1.416" transform="translate(15.459 14.474)" fill="#4ac195" fill-rule="evenodd"/>
        <path id="Path_189270" data-name="Path 189270" d="M64.018,57.255l19.621-3.08c.46-.073.841.447.846,1.152v.235l-21.3,3.344v-.235c0-.707.37-1.343.83-1.416" transform="translate(15.451 13.246)" fill="#4ac195" fill-rule="evenodd"/>
        <path id="Path_189271" data-name="Path 189271" d="M110.98,26.787a.234.234,0,0,0,.113.3c.1.029.215-.062.254-.2a.235.235,0,0,0-.115-.3c-.1-.029-.214.063-.253.2" transform="translate(27.135 6.5)" fill="#fff" fill-rule="evenodd"/>
        <path id="Path_189272" data-name="Path 189272" d="M87.634,17.682l2.738,56.469,11.177-.07c5.291-10.926,14.639-14.969,29.019-16.582l-4.153-39.964Z" transform="translate(21.429 4.288)" fill="#e7ebeb" fill-rule="evenodd"/>
        <path id="Path_189273" data-name="Path 189273" d="M117.648,17.563,91.41,74.137l9.216-.057c.061-.124.128-.235.189-.357l22.222-56.179Z" transform="translate(22.353 4.29)" fill="#c0d8da" fill-rule="evenodd"/>
        <path id="Path_189274" data-name="Path 189274" d="M111.75,57.355a61.46,61.46,0,0,1,12.921-2.666L122,29.023Z" transform="translate(27.326 7.097)" fill="#c0d8da" fill-rule="evenodd"/>
        <path id="Path_189275" data-name="Path 189275" d="M113.079,17.575l-25.446.1,2.347,48.4Z" transform="translate(21.429 4.298)" fill="#c0d8da" fill-rule="evenodd"/>
        <path id="Path_189276" data-name="Path 189276" d="M109.637,62.676a28.792,28.792,0,0,1,2.609-1.584c4.613-2.48,10.183-3.923,16.82-4.784l-3.812-36.665L109.37,19.7l-.021-3.513,17.478-.066,1.594-.006.166,1.586,4.154,39.966.179,1.73-1.739.194c-6.969.782-12.7,2.139-17.278,4.6a23.741,23.741,0,0,0-4.239,2.889ZM89.9,19.777l2.566,52.945,8.419-.052a26.9,26.9,0,0,1,8.749-9.994l.027,4.408a24.5,24.5,0,0,0-6.111,8.112l-.479.988-1.091.006-11.177.07-1.684.011-.083-1.7L86.3,18.108l-.088-1.829,1.833-.007,21.3-.081.021,3.513Z" transform="translate(21.082 3.941)" fill="#414042"/>
        <rect id="Rectangle_39389" data-name="Rectangle 39389" width="1.065" height="4.84" transform="translate(88.34 17.574) rotate(-0.334)" fill="#414042"/>
        <path id="Path_189277" data-name="Path 189277" d="M71.734,9.53h0a2.075,2.075,0,0,1,1.824,2.244l.01,1.532a1.855,1.855,0,1,1-3.622.022l-.01-1.532a2.076,2.076,0,0,1,1.8-2.266" transform="translate(17.102 2.33)" fill="#ef9310" fill-rule="evenodd"/>
        <path id="Path_189278" data-name="Path 189278" d="M69.944,12.531V12.6a1.855,1.855,0,1,0,3.623-.022v-.068Z" transform="translate(17.104 3.059)" fill="#414042" fill-rule="evenodd"/>
        <path id="Path_189279" data-name="Path 189279" d="M55.951,18.483c.188-3.587,46.6-5.13,64.086-4.087,6.163.367-7.561,1.324-5.663,2.933l-7.981,3.132c-.321-1.267-1.284-2.285-6.917-2.25Z" transform="translate(13.682 3.442)" fill="#4ac195" fill-rule="evenodd"/>
        <rect id="Rectangle_39390" data-name="Rectangle 39390" width="1.065" height="4.84" transform="translate(110.138 17.438) rotate(-0.334)" fill="#414042"/>
        <path id="Path_189280" data-name="Path 189280" d="M89.249,9.421h0a2.076,2.076,0,0,1,1.824,2.244l.01,1.532a1.855,1.855,0,1,1-3.622.022l-.01-1.532a2.076,2.076,0,0,1,1.8-2.266" transform="translate(21.385 2.304)" fill="#ef9310" fill-rule="evenodd"/>
        <path id="Path_189281" data-name="Path 189281" d="M87.459,12.422v.068a1.855,1.855,0,1,0,3.623-.022V12.4Z" transform="translate(21.387 3.032)" fill="#414042" fill-rule="evenodd"/>
        <path id="Path_189282" data-name="Path 189282" d="M84.735,18.2c.148-3.587,25.279-4.521,39.459-3.459,5,.376,6.373.762,7.914,2.373l-6.467,3.124c-.263-1.267-1.047-2.286-5.614-2.258Z" transform="translate(20.72 3.503)" fill="#01644c" fill-rule="evenodd"/>
        <path id="Path_189283" data-name="Path 189283" d="M101.115,17.736l25.64-.177a1.788,1.788,0,0,1,1.674-1.543l9.869-.061a1.836,1.836,0,0,1,1.732,1.914,1.837,1.837,0,0,1-1.709,1.936l-9.868.061a1.52,1.52,0,0,1-.312-.03l-28.451.177L55.3,20.29h-.052A1.506,1.506,0,0,1,53.8,18.742l0-.7a1.507,1.507,0,0,1,1.43-1.567L99.666,16.2a1.506,1.506,0,0,1,1.449,1.541" transform="translate(13.155 3.901)" fill="#58595b" fill-rule="evenodd"/>
        <path id="Path_189284" data-name="Path 189284" d="M120.221,18.436c1.569-.01,2.846-.409,2.844-.891s-1.286-.865-2.855-.855-2.846.409-2.843.891,1.284.865,2.854.855" transform="translate(28.7 4.081)" fill="#d1d3d4" fill-rule="evenodd"/>
        <path id="Path_189285" data-name="Path 189285" d="M58.092,18.823c1.569-.01,2.846-.409,2.844-.891s-1.286-.865-2.855-.855-2.846.409-2.843.891,1.284.865,2.854.855" transform="translate(13.507 4.176)" fill="#d1d3d4" fill-rule="evenodd"/>
        <path id="Path_189286" data-name="Path 189286" d="M64.014,18.787c1.569-.01,2.846-.409,2.844-.891s-1.286-.865-2.855-.855-2.846.409-2.843.891,1.284.865,2.854.855" transform="translate(14.956 4.167)" fill="#d1d3d4" fill-rule="evenodd"/>
        <path id="Path_189287" data-name="Path 189287" d="M80.988,18.681c1.569-.01,2.846-.409,2.844-.891s-1.286-.865-2.855-.855-2.846.409-2.843.891,1.284.865,2.854.855" transform="translate(19.106 4.141)" fill="#d1d3d4" fill-rule="evenodd"/>
        <path id="Path_189288" data-name="Path 189288" d="M86.91,18.644c1.568-.01,2.845-.409,2.843-.891s-1.284-.865-2.854-.855-2.847.409-2.845.891,1.287.865,2.856.855" transform="translate(20.554 4.132)" fill="#d1d3d4" fill-rule="evenodd"/>
      </g>
    </g>
    <g id="Group_125376" data-name="Group 125376" transform="translate(12749.333 12720.5)">
      <g transform="matrix(1, 0, 0, 1, -11801.54, -12574.27)" filter="url(#Path_189328)">
        <path id="Path_189328-2" data-name="Path 189328" d="M160.475,0H18.416A18.416,18.416,0,0,0,0,18.417V144.6a18.417,18.417,0,0,0,18.416,18.417H160.475A18.417,18.417,0,0,0,178.891,144.6V18.417A18.416,18.416,0,0,0,160.475,0" transform="translate(9 75.89)" fill="#e1faee"/>
      </g>
      <g id="Group_125374" data-name="Group 125374">
        <path id="Path_189329" data-name="Path 189329" d="M31.2,35.03a5.054,5.054,0,1,1,5.054,5.054A5.054,5.054,0,0,1,31.2,35.03" transform="translate(-11792.537 -12498.381)" fill="#ef9310"/>
        <path id="Path_189330" data-name="Path 189330" d="M36.364,27.639h0a1.059,1.059,0,0,1-1.056-1.056V17.642a1.056,1.056,0,1,1,2.112,0v8.941a1.059,1.059,0,0,1-1.056,1.056" transform="translate(-11792.537 -12498.381)" fill="#ef9310"/>
        <path id="Path_189331" data-name="Path 189331" d="M36.364,53.8h0a1.06,1.06,0,0,1-1.057-1.056V43.806a1.056,1.056,0,0,1,2.113,0v8.941A1.059,1.059,0,0,1,36.364,53.8" transform="translate(-11792.537 -12498.381)" fill="#ef9310"/>
        <path id="Path_189332" data-name="Path 189332" d="M42.322,39.846l.29-.4a.812.812,0,0,1,1.132-.177l7.62,5.56a.812.812,0,0,1,.177,1.132l-.29.4a.812.812,0,0,1-1.132.177l-7.62-5.56a.812.812,0,0,1-.177-1.132" transform="translate(-11792.537 -12498.381)" fill="#ef9310"/>
        <path id="Path_189333" data-name="Path 189333" d="M21.187,24.424l.29-.4a.812.812,0,0,1,1.132-.177l7.62,5.56a.812.812,0,0,1,.177,1.132l-.29.4a.812.812,0,0,1-1.132.177l-7.62-5.56a.812.812,0,0,1-.177-1.132" transform="translate(-11792.537 -12498.381)" fill="#ef9310"/>
        <path id="Path_189334" data-name="Path 189334" d="M30.455,40.045l.328.367a.813.813,0,0,1-.064,1.144l-7.033,6.286a.814.814,0,0,1-1.145-.064l-.327-.367a.812.812,0,0,1,.064-1.144l7.033-6.286a.813.813,0,0,1,1.144.064" transform="translate(-11792.537 -12498.381)" fill="#ef9310"/>
        <path id="Path_189335" data-name="Path 189335" d="M49.963,22.61l.328.367a.813.813,0,0,1-.064,1.144l-7.033,6.286a.814.814,0,0,1-1.145-.064l-.327-.367a.812.812,0,0,1,.064-1.144l7.033-6.286a.813.813,0,0,1,1.144.064" transform="translate(-11792.537 -12498.381)" fill="#ef9310"/>
        <path id="Path_189336" data-name="Path 189336" d="M28.588,34.7l-.006.492a.812.812,0,0,1-.819.8l-9.432-.106a.814.814,0,0,1-.8-.82l.006-.492a.813.813,0,0,1,.82-.8l9.432.106a.814.814,0,0,1,.8.82" transform="translate(-11792.537 -12498.381)" fill="#ef9310"/>
        <path id="Path_189337" data-name="Path 189337" d="M54.747,35.24h0a1.059,1.059,0,0,1-1.068,1.044l-8.94-.1a1.057,1.057,0,1,1,.023-2.113l8.941.1a1.058,1.058,0,0,1,1.044,1.068" transform="translate(-11792.537 -12498.381)" fill="#ef9310"/>
      </g>
      <path id="Path_189338" data-name="Path 189338" d="M161.362,38.272H60.631V30.1H161.362Zm-99.775-.956h98.819V31.059H61.587Z" transform="translate(-11792.537 -12498.381)" fill="#01644c"/>
      <rect id="Rectangle_39394" data-name="Rectangle 39394" width="78.189" height="7.213" transform="translate(-11731.428 -12467.799)" fill="#01644c"/>
      <path id="Path_189339" data-name="Path 189339" d="M29.376,82.386c0-6.6,10.123-19.046,10.123-19.046S49.622,75.785,49.622,82.386,45.09,94.338,39.5,94.338,29.376,88.987,29.376,82.386" transform="translate(-11792.537 -12498.381)" fill="#257a53"/>
      <path id="Path_189340" data-name="Path 189340" d="M161.362,82.923H60.631V74.754H161.362Zm-99.775-.956h98.819V75.71H61.587Z" transform="translate(-11792.537 -12498.381)" fill="#ef9310"/>
      <rect id="Rectangle_39395" data-name="Rectangle 39395" width="47.782" height="7.213" transform="translate(-11731.428 -12423.148)" fill="#ef9310"/>
      <path id="Path_189342" data-name="Path 189342" d="M161.362,131.645H60.631v-8.169H161.362Zm-99.775-.956h98.819v-6.257H61.587Z" transform="translate(-11792.537 -12498.381)" fill="#257a53"/>
      <rect id="Rectangle_39396" data-name="Rectangle 39396" width="65.559" height="7.213" transform="translate(-11731.428 -12374.427)" fill="#257a53"/>
      <g id="Group_125375" data-name="Group 125375">
        <path id="Path_189341" data-name="Path 189341" d="M43.817,135.115V108.69h-5.7v26.425a6.018,6.018,0,1,0,5.7,0" transform="translate(-11792.537 -12498.381)" fill="#257a53"/>
        <path id="Path_189343" data-name="Path 189343" d="M37.062,140.388a3.9,3.9,0,1,1,3.9,3.9,3.9,3.9,0,0,1-3.9-3.9" transform="translate(-11792.537 -12498.381)" fill="#ffb64f"/>
        <rect id="Rectangle_39397" data-name="Rectangle 39397" width="2.327" height="12.227" transform="translate(-11752.821 -12371.973)" fill="#ffb64f"/>
      </g>
    </g>
    <g id="Mask_Group_58" data-name="Mask Group 58" clip-path="url(#clip-path-2)">
      <g id="Group_125373" data-name="Group 125373" transform="translate(1089.333 205.5)">
        <g id="Group_125372" data-name="Group 125372" clip-path="url(#clip-path-3)">
          <path id="Path_189289" data-name="Path 189289" d="M242.209,125.216s37.663,42.8,50.8,69.225c0,0-15.8,34.4-67.019,62.347a17.766,17.766,0,0,1-5.751-2.981c-5.419-3.871.586-6.705,1.773-7.474,12.994-8.417,35.7-44.673,36.356-47.82s-28.458-31.361-37.306-41.794,7.388-36.877,21.143-31.5" fill="#ffae73"/>
          <path id="Path_189290" data-name="Path 189290" d="M143.8,124S94.5,170.933,83.1,169.69s-55.985-12.011-55.985-12.011L23.4,166.22s44.741,26.267,66.227,25.89,49.607-20.846,49.607-20.846Z" fill="#ffae73"/>
          <path id="Path_189291" data-name="Path 189291" d="M179.575,62.267s.246,5.277-2.919,6.31,3.26,12.42,2.756,20.112-3.907,10.778-3.907,10.778,1.634-4.231.72-6.847c0,0,.146,5.442-3.827,8.187s-2.906,5.118-2.906,5.118-8.98-2.689-9.232-9.425a17.8,17.8,0,0,0-.075,4.306s-7.754-5.823-8.124-12.532,6.1-12.369,9.053-12.472,9.528-5.892,9.351-8.08,9.11-5.455,9.11-5.455" fill="#244d80"/>
          <path id="Path_189292" data-name="Path 189292" d="M154.757,24.565c5.225-7.935,25.972-3.494,46.338,9.919S233.736,65.2,228.51,73.137s-25.971,3.494-46.337-9.919S149.531,32.5,154.757,24.565" fill="#e65924"/>
          <path id="Path_189293" data-name="Path 189293" d="M200.267,307.335c-5.649,29.937-12.922,70.662-18.535,102.521-.665,3.762-1.306,7.4-1.919,10.876-.139.8-.279,1.6-.418,2.388h-56.1q-.119-1.2-.226-2.388a417.237,417.237,0,0,1-.6-71.04c.6-7.723,1.4-14.841,2.277-21.3,3.69-38.133,4.932-54.292,5.306-59.634l.08-1.179c0-.071.008-.139.012-.2l.012-.179c.008-.108.016-.2.02-.287l.012-.234c0-.08.007-.116.007-.116l19.125,5.689,9.355,2.783,2.206,7.006,4.41,14.009,32.019,10.33Z" fill="#193659"/>
          <path id="Path_189294" data-name="Path 189294" d="M237.063,314.874c-.967,15.554-2.56,70.4-4.339,105.857q-.06,1.212-.12,2.389H174.439q-.269-1.188-.538-2.389c-6.174-27.767-11.23-58.946-14.852-84.252-.637.028-7.278-45.2-23.918-65.132-.151-.18-.171-.323-.08-.43.824-1.059,11.386.772,11.386.772a23.4,23.4,0,0,0,2.878.565c7.986,1.1,19.582-.669,31.087-3.352h0c3.109-.724,6.207-1.516,9.228-2.337,8.519-2.312,16.4-4.852,22.031-6.763,1.4-.474,2.651-.912,3.742-1.294.883-.311,1.66-.589,2.313-.824h0c1.569-.565,2.445-.9,2.445-.9s.394.347,1.067,1.063c2.233,2.381,7.52,8.838,11.421,20.1,3.145,9.065,5.386,21.246,4.407,36.923" fill="#244d80"/>
          <path id="Path_189295" data-name="Path 189295" d="M166.224,25.467l36.61,55.546s4.186-8.2,8.835-5.258c7.253,4.582,22.834-11.1,19.585-33.251-.214-1.448-.468-2.824-.751-4.131-7.3-10.524-15.416-22.242-21.237-30.48-16.813-10.154-43.042,17.574-43.042,17.574" fill="#244d80"/>
          <path id="Path_189296" data-name="Path 189296" d="M150.135,137.677a62.517,62.517,0,0,0,20.4,12.161c32.329,12.251,48.957-14.22,56.4-32.931a28.944,28.944,0,0,0-10.836-5.012c-1.9-.49-3.888-.931-5.676-1.287a3.6,3.6,0,0,1-2.313-1.53c-3.084-4.653-6.2-16.444-5.082-33.019l-1.627.207-27.285,3.623s.067,8.526-.417,16.51a82.032,82.032,0,0,1-1,9.278,5.493,5.493,0,0,1-4.874,4.465.069.069,0,0,1-.017.023,170.993,170.993,0,0,0-17.674,27.512" fill="#ffae73"/>
          <path id="Path_189297" data-name="Path 189297" d="M174.109,79.893s.073,8.52-.417,16.51c15.106.534,23.952-12.714,27.7-20.131Z" fill="#f99352"/>
          <path id="Path_189298" data-name="Path 189298" d="M168.592,87.138S204.232,90,205.671,67.775s7.008-36.819-15.687-39.584-27.669,5.428-29.953,12.728-.673,44.9,8.561,46.219" fill="#ffae73"/>
          <path id="Path_189299" data-name="Path 189299" d="M161.878,28.63c5.941-6.334,10.015-4.6,12.222-2.443,20.183-9.48,31.74,7.171,31.74,7.171a42.538,42.538,0,0,0,12.289,25.964s-6.759,3.6-21.505-1.206c-4.5-1.469-8.385-4.984-11.609-9.153a83.37,83.37,0,0,0,13.211,18.408c-17.38-9.417-22.986-34.78-23.535-37.459-2.3,1.817-6.866,5.792-8.44,9.873-2.138,5.547-3.68,17.146-7.05,16.533,0,0-6.232-18.19,2.677-27.688" fill="#244d80"/>
          <path id="Path_189300" data-name="Path 189300" d="M232.015,53.439s16.575-32.991-6.587-46.033-40.114-7.92-52.857,8.029Z" fill="#ffb64f"/>
          <path id="Path_189301" data-name="Path 189301" d="M232.959,176.227c1.269,1.322,2.062,2.067,2.062,2.067,27-3.361,28.265-31.084,28.265-31.084s-21.132-27.867-40.861-34a103.638,103.638,0,0,0-12-2.6c-6.173,5.118-13.284,12.619-19.972,18.719-7.711,7.033-20.981,9.421-25.89-3.052-1.967-5,2.762-15.367,3.247-16.112a.106.106,0,0,0,.016-.026c-.507.033-1,.07-1.483.1-2.418.193-4.6.489-6.577.687-9.628.966-22.927,7.347-49.8,41.359,0,0,14.52,17.933,29.271,18.976-.592,28.409,2.458,74.684,2.458,74.684-6.443,12.671,89.284,42.023,93.417,29.936,6.2-9.454.013-27.557-5.344-41.433-1.313-3.386-1.6-7-2.771-9.616a31.39,31.39,0,0,1-1.782-5.18,30.669,30.669,0,0,1-.309-13.606,292.932,292.932,0,0,1,8.055-29.822" fill="#ef9310"/>
          <path id="Path_189302" data-name="Path 189302" d="M233.822,49.219q-1.046-1.076-2.154-2.162l0,0A159.024,159.024,0,0,0,204.948,26.4a165.817,165.817,0,0,0-24.666-12.755h0q-2.334-.961-4.606-1.787c-18.034-6.6-32.568-7.1-36.967-.048-4.642,7.436,3.213,21.286,18.6,35.335l0,0c-.012-.123-.028-.243-.04-.362s-.019-.243-.032-.367-.023-.282-.035-.426c-.008-.1-.016-.207-.024-.314-.008-.175-.02-.35-.032-.53-.012-.222-.024-.445-.032-.672,0-.024,0-.052,0-.08-.008-.163-.012-.33-.016-.5v-.155c0-.107,0-.215,0-.326,0-.39,0-.788.008-1.183,0-.139,0-.282.012-.422,0-.079.008-.159.008-.238.008-.132.012-.263.024-.391.012-.242.028-.481.048-.72s.044-.478.067-.721c0-.012,0-.028,0-.04.008-.087.02-.175.028-.258.008-.056.012-.112.02-.164.024-.167.044-.334.068-.5.036-.275.079-.545.131-.816.008-.044.016-.092.024-.135.056-.323.12-.641.2-.96.032-.159.072-.318.112-.474l.012-.059c-1.644-3.464-1.943-6.457-.6-8.607,1.552-2.492,5.087-3.5,9.884-3.185h.008c.131.008.263.02.4.032h0a38.509,38.509,0,0,1,5.773.928h0c.486.111.976.23,1.477.362,1.816.477,3.723,1.071,5.7,1.783h.024a101.538,101.538,0,0,1,18.921,9.367c2.711,1.692,5.279,3.452,7.68,5.239h0q.358.27.712.538c11.1,8.415,18.424,17.456,19.264,23.7a6.352,6.352,0,0,1-.764,4.328,3.189,3.189,0,0,1-.2.278.248.248,0,0,1-.023.04,5.83,5.83,0,0,1-1.931,1.66l-.008,0a3.637,3.637,0,0,1-.327.171s0,0,0,0a10.2,10.2,0,0,1-2.827.86h-.008c-.1.084-.207.163-.311.243-.075.06-.155.119-.234.175s-.152.111-.231.167a.812.812,0,0,0-.072.052c-.135.088-.266.179-.4.267-.207.135-.418.262-.625.386-.1.06-.207.119-.31.175s-.207.112-.311.163c-.139.072-.275.14-.414.2a1.344,1.344,0,0,1-.155.072c-.052.024-.1.044-.155.068l-.008,0c-.012,0-.024.012-.036.016-.064.027-.128.051-.191.079-.1.036-.187.076-.283.108-.119.043-.235.087-.35.123s-.223.072-.331.1l-.031.012c-.092.023-.18.047-.271.067a.729.729,0,0,1-.1.028c-.083.02-.167.04-.254.056-.1.02-.208.04-.315.056-.064.011-.128.019-.191.027s-.151.02-.227.028c-.1.012-.2.02-.295.024a1.184,1.184,0,0,1-.119,0h-.048a.484.484,0,0,1-.076,0h-.027a.9.9,0,0,1-.1,0,6.09,6.09,0,0,1-.768-.048,5.588,5.588,0,0,1-.737-.147c-.119-.036-.238-.072-.354-.111-.087-.032-.175-.068-.259-.1-.063-.024-.127-.052-.191-.084s-.1-.047-.155-.075a1.038,1.038,0,0,1-.135-.072c-.092-.048-.18-.1-.267-.155a4.306,4.306,0,0,0-.545-.295c-.06-.028-.12-.051-.176-.075-.023-.008-.047-.02-.071-.028a2.256,2.256,0,0,0-.263-.088,3.583,3.583,0,0,0-1.027-.151h-.048a.111.111,0,0,0-.036,0h-.048c-.043,0-.083,0-.127.008a.6.6,0,0,0-.084,0c-.075.008-.147.016-.219.028-.007,0-.015,0-.023,0a.884.884,0,0,0-.1.02,1.328,1.328,0,0,0-.171.035c-.056.012-.111.028-.171.044a1.881,1.881,0,0,0-.2.06l-.131.048a1.964,1.964,0,0,0-.2.075h0c-.051.02-.1.04-.151.064s-.1.044-.139.068-.108.056-.164.083l-.155.084-.159.1-.152.1c-.051.032-.1.064-.155.1a1.26,1.26,0,0,0-.151.107c-.1.068-.2.143-.294.223a1.541,1.541,0,0,0-.144.115c-.048.04-.1.08-.143.124-.1.079-.187.163-.279.247s-.183.167-.27.258c-.044.044-.088.088-.132.136s-.087.087-.127.131-.1.1-.14.144h.005q2.614,1.08,5.147,2a93.578,93.578,0,0,0,15.092,4.2c10.641,1.915,18.606.669,21.668-4.236,4.076-6.541-1.505-18.034-13.364-30.271" fill="#ef9310"/>
          <path id="Path_189303" data-name="Path 189303" d="M212.448,236.283c13.787,4.418,7.35-3.142,18-2.373-1.312-3.387-2.284-6.455-3.452-9.075a31.394,31.394,0,0,1-1.783-5.18,30.654,30.654,0,0,1-.308-13.606,264.947,264.947,0,0,1,8.054-29.822c-3.046-8.006-16.05,5.119-16.05,5.119s-12.041,12.649-8.888,34.158c2.936,20.039-7.47,16.967,4.427,20.779" fill="#e65924"/>
          <path id="Path_189304" data-name="Path 189304" d="M222.425,113.213s-22.263,14.227-27.956,44.221l-6.732-2.138s2.837-21.612,28.588-43.6c0,0,1.941.384,2.59.546.876.218,3.51.973,3.51.973" fill="#25468f"/>
          <path id="Path_189305" data-name="Path 189305" d="M143.8,158.194l7.048.463a71.512,71.512,0,0,1,15.5-48.413c-2.419.193-4.61.428-6.577.687-14.308,21.847-15.969,47.263-15.969,47.263" fill="#25468f"/>
          <path id="Path_189306" data-name="Path 189306" d="M193.794,174.072c.436-1.853,4.749-19.858,4.749-19.858s.994-5.629-8.9-6.186-44.987-2.406-44.987-2.406a10.934,10.934,0,0,0-4.852,8.809c-.072,5.922-4.847,39.807-4.847,39.807l-4.913,74.522,107.018,46.113s7.338-37.665-.878-63.917c-4.792-15.311-10.97-31.3-10.97-31.3s-38.082-17.288-31.422-45.586" fill="#244d80"/>
          <path id="Path_189307" data-name="Path 189307" d="M194.747,154.818a2.957,2.957,0,1,0-3.712,1.923,2.957,2.957,0,0,0,3.712-1.923" fill="#e65924"/>
          <path id="Path_189308" data-name="Path 189308" d="M194.24,154.657a2.956,2.956,0,1,0-3.712,1.923,2.956,2.956,0,0,0,3.712-1.923" fill="#ffb64f"/>
          <path id="Path_189309" data-name="Path 189309" d="M193.255,153.759a.43.43,0,1,0-.429.43.43.43,0,0,0,.429-.43" fill="#193659"/>
          <path id="Path_189310" data-name="Path 189310" d="M190.45,153.764a.429.429,0,1,0-.429.43.43.43,0,0,0,.429-.43" fill="#193659"/>
          <path id="Path_189311" data-name="Path 189311" d="M151.232,151.062a2.956,2.956,0,1,0-3.712,1.923,2.956,2.956,0,0,0,3.712-1.923" fill="#e65924"/>
          <path id="Path_189312" data-name="Path 189312" d="M150.726,150.9a2.956,2.956,0,1,0-3.712,1.923,2.956,2.956,0,0,0,3.712-1.923" fill="#ffb64f"/>
          <path id="Path_189313" data-name="Path 189313" d="M149.74,150a.43.43,0,1,0-.429.43.43.43,0,0,0,.429-.43" fill="#193659"/>
          <path id="Path_189314" data-name="Path 189314" d="M146.935,150.008a.429.429,0,1,0-.429.43.43.43,0,0,0,.429-.43" fill="#193659"/>
          <path id="Path_189315" data-name="Path 189315" d="M227.093,66.5s.245,5.277-2.92,6.31,3.261,12.42,2.757,20.112-3.907,10.778-3.907,10.778,1.634-4.231.72-6.847c0,0,.146,5.442-3.827,8.187s-2.906,5.118-2.906,5.118-8.98-2.689-9.232-9.425a17.749,17.749,0,0,0-.075,4.306s-7.754-5.823-8.125-12.532,6.1-12.37,9.053-12.472,9.529-5.892,9.351-8.081,9.111-5.454,9.111-5.454" fill="#244d80"/>
          <path id="Path_189316" data-name="Path 189316" d="M179.579,74.719s-5.311,3.219-9.09,2.845c-3.744-.371-5.783-4.886-5.783-4.886a31.4,31.4,0,0,1,14.873,2.041" fill="#fff1e7"/>
          <path id="Path_189317" data-name="Path 189317" d="M213.258,266.566H141.732a9.054,9.054,0,0,1-7.624-5.421L116.1,216.818c-1.216-2.994.225-5.422,3.219-5.422h71.526a9.054,9.054,0,0,1,7.624,5.422l18.005,44.327c1.217,2.994-.224,5.421-3.219,5.421" fill="#01916f"/>
          <path id="Path_189318" data-name="Path 189318" d="M208.99,266.566H137.464a9.053,9.053,0,0,1-7.624-5.421l-18-44.327c-1.216-2.994.225-5.422,3.219-5.422H186.58a9.054,9.054,0,0,1,7.624,5.422l18.005,44.327c1.216,2.994-.225,5.421-3.219,5.421" fill="#4ac195"/>
          <path id="Path_189319" data-name="Path 189319" d="M118.978,214.8h0a4.15,4.15,0,0,1,3.482,2.476c.553,1.362-.109,2.475-1.47,2.475a4.147,4.147,0,0,1-3.482-2.475c-.553-1.362.108-2.476,1.47-2.476" fill="#01644c"/>
          <path id="Path_189320" data-name="Path 189320" d="M126.84,215.827h0a2.42,2.42,0,0,1,2.031,1.444c.323.795-.063,1.445-.857,1.445a2.421,2.421,0,0,1-2.032-1.445c-.323-.794.064-1.444.858-1.444" fill="#01644c"/>
          <path id="Path_189321" data-name="Path 189321" d="M154.822,237.578c-1.194-2.938.221-5.32,3.159-5.32a8.883,8.883,0,0,1,7.481,5.32c1.194,2.938-.22,5.32-3.159,5.32a8.884,8.884,0,0,1-7.481-5.32" fill="#01916f"/>
          <path id="Path_189322" data-name="Path 189322" d="M221.776,246.869s-9.835-5.608-12.206-8.2c-1.53-1.673-1.622.479-1.524,1.083a8.283,8.283,0,0,0,3.177,5.9c4.029,3.293,10.553,1.214,10.553,1.214" fill="#ffae73"/>
          <path id="Path_189323" data-name="Path 189323" d="M221.776,246.869s-17.74-5.328-21.826-4.866-13.417,3.371-14.168,4.129,2.46,1.559,4.9.844c3.132-.915,8.064.114,8.064.114s-9.944,2.156-12.436,3.253a.366.366,0,0,0-.08.618c.6.473,2.127.767,4.327.461a76.03,76.03,0,0,1,8.7-.36l-11.306,2.457a.3.3,0,0,0-.242.3c.019.537.922,1.112,3.563,1.232a86.614,86.614,0,0,0,8.929-.926l-6.14,3.241s1.488,1.066,4.623.03c2.152-.71,8.567-2.316,10.049-2s8.873,2.923,12.364,2.476a20.014,20.014,0,0,0,4.89-1.08Z" fill="#ffae73"/>
          <path id="Path_189324" data-name="Path 189324" d="M27.118,157.679s-8.9-9.509-12.172-10.643S0,143.932,0,143.932s.047,2.793,5.272,4.721,6.319,10.99,9.41,13.555,11.259,4.783,11.259,4.783Z" fill="#ffae73"/>
          <path id="Path_189325" data-name="Path 189325" d="M23.4,166.22s-8.672-.379-11.489-2.149-7.406-4.084-6.521-5.493,10.447-.346,10.447-.346Z" fill="#ffae73"/>
          <path id="Path_189326" data-name="Path 189326" d="M14.243,148.694c-.455-.2-12.018-7.936-12.018-7.936s-.975,3.665.729,4.361,11.289,3.575,11.289,3.575" fill="#ffae73"/>
          <path id="Path_189327" data-name="Path 189327" d="M271.084,223.408A193.325,193.325,0,0,1,226,256.788a17.72,17.72,0,0,1-5.752-2.982c-5.418-3.869.585-6.7,1.771-7.472,5.888-3.814,13.774-13.348,20.7-22.926Z" fill="#ffae73"/>
        </g>
      </g>
    </g>
  </g>
</svg>
