<svg xmlns="http://www.w3.org/2000/svg" width="1328" height="459.903" viewBox="0 0 1328 459.903">
  <g id="bg-curved" transform="translate(-220 -1307)">
    <path id="Path_188482" data-name="Path 188482" d="M0,0V425.786c390.952-62.878,814.178,17.96,1328,34.117V34.116C937.048,96.993,513.822,16.157,0,0" transform="translate(220 1307)" fill="#e1faee" opacity="0.45"/>
    <path id="Path_188483" data-name="Path 188483" d="M96.016,143.273A922.761,922.761,0,0,0,131.656,12.994l-1.08-.2a914.474,914.474,0,0,1-35.458,129.84C73.733,203.032,62.96,262.107,63.1,318.217c.092,37.265,4.982,72.546,14.525,105.385.354-.051.709-.1,1.063-.145-23.9-82.351-18.071-180.2,17.332-280.183" transform="matrix(1, 0.017, -0.017, 1, 224.059, 1297.956)" fill="#e1faee"/>
    <path id="Path_188484" data-name="Path 188484" d="M166.349,58.351c3.986-10.293,8.107-20.937,12.025-31.3q1.386-3.663,2.674-7.306l-1.046-.2c-.817,2.289-1.648,4.582-2.518,6.882-3.918,10.356-8.037,21-12.021,31.287-35.368,91.347-71.938,185.8-48.981,280.149a246.422,246.422,0,0,0,25.448,63.7l1.276.022a245.133,245.133,0,0,1-25.772-64.154C94.611,243.64,131.08,149.444,166.349,58.351" transform="translate(400.935 1307.064)" fill="#e1faee"/>
    <path id="Path_188485" data-name="Path 188485" d="M48.3,249.693c2.5-48.13-2.165-90.82-14.27-130.505A332.3,332.3,0,0,0,0,43.589v2.176a330.152,330.152,0,0,1,33.108,73.979C57.271,198.962,52.322,290.49,17.062,416.517c-.638,2.278-1.242,4.552-1.83,6.824.388-.137.779-.26,1.168-.394q.774-2.951,1.6-5.912C35.85,353.219,45.763,298.48,48.3,249.693" transform="translate(220 1307.143)" fill="#e1faee"/>
    <path id="Path_188486" data-name="Path 188486" d="M437.472,276.129c-10.194-82.663,9.212-165.885,54.99-239.174-.542.116-1.085.228-1.627.343a381.04,381.04,0,0,0-42.758,95.252,356.535,356.535,0,0,0-11.594,143.808,360.982,360.982,0,0,0,56.253,153.267q8,12.172,16.939,23.568l1.357.151a356.547,356.547,0,0,1-73.561-177.215" transform="translate(1002.98 1311.197)" fill="#e1faee"/>
    <path id="Path_188487" data-name="Path 188487" d="M503.385,173.974c-2.416,38.776,11.209,80.464,41.407,126.206v-1.837c-29.481-45.044-42.785-86.114-40.406-124.307,2.236-35.9,18.027-66.42,40.406-94.037V78.4c-22.908,28-39.129,59-41.407,95.575" transform="translate(1003.208 1424.089)" fill="#e1faee"/>
    <path id="Path_188488" data-name="Path 188488" d="M363.348,241.694c-3.319-48.412,9.68-93.683,38.634-134.555a710.87,710.87,0,0,0,41.36-65.107l-1.251.086a720.073,720.073,0,0,1-40.838,64.1C372.093,147.382,359,193,362.349,241.816c3.044,44.4,21.279,109.756,83.671,189.955.549.087,1.095.175,1.643.261-62.939-80.466-81.272-145.947-84.315-190.338" transform="translate(837.152 1322.12)" fill="#e1faee"/>
  </g>
</svg>
