<svg xmlns="http://www.w3.org/2000/svg" xmlns:xlink="http://www.w3.org/1999/xlink" width="400" height="380" viewBox="0 0 400 380">
  <defs>
    <filter id="Ellipse_4877" x="129" y="77" width="143" height="143" filterUnits="userSpaceOnUse">
      <feOffset dy="3" input="SourceAlpha"/>
      <feGaussianBlur stdDeviation="3" result="blur"/>
      <feFlood flood-opacity="0.161"/>
      <feComposite operator="in" in2="blur"/>
      <feComposite in="SourceGraphic"/>
    </filter>
  </defs>
  <g id="t2-c1" transform="translate(-390 -2466)">
    <rect id="Rectangle_39191" data-name="Rectangle 39191" width="400" height="380" rx="20" transform="translate(390 2466)" fill="#e1faee"/>
    <path id="Path_189739" data-name="Path 189739" d="M119.123,15.693V21h-3.771V5.359h6.241a7.269,7.269,0,0,1,3.174.661,4.979,4.979,0,0,1,2.138,1.88,5.134,5.134,0,0,1,.757,2.766,4.526,4.526,0,0,1-1.638,3.658,6.8,6.8,0,0,1-4.5,1.37Zm0-2.911h2.471a2.33,2.33,0,0,0,1.67-.548,2.035,2.035,0,0,0,.575-1.547,2.516,2.516,0,0,0-.591-1.751,2.092,2.092,0,0,0-1.611-.666h-2.514Zm17.413-.129-1.192-.086a2.142,2.142,0,0,0-2.191,1.074V21h-3.62V9.377h3.395l.118,1.493a2.8,2.8,0,0,1,2.546-1.708,3.53,3.53,0,0,1,1.01.129ZM141.66,21h-3.631V9.377h3.631ZM137.814,6.369a1.63,1.63,0,0,1,.559-1.275,2.364,2.364,0,0,1,2.9,0,1.63,1.63,0,0,1,.559,1.275,1.63,1.63,0,0,1-.559,1.275,2.364,2.364,0,0,1-2.9,0A1.63,1.63,0,0,1,137.814,6.369Zm9.5,3.008.118,1.364a4,4,0,0,1,3.319-1.579,2.942,2.942,0,0,1,2.976,1.751,3.868,3.868,0,0,1,3.416-1.751q3.534,0,3.631,4.275V21H157.14V13.663a2.216,2.216,0,0,0-.3-1.3,1.28,1.28,0,0,0-1.1-.408,1.715,1.715,0,0,0-1.6.956l.011.15V21h-3.631V13.685a2.329,2.329,0,0,0-.29-1.321,1.277,1.277,0,0,0-1.106-.408,1.736,1.736,0,0,0-1.59.956V21h-3.62V9.377ZM169.386,21a4.088,4.088,0,0,1-.344-1.042,3.366,3.366,0,0,1-2.793,1.257,4.124,4.124,0,0,1-2.793-.994,3.163,3.163,0,0,1-1.149-2.5,3.251,3.251,0,0,1,1.4-2.857,7.114,7.114,0,0,1,4.061-.967h1.117v-.615q0-1.608-1.386-1.608a1.133,1.133,0,0,0-1.289,1.274h-3.62a3.245,3.245,0,0,1,1.434-2.736,6.027,6.027,0,0,1,3.658-1.051,5.284,5.284,0,0,1,3.513,1.085,3.772,3.772,0,0,1,1.321,2.976v5.146a5.269,5.269,0,0,0,.494,2.449V21Zm-2.267-2.363a2.019,2.019,0,0,0,1.123-.29,1.818,1.818,0,0,0,.639-.655V15.833h-1.053q-1.891,0-1.891,1.7a1.036,1.036,0,0,0,.333.8A1.205,1.205,0,0,0,167.119,18.637Zm14.427-5.983-1.192-.086a2.142,2.142,0,0,0-2.191,1.074V21h-3.62V9.377h3.395l.118,1.493A2.8,2.8,0,0,1,180.6,9.162a3.53,3.53,0,0,1,1.01.129ZM186.67,21h-3.631V9.377h3.631ZM182.824,6.369a1.63,1.63,0,0,1,.559-1.275,2.364,2.364,0,0,1,2.9,0,1.63,1.63,0,0,1,.559,1.275,1.63,1.63,0,0,1-.559,1.275,2.364,2.364,0,0,1-2.9,0A1.63,1.63,0,0,1,182.824,6.369ZM195.446,21a4.088,4.088,0,0,1-.344-1.042,3.366,3.366,0,0,1-2.793,1.257,4.124,4.124,0,0,1-2.793-.994,3.163,3.163,0,0,1-1.149-2.5,3.251,3.251,0,0,1,1.4-2.857,7.114,7.114,0,0,1,4.061-.967h1.117v-.615q0-1.608-1.386-1.608a1.133,1.133,0,0,0-1.289,1.274h-3.62a3.245,3.245,0,0,1,1.434-2.736,6.027,6.027,0,0,1,3.658-1.051,5.284,5.284,0,0,1,3.513,1.085,3.772,3.772,0,0,1,1.321,2.976v5.146a5.269,5.269,0,0,0,.494,2.449V21Zm-2.267-2.363a2.019,2.019,0,0,0,1.123-.29,1.818,1.818,0,0,0,.639-.655V15.833h-1.053q-1.891,0-1.891,1.7a1.036,1.036,0,0,0,.333.8A1.205,1.205,0,0,0,193.18,18.637Zm13.481-.9a.836.836,0,0,0-.483-.741,7.353,7.353,0,0,0-1.837-.58,8.376,8.376,0,0,1-2.234-.79,3.743,3.743,0,0,1-1.343-1.187,2.835,2.835,0,0,1-.462-1.6,3.212,3.212,0,0,1,1.321-2.637,5.443,5.443,0,0,1,3.459-1.037,6.03,6.03,0,0,1,3.7,1.042,3.258,3.258,0,0,1,1.4,2.739h-3.631q0-1.4-1.472-1.4a1.459,1.459,0,0,0-.956.317.981.981,0,0,0-.387.79.9.9,0,0,0,.473.784,4.466,4.466,0,0,0,1.509.494,13.042,13.042,0,0,1,1.821.462q2.621.9,2.621,3.233a3.044,3.044,0,0,1-1.413,2.589,6.2,6.2,0,0,1-3.658,1,6.322,6.322,0,0,1-2.664-.537,4.455,4.455,0,0,1-1.826-1.461,3.308,3.308,0,0,1-.655-1.944h3.384a1.4,1.4,0,0,0,.537,1.176,2.209,2.209,0,0,0,1.321.371,1.738,1.738,0,0,0,1.112-.3A.962.962,0,0,0,206.661,17.734Z" transform="translate(428 2727)" fill="#12263f"/>
    <path id="Path_188118" data-name="Path 188118" d="M0,0H172V3H0Z" transform="translate(504 2699)" fill="#1b4733"/>
    <g id="t2-ic2">
      <g transform="matrix(1, 0, 0, 1, 390, 2466)" filter="url(#Ellipse_4877)">
        <circle id="Ellipse_4877-2" data-name="Ellipse 4877" cx="62.5" cy="62.5" r="62.5" transform="translate(138 83)" fill="#fff"/>
      </g>
      <g id="literature" transform="translate(551 2550)">
        <g id="Group_97196" data-name="Group 97196" transform="translate(1.563 27.563)">
          <path id="Path_151987" data-name="Path 151987" d="M10,116v50H42.187c0,1.727,2.8,3.125,6.25,3.125s6.25-1.4,6.25-3.125H86.875V116Z" transform="translate(-10 -103.5)" fill="#ef9310"/>
          <path id="Path_151988" data-name="Path 151988" d="M367.375,408.5l-4.622-3.125L358,408.5V396h9.375Z" transform="translate(-303.625 -339.75)" fill="#257a53"/>
          <path id="Path_151989" data-name="Path 151989" d="M107.5,42.25V36a54.141,54.141,0,0,0-25.312,6.25H50v50h64.063v-50Z" transform="translate(-43.75 -36)" fill="#eefaff"/>
        </g>
        <g id="Group_97197" data-name="Group 97197" transform="translate(0 26)">
          <path id="Path_151990" data-name="Path 151990" d="M78.438,38.5h-5V33.813a1.562,1.562,0,0,0-1.562-1.562h-5V27.563A1.562,1.562,0,0,0,65.313,26a55.728,55.728,0,0,0-25.681,6.25H7.813A1.562,1.562,0,0,0,6.25,33.813V38.5H1.563A1.562,1.562,0,0,0,0,40.063v50a1.562,1.562,0,0,0,1.563,1.563h9.062a1.563,1.563,0,1,0,0-3.125h-7.5V41.625H6.25V83.813a1.562,1.562,0,0,0,1.563,1.563H54.375V88.5H46.25a1.562,1.562,0,0,0-1.562,1.563c0,.054-.168.413-.967.812a9.6,9.6,0,0,1-7.441,0c-.8-.4-.967-.758-.967-.812A1.562,1.562,0,0,0,33.75,88.5H24.688a1.563,1.563,0,0,0,0,3.125H32.6c1.025,1.858,3.869,3.125,7.4,3.125s6.376-1.267,7.4-3.125h6.974v4.688A1.562,1.562,0,0,0,56.8,97.618l3.883-2.553,3.759,2.542a1.562,1.562,0,0,0,2.438-1.294V91.625H78.438A1.562,1.562,0,0,0,80,90.063v-50A1.562,1.562,0,0,0,78.438,38.5Zm-40,43.75H9.375V35.375H38.438Zm3.125-47.471a53.435,53.435,0,0,1,22.188-5.63V76.022A55.461,55.461,0,0,0,41.563,81.3ZM63.75,93.37l-2.184-1.477a1.563,1.563,0,0,0-1.734-.011L57.5,93.415v-8.04h6.25ZM47.418,82.25a53.628,53.628,0,0,1,17.894-3.125,1.562,1.562,0,0,0,1.563-1.562V35.375h3.438V82.25ZM76.875,88.5h-10V85.375h5a1.562,1.562,0,0,0,1.563-1.562V41.625h3.438Z" transform="translate(0 -26)"/>
          <path id="Path_151991" data-name="Path 151991" d="M81.563,129.125H95A1.563,1.563,0,0,0,95,126H81.563a1.563,1.563,0,1,0,0,3.125Z" transform="translate(-67.5 -110.375)"/>
          <path id="Path_151992" data-name="Path 151992" d="M81.563,169.125H101.25a1.563,1.563,0,1,0,0-3.125H81.563a1.563,1.563,0,1,0,0,3.125Z" transform="translate(-67.5 -144.125)"/>
          <path id="Path_151993" data-name="Path 151993" d="M81.563,209.125H101.25a1.563,1.563,0,0,0,0-3.125H81.563a1.563,1.563,0,1,0,0,3.125Z" transform="translate(-67.5 -177.875)"/>
          <path id="Path_151994" data-name="Path 151994" d="M81.563,249.125H101.25a1.563,1.563,0,1,0,0-3.125H81.563a1.563,1.563,0,1,0,0,3.125Z" transform="translate(-67.5 -211.625)"/>
          <path id="Path_151995" data-name="Path 151995" d="M81.563,289.125H101.25a1.563,1.563,0,1,0,0-3.125H81.563a1.563,1.563,0,1,0,0,3.125Z" transform="translate(-67.5 -245.375)"/>
          <path id="Path_151996" data-name="Path 151996" d="M81.563,329.125H101.25a1.563,1.563,0,1,0,0-3.125H81.563a1.563,1.563,0,1,0,0,3.125Z" transform="translate(-67.5 -279.125)"/>
          <circle id="Ellipse_4413" data-name="Ellipse 4413" cx="1.674" cy="1.674" r="1.674" transform="translate(16.067 62.502)"/>
        </g>
      </g>
    </g>
  </g>
</svg>
