<svg xmlns="http://www.w3.org/2000/svg" width="190" height="100" viewBox="0 0 190 100">
  <g id="t2-ic1" transform="translate(-180 -1666)">
    <g id="el-planeta-tierra" transform="translate(225 1666)">
      <path id="Path_151046" data-name="Path 151046" d="M113.937,164.389A32.338,32.338,0,1,0,81.6,196.812,32.381,32.381,0,0,0,113.937,164.389Zm0,0" transform="translate(-37.988 -106.125)" fill="#257a53"/>
      <path id="Path_151047" data-name="Path 151047" d="M194.711,131.965a32.518,32.518,0,0,0-4.883.368,32.441,32.441,0,0,1,0,64.112,32.419,32.419,0,1,0,4.883-64.479Zm0,0" transform="translate(-152.752 -106.19)" fill="#1d6142"/>
      <g id="Group_96796" data-name="Group 96796" transform="translate(9.622 25.839)">
        <path id="Path_151048" data-name="Path 151048" d="M164.979,144.832c-4.981,3.121-8.717,8.116-5.915,13.735s9.029,3.434,14.789,2.654,1.4,17.013,4.826,21.384,13.076-4.371,12.142-9.99c-1.382-8.319-1.868-11.238,9.341-17.169l.031-.011A32.374,32.374,0,0,0,171.208,132.3l0,.049s-1.245,9.365-6.227,12.487Zm0,0" transform="translate(-136.845 -132.296)" fill="#ffb64f"/>
        <path id="Path_151049" data-name="Path 151049" d="M318.566,168.6l.006,0Zm0,0" transform="translate(-265.967 -161.508)" fill="#ffb64f"/>
        <path id="Path_151050" data-name="Path 151050" d="M338.809,187.961l0,0Zm0,0" transform="translate(-282.257 -177.089)" fill="#ffb64f"/>
        <path id="Path_151051" data-name="Path 151051" d="M60.117,266.095c-1.5-2.281,2.646-7.648,3.58-11.706s-4.671-3.746-6.383-5.151-4.047-7.492-5.76-8.9l-.274-.217a32.515,32.515,0,0,0,11.161,37.42l.01-.68a14.926,14.926,0,0,0-2.335-10.77Zm0,0" transform="translate(-49.262 -219.065)" fill="#ffb64f"/>
        <path id="Path_151052" data-name="Path 151052" d="M314.465,338.227c-.007-.04-.014-.08-.02-.121a32.27,32.27,0,0,1-2.687,7.117c1.84-2.171,3.069-4.818,2.707-7Zm0,0" transform="translate(-260.489 -297.909)" fill="#ffb64f"/>
      </g>
      <path id="Path_151053" data-name="Path 151053" d="M223.662,132.3l0,.049s-.1.782-.372,1.968a32.436,32.436,0,0,1,20.784,27.364c1.429-1.955,4.043-3.85,8.543-6.231l.031-.011A32.376,32.376,0,0,0,223.662,132.3Zm0,0" transform="translate(-179.677 -106.458)" fill="#ef9310"/>
      <path id="Path_151054" data-name="Path 151054" d="M64.676,43.151C49.037,40.5,39.336,20.808,39.336,20.808S54.989,5.421,70.627,8.073,95.966,30.416,95.966,30.416,80.313,45.8,64.676,43.151Zm0,0" transform="translate(-31.653 -6.249)" fill="#ffb64f"/>
      <path id="Path_151055" data-name="Path 151055" d="M163.088,8.079a24.276,24.276,0,0,0-8.849.222c14.983,3.365,24.227,22.12,24.227,22.12s-10.247,10.071-22.442,12.512c.368.083.738.159,1.112.223,15.637,2.653,31.291-12.735,31.291-12.735s-9.7-19.689-25.339-22.342Zm0,0" transform="translate(-124.113 -6.254)" fill="#ef9310"/>
      <path id="Path_151056" data-name="Path 151056" d="M378.6,36.417c4.2-9.927,18.73-13.269,18.73-13.269s7.734,12.753,3.539,22.679S382.14,59.1,382.14,59.1s-7.734-12.752-3.539-22.678Zm0,0" transform="translate(-303.652 -18.627)" fill="#ffb64f"/>
      <path id="Path_151057" data-name="Path 151057" d="M411.384,23.148a38.893,38.893,0,0,0-7.219,2.633c2.007,4.253,5.19,12.885,2.164,20.046-2.195,5.193-7.219,8.583-11.512,10.636.775,1.642,1.376,2.632,1.376,2.632s14.536-3.342,18.73-13.268-3.539-22.679-3.539-22.679Zm0,0" transform="translate(-317.703 -18.627)" fill="#ef9310"/>
      <path id="Path_151058" data-name="Path 151058" d="M98.418,11.655a40.234,40.234,0,0,0-3.486-7.933,1.494,1.494,0,0,0-1.581-.668,40.27,40.27,0,0,0-8.118,3.029C79.476,8.958,75.454,12.8,73.6,17.18c-1.543,3.651-1.764,8.115-.67,13.046a41.553,41.553,0,0,0-7.811-6.8,60.5,60.5,0,0,0-6.789-10.406,1.466,1.466,0,0,0-2.274,1.848,58.605,58.605,0,0,1,5.405,7.951l-13.344-2.6L35.441,2.926a20.706,20.706,0,0,1,3.7.378A25.294,25.294,0,0,1,50.58,9.2a1.466,1.466,0,0,0,1.9-2.23A28.181,28.181,0,0,0,39.7.428C32.987-.886,25.158.839,17.058,5.416A58.457,58.457,0,0,0,6.814,12.734a1.55,1.55,0,0,0-.174,2.011,59.78,59.78,0,0,0,6.57,10.313,45.812,45.812,0,0,0,6.925,7.118q-1.023.857-1.989,1.8A33.867,33.867,0,0,0,29.1,89.563a1.466,1.466,0,0,0,1.1-2.715,30.927,30.927,0,0,1-6.337-3.486,16.505,16.505,0,0,0-2.487-11.554c-.465-.723.924-3.564,1.753-5.26a27.51,27.51,0,0,0,2.151-5.259A4.009,4.009,0,0,0,23.861,56.9a10.811,10.811,0,0,0-3.483-1.543,7.48,7.48,0,0,1-1.913-.749,19.493,19.493,0,0,1-2.48-4.036,25.058,25.058,0,0,0-2.677-4.4,31.152,31.152,0,0,1,9.248-12.184A25.617,25.617,0,0,0,34.9,38.571c-5.177,4.012-6.852,9.134-4.458,14.055,2.8,5.746,8.549,4.828,13.625,4.019.878-.14,1.787-.285,2.657-.394.327-.041.425.048.491.106,1.112.989,1.079,5.711,1.055,9.16-.033,4.77-.063,9.275,1.714,11.588a4.471,4.471,0,0,0,3.679,1.782,7.388,7.388,0,0,0,2.892-.654c4.418-1.892,9.011-7.587,8.311-12.093C64.252,62.2,63.846,59.6,64.8,57.5c.883-1.942,3.018-3.739,7.223-6.033A30.934,30.934,0,0,1,38.408,88.918a1.466,1.466,0,0,0-.32,2.912,34.051,34.051,0,0,0,27.419-9.451A33.845,33.845,0,0,0,60.3,29.811c1.936-1.38,3.378-2.573,4.177-3.266A38.895,38.895,0,1,1,3.46,51.841a1.466,1.466,0,0,0-2.89-.478A41.813,41.813,0,0,0,35.013,99.432a42.345,42.345,0,0,0,6.9.568A41.841,41.841,0,0,0,80.181,41.488a42.164,42.164,0,0,0,6.754-2.66c5.757-2.875,9.78-6.712,11.633-11.1s1.8-9.944-.15-16.076ZM13.392,51.936c1.09,2.067,2.121,4.02,3.192,4.916a8.394,8.394,0,0,0,2.932,1.3c2.863.88,3.2,1.312,2.921,2.444A25.584,25.584,0,0,1,20.5,65.261c-1.513,3.1-2.942,6.018-1.588,8.13a13.931,13.931,0,0,1,2.217,7.773A31.223,31.223,0,0,1,12.1,49.572c.431.739.884,1.6,1.289,2.364ZM84.27,23.147,80.106,13.058a27.418,27.418,0,0,1,6.378-4.324,39.141,39.141,0,0,1,4.629-1.949ZM93.814,7.921A39.16,39.16,0,0,1,95.647,12.6a28,28,0,0,1,1.327,7.063l-9.756,4.025ZM76.3,18.321a13.92,13.92,0,0,1,1.636-2.843l4.739,11.484L78.421,37.13a38.97,38.97,0,0,1-1.9-4.824c-1.2-3.787-2.209-9.289-.224-13.985Zm9.385,17.857a38.962,38.962,0,0,1-4.483,1.9l4.414-10.551,11.234-4.636a14.149,14.149,0,0,1-.98,3.7c-1.984,4.7-6.634,7.806-10.185,9.587ZM32.86,35.343c-.518-.1-1.028-.225-1.532-.366L47.542,23.092l13.35,2.6c-4.863,3.831-16.7,11.869-28.031,9.649ZM18.043,26.177a57.04,57.04,0,0,1-7.468-10.291L27.563,19.2Zm3-19.545,7.108,9.7-17.1-3.333a57.712,57.712,0,0,1,9.991-6.362ZM32.39,17.154,23.772,5.4A32.951,32.951,0,0,1,31.96,3.134l11.921,16.26Zm-.912,2.807,12.15,2.368L28.034,33.76a30.306,30.306,0,0,1-7.9-5.481ZM71.229,48.568c-5.281,2.814-7.867,5.024-9.094,7.72-1.318,2.895-.835,6-.166,10.3.394,2.536-2.619,7.258-6.568,8.949-1.461.626-2.5.552-3.094-.22-1.164-1.514-1.132-6.1-1.107-9.783.034-5.1.065-9.5-2.038-11.369a3.454,3.454,0,0,0-2.8-.825c-.921.114-1.855.263-2.758.407-5.385.858-8.774,1.2-10.529-2.407C30.23,45.5,35.988,41.169,38.6,39.579a9.275,9.275,0,0,0,1.482-1.13c6.3-.753,12.257-3.457,17.563-6.844A31.094,31.094,0,0,1,71.229,48.568Zm0,0" transform="translate(0 0)"/>
    </g>
    <path id="Path_179712" data-name="Path 179712" d="M418.112,57.5a12.5,12.5,0,1,0,12.5,12.5,12.5,12.5,0,0,0-12.5-12.5m0,19.636A7.136,7.136,0,1,1,425.248,70a7.136,7.136,0,0,1-7.136,7.136" transform="translate(-225.612 1608.501)" fill="#ebdd81"/>
    <circle id="Ellipse_4873" data-name="Ellipse 4873" cx="7" cy="7" r="7" transform="translate(356 1752)" fill="#f9dfbd"/>
    <g id="Group_117647" data-name="Group 117647" transform="translate(184 1742.189)">
      <path id="Path_139699" data-name="Path 139699" d="M46.16,46.828a1.384,1.384,0,1,1-1.383-1.383,1.384,1.384,0,0,1,1.383,1.383" transform="translate(-43.393 -36.993)" fill="#afafaf"/>
      <path id="Path_139700" data-name="Path 139700" d="M60.115,46.828a1.384,1.384,0,1,1-1.383-1.383,1.384,1.384,0,0,1,1.383,1.383" transform="translate(-48.267 -36.993)" fill="#afafaf"/>
      <path id="Path_139701" data-name="Path 139701" d="M74.071,46.828a1.384,1.384,0,1,1-1.384-1.383,1.384,1.384,0,0,1,1.384,1.383" transform="translate(-53.142 -36.993)" fill="#afafaf"/>
      <path id="Path_139702" data-name="Path 139702" d="M88.026,46.828a1.384,1.384,0,1,1-1.384-1.383,1.384,1.384,0,0,1,1.384,1.383" transform="translate(-58.016 -36.993)" fill="#afafaf"/>
      <path id="Path_139707" data-name="Path 139707" d="M46.16,59.814a1.384,1.384,0,1,1-1.383-1.384,1.384,1.384,0,0,1,1.383,1.384" transform="translate(-43.393 -41.529)" fill="#afafaf"/>
      <path id="Path_139708" data-name="Path 139708" d="M60.115,59.814a1.384,1.384,0,1,1-1.383-1.384,1.384,1.384,0,0,1,1.383,1.384" transform="translate(-48.267 -41.529)" fill="#afafaf"/>
      <path id="Path_139709" data-name="Path 139709" d="M74.071,59.814a1.384,1.384,0,1,1-1.384-1.384,1.384,1.384,0,0,1,1.384,1.384" transform="translate(-53.142 -41.529)" fill="#afafaf"/>
      <path id="Path_139710" data-name="Path 139710" d="M88.026,59.814a1.384,1.384,0,1,1-1.384-1.384,1.384,1.384,0,0,1,1.384,1.384" transform="translate(-58.016 -41.529)" fill="#afafaf"/>
    </g>
    <g id="Group_117648" data-name="Group 117648" transform="translate(378.452 1666) rotate(90)">
      <path id="Path_139699-2" data-name="Path 139699" d="M46.16,46.828a1.384,1.384,0,1,1-1.383-1.383,1.384,1.384,0,0,1,1.383,1.383" transform="translate(-43.393 -36.993)" fill="#afafaf"/>
      <path id="Path_139700-2" data-name="Path 139700" d="M60.115,46.828a1.384,1.384,0,1,1-1.383-1.383,1.384,1.384,0,0,1,1.383,1.383" transform="translate(-48.267 -36.993)" fill="#afafaf"/>
      <path id="Path_139701-2" data-name="Path 139701" d="M74.071,46.828a1.384,1.384,0,1,1-1.384-1.383,1.384,1.384,0,0,1,1.384,1.383" transform="translate(-53.142 -36.993)" fill="#afafaf"/>
      <path id="Path_139702-2" data-name="Path 139702" d="M88.026,46.828a1.384,1.384,0,1,1-1.384-1.383,1.384,1.384,0,0,1,1.384,1.383" transform="translate(-58.016 -36.993)" fill="#afafaf"/>
      <path id="Path_139707-2" data-name="Path 139707" d="M46.16,59.814a1.384,1.384,0,1,1-1.383-1.384,1.384,1.384,0,0,1,1.383,1.384" transform="translate(-43.393 -41.529)" fill="#afafaf"/>
      <path id="Path_139708-2" data-name="Path 139708" d="M60.115,59.814a1.384,1.384,0,1,1-1.383-1.384,1.384,1.384,0,0,1,1.383,1.384" transform="translate(-48.267 -41.529)" fill="#afafaf"/>
      <path id="Path_139709-2" data-name="Path 139709" d="M74.071,59.814a1.384,1.384,0,1,1-1.384-1.384,1.384,1.384,0,0,1,1.384,1.384" transform="translate(-53.142 -41.529)" fill="#afafaf"/>
      <path id="Path_139710-2" data-name="Path 139710" d="M88.026,59.814a1.384,1.384,0,1,1-1.384-1.384,1.384,1.384,0,0,1,1.384,1.384" transform="translate(-58.016 -41.529)" fill="#afafaf"/>
    </g>
  </g>
</svg>
