<svg xmlns="http://www.w3.org/2000/svg" width="100" height="100" viewBox="0 0 100 100">
  <g id="t3-p3" transform="translate(-1448 9551)">
    <rect id="Rectangle_39214" data-name="Rectangle 39214" width="100" height="100" transform="translate(1448 -9551)" fill="none"/>
    <g id="surface1" transform="translate(1448 -9549.309)">
      <path id="Path_152644" data-name="Path 152644" d="M16.4,10.262H87.372a6.452,6.452,0,0,1,6.451,6.451V87.681a6.452,6.452,0,0,1-6.451,6.452H16.4a6.452,6.452,0,0,1-6.451-6.452V16.713A6.452,6.452,0,0,1,16.4,10.262Zm0,0" transform="translate(-8.34 -8.34)" fill="#f3f9ff"/>
      <path id="Path_152645" data-name="Path 152645" d="M69.66,144.163H137.4a6.452,6.452,0,0,0,6.451-6.452V69.969Zm0,0" transform="translate(-58.37 -58.37)" fill="#e1faee"/>
      <path id="Path_152646" data-name="Path 152646" d="M39.8,40.117h3.226v3.226H39.8Zm0,0" transform="translate(-33.353 -33.357)" fill="#5eb3d1"/>
      <path id="Path_152647" data-name="Path 152647" d="M79.613,40.117h3.226v3.226H79.613Zm0,0" transform="translate(-66.71 -33.357)" fill="#5eb3d1"/>
      <path id="Path_152648" data-name="Path 152648" d="M119.418,40.117h3.226v3.226h-3.226Zm0,0" transform="translate(-100.063 -33.357)" fill="#5eb3d1"/>
      <path id="Path_152649" data-name="Path 152649" d="M39.8,79.922H114v3.226H39.8Zm0,0" transform="translate(-33.353 -66.71)" fill="#5eb3d1"/>
      <path id="Path_152650" data-name="Path 152650" d="M169.176,159.535H196.6v3.226h-27.42Zm0,0" transform="translate(-141.757 -133.42)" fill="#5eb3d1"/>
      <path id="Path_152651" data-name="Path 152651" d="M169.176,199.34h11.291v3.226H169.176Zm0,0" transform="translate(-141.757 -166.773)" fill="#5eb3d1"/>
      <path id="Path_152652" data-name="Path 152652" d="M258.742,199.34h22.581v3.226H258.742Zm0,0" transform="translate(-216.807 -166.773)" fill="#5eb3d1"/>
      <path id="Path_152653" data-name="Path 152653" d="M358.258,159.535h16.129v3.226H358.258Zm0,0" transform="translate(-300.193 -133.42)" fill="#5eb3d1"/>
      <path id="Path_152654" data-name="Path 152654" d="M47.873,155.762a8.064,8.064,0,1,1,8.064-8.064A8.065,8.065,0,0,1,47.873,155.762Zm0-12.9a4.839,4.839,0,1,0,4.838,4.839A4.838,4.838,0,0,0,47.873,142.859Zm0,0" transform="translate(-33.357 -116.743)" fill="#5eb3d1"/>
      <path id="Path_152655" data-name="Path 152655" d="M169.176,278.953H196.6v3.226h-27.42Zm0,0" transform="translate(-141.757 -233.483)" fill="#5eb3d1"/>
      <path id="Path_152656" data-name="Path 152656" d="M169.176,318.762h11.291v3.226H169.176Zm0,0" transform="translate(-141.757 -266.84)" fill="#5eb3d1"/>
      <path id="Path_152659" data-name="Path 152659" d="M47.873,275.18a8.064,8.064,0,1,1,8.064-8.064A8.065,8.065,0,0,1,47.873,275.18Zm0-12.9a4.839,4.839,0,1,0,4.838,4.839A4.838,4.838,0,0,0,47.873,262.277Zm0,0" transform="translate(-33.357 -216.807)" fill="#5eb3d1"/>
      <path id="Path_152661" data-name="Path 152661" d="M169.176,438.18h11.291v3.226H169.176Zm0,0" transform="translate(-141.757 -366.904)" fill="#5eb3d1"/>
      <path id="Path_152663" data-name="Path 152663" d="M358.258,398.375h16.129V401.6H358.258Zm0,0" transform="translate(-300.193 -333.55)" fill="#5eb3d1"/>
      <path id="Path_152664" data-name="Path 152664" d="M47.873,394.6a8.064,8.064,0,1,1,8.064-8.064A8.065,8.065,0,0,1,47.873,394.6Zm0-12.9a4.839,4.839,0,1,0,4.838,4.839A4.838,4.838,0,0,0,47.873,381.7Zm0,0" transform="translate(-33.357 -316.874)" fill="#5eb3d1"/>
      <path id="Path_152665" data-name="Path 152665" d="M82.531,132.325l9.677-9.677,2.281,2.281-9.677,9.677Zm0,0" transform="translate(-69.155 -102.511)" fill="#e34b87"/>
      <path id="Path_152666" data-name="Path 152666" d="M82.52,251.739l9.677-9.676,2.28,2.28L84.8,254.02Zm0,0" transform="translate(-69.145 -202.572)" fill="#e34b87"/>
      <path id="Path_152667" data-name="Path 152667" d="M82.516,371.157l9.677-9.677,2.281,2.281L84.8,373.438Zm0,0" transform="translate(-69.142 -302.635)" fill="#e34b87"/>
      <path id="Path_152668" data-name="Path 152668" d="M373.563,331.39a22.581,22.581,0,1,1-22.58-22.581A22.58,22.58,0,0,1,373.563,331.39Zm0,0" transform="translate(-275.176 -258.5)" fill="#ffb64f"/>
      <path id="Path_152669" data-name="Path 152669" d="M393.826,393.545a1.528,1.528,0,0,1-.258-.021,1.606,1.606,0,0,1-1.185-.87l-3.226-6.452,2.887-1.441,2.225,4.45,17.773-17.772,2.28,2.28-19.355,19.355A1.608,1.608,0,0,1,393.826,393.545Zm0,0" transform="translate(-326.084 -310.979)" fill="#bf3d75"/>
      <path id="Path_152670" data-name="Path 152670" d="M397.367,408.644a22.552,22.552,0,0,0,30.872-30.871Zm0,0" transform="translate(-332.964 -316.287)" fill="#efa030"/>
      <path id="Path_152671" data-name="Path 152671" d="M8.064,87.405H50V84.18H8.064a4.839,4.839,0,0,1-4.839-4.839V8.373A4.838,4.838,0,0,1,8.064,3.535H79.032a4.838,4.838,0,0,1,4.839,4.838v37.1H87.1V8.373A8.074,8.074,0,0,0,79.032.309H8.064A8.074,8.074,0,0,0,0,8.373V79.341A8.073,8.073,0,0,0,8.064,87.405Zm0,0"/>
      <path id="Path_152672" data-name="Path 152672" d="M39.8,40.117h3.226v3.226H39.8Zm0,0" transform="translate(-33.353 -33.357)"/>
      <path id="Path_152673" data-name="Path 152673" d="M79.613,40.117h3.226v3.226H79.613Zm0,0" transform="translate(-66.71 -33.357)"/>
      <path id="Path_152674" data-name="Path 152674" d="M119.418,40.117h3.226v3.226h-3.226Zm0,0" transform="translate(-100.063 -33.357)"/>
      <path id="Path_152675" data-name="Path 152675" d="M39.8,79.922H114v3.226H39.8Zm0,0" transform="translate(-33.353 -66.71)"/>
      <path id="Path_152676" data-name="Path 152676" d="M56.151,122.645l-4.1,4.1a8.088,8.088,0,1,0,2.281,2.28l4.1-4.1ZM47.614,138.3a4.839,4.839,0,1,1,0-9.678,4.762,4.762,0,0,1,2.072.484l-3.212,3.213,2.28,2.281,3.214-3.212a4.756,4.756,0,0,1,.484,2.073A4.839,4.839,0,0,1,47.614,138.3Zm0,0" transform="translate(-33.097 -102.509)"/>
      <path id="Path_152677" data-name="Path 152677" d="M169.176,159.535H196.6v3.226h-27.42Zm0,0" transform="translate(-141.757 -133.42)"/>
      <path id="Path_152678" data-name="Path 152678" d="M169.176,199.34h11.291v3.226H169.176Zm0,0" transform="translate(-141.757 -166.773)"/>
      <path id="Path_152679" data-name="Path 152679" d="M258.742,199.34h22.581v3.226H258.742Zm0,0" transform="translate(-216.807 -166.773)"/>
      <path id="Path_152680" data-name="Path 152680" d="M358.258,159.535h16.129v3.226H358.258Zm0,0" transform="translate(-300.193 -133.42)"/>
      <path id="Path_152681" data-name="Path 152681" d="M56.151,242.063l-4.1,4.1a8.089,8.089,0,1,0,2.281,2.281l4.1-4.1ZM47.614,257.72a4.839,4.839,0,1,1,0-9.678,4.756,4.756,0,0,1,2.072.484l-3.212,3.213,2.28,2.28,3.214-3.211a4.756,4.756,0,0,1,.484,2.072A4.839,4.839,0,0,1,47.614,257.72Zm0,0" transform="translate(-33.097 -202.572)"/>
      <path id="Path_152682" data-name="Path 152682" d="M169.176,278.953H196.6v3.226h-27.42Zm0,0" transform="translate(-141.757 -233.483)"/>
      <path id="Path_152683" data-name="Path 152683" d="M169.176,318.762h11.291v3.226H169.176Zm0,0" transform="translate(-141.757 -266.84)"/>
      <path id="Path_152684" data-name="Path 152684" d="M258.742,318.762h12.9v3.226h-12.9Zm0,0" transform="translate(-216.807 -266.84)"/>
      <path id="Path_152685" data-name="Path 152685" d="M358.258,278.953h6.452v3.226h-6.452Zm0,0" transform="translate(-300.193 -233.483)"/>
      <path id="Path_152686" data-name="Path 152686" d="M56.151,361.484l-4.1,4.1a8.088,8.088,0,1,0,2.281,2.28l4.1-4.1Zm-8.537,15.657a4.839,4.839,0,0,1,0-9.678,4.765,4.765,0,0,1,2.072.484l-3.212,3.213,2.28,2.28,3.214-3.211a4.756,4.756,0,0,1,.484,2.073A4.839,4.839,0,0,1,47.614,377.141Zm0,0" transform="translate(-33.097 -302.638)"/>
      <path id="Path_152687" data-name="Path 152687" d="M169.176,398.375h20.968V401.6H169.176Zm0,0" transform="translate(-141.757 -333.55)"/>
      <path id="Path_152688" data-name="Path 152688" d="M169.176,438.18h11.291v3.226H169.176Zm0,0" transform="translate(-141.757 -366.904)"/>
      <path id="Path_152689" data-name="Path 152689" d="M258.742,438.18h6.451v3.226h-6.451Zm0,0" transform="translate(-216.807 -366.904)"/>
      <path id="Path_152690" data-name="Path 152690" d="M342.647,347.246a24.193,24.193,0,1,0-24.193-24.193A24.194,24.194,0,0,0,342.647,347.246Zm0-45.161a20.968,20.968,0,1,1-20.968,20.968A20.967,20.967,0,0,1,342.647,302.085Zm0,0" transform="translate(-266.84 -250.163)"/>
      <path id="Path_152691" data-name="Path 152691" d="M392.094,384.757l-2.887,1.442,3.226,6.452a1.612,1.612,0,0,0,1.186.87,1.574,1.574,0,0,0,.25.021,1.608,1.608,0,0,0,1.14-.472l19.355-19.355-2.281-2.28L394.31,389.206Zm0,0" transform="translate(-326.127 -310.975)"/>
    </g>
  </g>
</svg>
