<svg xmlns="http://www.w3.org/2000/svg" width="100" height="100" viewBox="0 0 100 100">
  <g id="t3-p8" transform="translate(-1336 9518)">
    <rect id="Rectangle_39199" data-name="Rectangle 39199" width="100" height="100" transform="translate(1336 -9518)" fill="none"/>
    <g id="grupo" transform="translate(1336 -9613.437)">
      <path id="Path_152068" data-name="Path 152068" d="M50.471,311.873a11.614,11.614,0,0,0-5.669-3.245L36.766,306.7l0,.005,0-.005V301.8H26.953v4.921h0l-8.015,1.915A11.643,11.643,0,0,0,10,319.958v13.129H27.766Z" transform="translate(-8.047 -158.008)" fill="#ebdd81"/>
      <path id="Path_152069" data-name="Path 152069" d="M106.18,301.8v5.038l-5.093,12.2L96,306.852V301.8Z" transform="translate(-77.25 -158.008)" fill="#ffb487"/>
      <path id="Path_152070" data-name="Path 152070" d="M87.827,215.261v6.795a10.938,10.938,0,0,1-10.938,10.938h0a10.938,10.938,0,0,1-10.938-10.938v-6.795Z" transform="translate(-53.07 -88.374)" fill="#ffcdac"/>
      <path id="Path_152071" data-name="Path 152071" d="M87.827,170.356v-2.633a10.938,10.938,0,0,0-10.938-10.937h0a10.938,10.938,0,0,0-10.938,10.938v2.633h7.54a26.079,26.079,0,0,0,13.4-3.709h0" transform="translate(-53.07 -41.319)" fill="#12263f"/>
      <path id="Path_152072" data-name="Path 152072" d="M294.79,311.873a11.614,11.614,0,0,1,5.669-3.245l8.036-1.926,0,.005,0-.005V301.8h9.813v4.921h0l8.015,1.915a11.643,11.643,0,0,1,8.938,11.324v13.129H317.495Z" transform="translate(-237.214 -158.008)" fill="#f9dfbd"/>
      <path id="Path_152073" data-name="Path 152073" d="M123.593,352.4,112.4,355.085a16.217,16.217,0,0,0-12.438,15.771v10.765h60.912V370.865a16.218,16.218,0,0,0-12.45-15.774l-11.163-2.667Z" transform="translate(-80.438 -198.73)" fill="#ef9310"/>
      <g id="Group_97206" data-name="Group 97206" transform="translate(42.71 143.789)">
        <path id="Path_152074" data-name="Path 152074" d="M374.06,301.8v5.055l-5.087,12.181-5.093-12.2V301.8Z" transform="translate(-335.519 -301.797)" fill="#ffb487"/>
        <path id="Path_152075" data-name="Path 152075" d="M225.966,345.315l7.287-16.545a6.015,6.015,0,0,1-.849-3.084V324.1H219.52v1.59a6.015,6.015,0,0,1-.846,3.08Z" transform="translate(-218.674 -319.741)" fill="#ffb487"/>
      </g>
      <path id="Path_152076" data-name="Path 152076" d="M208.47,191.525v10.512a15.235,15.235,0,0,1-15.234,15.235h0A15.234,15.234,0,0,1,178,202.037V191.525Z" transform="translate(-143.235 -69.274)" fill="#ffcdac"/>
      <path id="Path_152077" data-name="Path 152077" d="M193.234,115.437h0A15.234,15.234,0,0,0,178,130.671v3.667h7.449a16.738,16.738,0,0,0,12.829-5.988h0l10.191,5.988v-3.667A15.234,15.234,0,0,0,193.234,115.437Z" transform="translate(-143.234 -8.047)" fill="#12263f"/>
      <path id="Path_152078" data-name="Path 152078" d="M334.045,215.261v6.795a10.938,10.938,0,0,0,10.938,10.938h0a10.938,10.938,0,0,0,10.938-10.938v-6.795Z" transform="translate(-268.802 -88.374)" fill="#ffcdac"/>
      <path id="Path_152079" data-name="Path 152079" d="M334.045,170.356v-2.633a10.938,10.938,0,0,1,10.938-10.937h0a10.938,10.938,0,0,1,10.938,10.938v2.633h-7.54a26.079,26.079,0,0,1-13.4-3.709h0" transform="translate(-268.802 -41.319)" fill="#12263f"/>
      <path id="Path_152080" data-name="Path 152080" d="M247.693,492a1.954,1.954,0,1,0,1.381.572A1.967,1.967,0,0,0,247.693,492Z" transform="translate(-197.744 -311.062)"/>
      <path id="Path_152081" data-name="Path 152081" d="M89.563,148.725l-6.515-1.556v-2.584a12.89,12.89,0,0,0,6.025-10.9V126.4a12.883,12.883,0,0,0-22.536-8.54A17.219,17.219,0,0,0,50.02,105.437h0A17.218,17.218,0,0,0,33.494,117.9,12.883,12.883,0,0,0,10.928,126.4v7.279a12.89,12.89,0,0,0,6.025,10.9v2.584l-6.515,1.556A13.552,13.552,0,0,0,0,161.949v13.129a1.953,1.953,0,0,0,1.953,1.953H17.571v5.859a1.953,1.953,0,0,0,1.953,1.953H40.951a1.953,1.953,0,1,0,0-3.906H32.231v-8.6a1.953,1.953,0,0,0-3.906,0v8.6H21.477v-8.812a14.22,14.22,0,0,1,10.94-13.871l9.606-2.3L48.2,170.014a1.953,1.953,0,0,0,1.788,1.167h0a1.953,1.953,0,0,0,1.788-1.167l6.175-14.041,9.578,2.288a14.218,14.218,0,0,1,10.95,13.874v2.18a1.957,1.957,0,0,0,0,1.528v5.1H71.675v-8.6a1.953,1.953,0,0,0-3.906,0v8.6H58.2a1.953,1.953,0,1,0,0,3.906H80.436a1.953,1.953,0,0,0,1.953-1.953v-5.859H98.047A1.953,1.953,0,0,0,100,175.078V161.949A13.552,13.552,0,0,0,89.563,148.725Zm-10.417.091-2.982,7.14-2.942-7.046a1.952,1.952,0,0,0,.013-.214c0-.018,0-.036,0-.055v-2.412a12.8,12.8,0,0,0,5.907,0v2.484C79.141,148.745,79.143,148.78,79.145,148.816ZM41.2,150.384a13.561,13.561,0,0,0-3.992-1.664l-6.538-1.567v-2.562a12.983,12.983,0,0,0,4.037-4.025A17.311,17.311,0,0,0,41.2,147.51Zm-4.463-17.622v-4.518h5.5a18.64,18.64,0,0,0,13.2-5.457L63.29,127.4v5.818a13.28,13.28,0,0,1-26.552-.458Zm22.038,14.784a17.31,17.31,0,0,0,6.537-6.945,12.991,12.991,0,0,0,4.014,3.99v2.562l-6.538,1.567a13.565,13.565,0,0,0-4.014,1.678v-2.852Zm17.4-4.881a8.995,8.995,0,0,1-8.985-8.984v-.319c.007-.2.012-5.252.012-5.252a28.04,28.04,0,0,0,12.371,2.878h5.587v2.693A9,9,0,0,1,76.181,142.667Zm0-25.247a8.995,8.995,0,0,1,8.985,8.984v.68H79.579a24.132,24.132,0,0,1-12.021-3.208A9,9,0,0,1,76.181,117.419Zm-39.443,5.206a13.282,13.282,0,0,1,26.563,0v.255l-7.249-4.259a1.953,1.953,0,0,0-2.486.43,14.75,14.75,0,0,1-11.332,5.289h-5.5Zm-21.9,3.779a8.985,8.985,0,0,1,17.607-2.528,24.134,24.134,0,0,1-12.021,3.208H14.834v-.68Zm0,4.586h5.587A28.039,28.039,0,0,0,32.8,128.106v5.576a8.985,8.985,0,0,1-17.97,0S14.834,130.99,14.834,130.99Zm8.985,15.583a12.88,12.88,0,0,0,2.947-.344v2.357c0,.037,0,.073,0,.11,0,.062.006.123.012.184l-2.955,7.076-2.966-7.105c0-.047.006-.093.006-.141v-2.484A12.881,12.881,0,0,0,23.819,146.573Zm-6.248,25.553v1H11.719v-8.678a1.953,1.953,0,0,0-3.906,0v8.678H3.906V161.949a9.659,9.659,0,0,1,7.439-9.425l6.191-1.479,4.041,9.679A18.131,18.131,0,0,0,17.571,172.125Zm13.936-17.67a18.36,18.36,0,0,0-3.3,1.135l1.9-4.555,6.192,1.484a9.678,9.678,0,0,1,1.4.452Zm18.485,9.92-4.885-11.113v-4.028a17.2,17.2,0,0,0,9.762.018v4.031Zm12.271-11.389a9.7,9.7,0,0,1,1.437-.467l6.177-1.48,1.91,4.575a18.361,18.361,0,0,0-3.347-1.153Zm33.83,20.139H92.188v-8.678a1.953,1.953,0,0,0-3.906,0v8.678H82.389v-.99A18.131,18.131,0,0,0,78.4,160.747l4.053-9.705,6.206,1.483a9.659,9.659,0,0,1,7.439,9.425Z" transform="translate(0 0)"/>
    </g>
  </g>
</svg>
