<svg xmlns="http://www.w3.org/2000/svg" width="100" height="100" viewBox="0 0 100 100">
  <g id="t3-p1" transform="translate(-1336 9410)">
    <rect id="Rectangle_39200" data-name="Rectangle 39200" width="100" height="100" transform="translate(1336 -9410)" fill="none"/>
    <g id="informacion" transform="translate(1284.501 -9410)">
      <g id="Group_96853" data-name="Group 96853" transform="translate(65.605 1.477)">
        <g id="Group_96852" data-name="Group 96852" transform="translate(0)">
          <path id="Path_151490" data-name="Path 151490" d="M76.007,104.546h63.03a4.379,4.379,0,0,0,4.379-4.379V11.879A4.379,4.379,0,0,0,139.036,7.5H94.8a7.194,7.194,0,0,0-5.086,2.107L73.735,24.488a7.193,7.193,0,0,0-2.107,5.086v70.593A4.379,4.379,0,0,0,76.007,104.546Z" transform="translate(-71.628 -7.5)" fill="#edf5fa"/>
        </g>
      </g>
      <g id="Group_96855" data-name="Group 96855" transform="translate(127.105 1.477)">
        <g id="Group_96854" data-name="Group 96854">
          <path id="Path_151491" data-name="Path 151491" d="M389.816,7.5h-5.908a4.379,4.379,0,0,1,4.379,4.379v88.288a4.379,4.379,0,0,1-4.379,4.379h5.908a4.379,4.379,0,0,0,4.379-4.379V11.879A4.379,4.379,0,0,0,389.816,7.5Z" transform="translate(-383.908 -7.5)" fill="#d0e7f2"/>
        </g>
      </g>
      <g id="Group_96857" data-name="Group 96857" transform="translate(66.6 2.303)">
        <g id="Group_96856" data-name="Group 96856">
          <path id="Path_151492" data-name="Path 151492" d="M76.682,31H92.319a4.594,4.594,0,0,0,4.594-4.594V11.7" transform="translate(-76.682 -11.695)" fill="#ef9310"/>
        </g>
      </g>
      <g id="Group_96859" data-name="Group 96859" transform="translate(101.499 9.766)">
        <g id="Group_96858" data-name="Group 96858">
          <path id="Path_151493" data-name="Path 151493" d="M276.831,62.661a13.07,13.07,0,1,0-17.052,12.45l4.406,7.631,4.634-8.026A13.074,13.074,0,0,0,276.831,62.661Z" transform="translate(-250.691 -49.591)" fill="#ebdd81"/>
        </g>
      </g>
      <g id="Group_96861" data-name="Group 96861" transform="translate(110.985 9.766)">
        <g id="Group_96860" data-name="Group 96860" transform="translate(0)">
          <path id="Path_151494" data-name="Path 151494" d="M305.01,49.591a13.085,13.085,0,0,0-2.954.34,13.071,13.071,0,0,1,2.1,24.785l-1.68,2.909,2.954,5.117,4.634-8.026a13.072,13.072,0,0,0-5.057-25.125Z" transform="translate(-302.056 -49.591)" fill="#dbca58"/>
        </g>
      </g>
      <g id="Group_96862" data-name="Group 96862" transform="translate(64.128 0)">
        <path id="Path_151495" data-name="Path 151495" d="M133.014,0H88.774a8.612,8.612,0,0,0-6.111,2.52L66.7,17.384l-.037.036a8.613,8.613,0,0,0-2.54,6.131V62.278a1.477,1.477,0,0,0,2.954,0V23.551c0-.156.008-.311.02-.465H82.237a6.078,6.078,0,0,0,6.071-6.071V2.974c.154-.012.309-.02.465-.02h44.24a2.9,2.9,0,0,1,2.9,2.9V18.1a1.477,1.477,0,1,0,2.954,0V5.856A5.862,5.862,0,0,0,133.014,0ZM85.354,17.015a3.121,3.121,0,0,1-3.117,3.117H68.217a5.784,5.784,0,0,1,.521-.6L84.695,4.665l.037-.036a5.8,5.8,0,0,1,.622-.539Z" transform="translate(-64.128 0)"/>
        <path id="Path_151496" data-name="Path 151496" d="M137.392,114.424a1.477,1.477,0,0,0-1.477,1.477v70.132a2.9,2.9,0,0,1-2.9,2.9H69.984a2.9,2.9,0,0,1-2.9-2.9V160.076a1.477,1.477,0,0,0-2.954,0v25.958a5.862,5.862,0,0,0,5.856,5.856h63.03a5.862,5.862,0,0,0,5.856-5.856V115.9a1.477,1.477,0,0,0-1.477-1.477Z" transform="translate(-64.128 -91.889)"/>
        <path id="Path_151497" data-name="Path 151497" d="M313.033,118.874a1.477,1.477,0,0,0,1.477-1.477v-5.464a1.477,1.477,0,1,0-2.954,0V117.4A1.477,1.477,0,0,0,313.033,118.874Z" transform="translate(-262.828 -88.703)"/>
        <path id="Path_151498" data-name="Path 151498" d="M313.033,86.944a1.477,1.477,0,0,0,1.477-1.477V84.189a1.477,1.477,0,1,0-2.954,0v1.278A1.477,1.477,0,0,0,313.033,86.944Z" transform="translate(-262.828 -66.423)"/>
        <path id="Path_151499" data-name="Path 151499" d="M256.882,77.457a1.477,1.477,0,0,0,2.558,0l4.392-7.608a14.548,14.548,0,1,0-11.079.457ZM246.145,56.638a11.593,11.593,0,1,1,16.078,10.693,1.477,1.477,0,0,0-.707.623l-3.354,5.81-3.126-5.415a1.477,1.477,0,0,0-.83-.668A11.553,11.553,0,0,1,246.145,56.638Z" transform="translate(-207.926 -33.802)"/>
        <path id="Path_151500" data-name="Path 151500" d="M133.529,171.005H146a1.477,1.477,0,0,0,0-2.954H133.529a1.477,1.477,0,0,0,0,2.954Z" transform="translate(-118.675 -134.955)"/>
        <path id="Path_151501" data-name="Path 151501" d="M133.529,199.005H146a1.477,1.477,0,0,0,0-2.954H133.529a1.477,1.477,0,0,0,0,2.954Z" transform="translate(-118.675 -157.441)"/>
        <path id="Path_151502" data-name="Path 151502" d="M133.529,254.387h47a1.477,1.477,0,0,0,0-2.954h-47a1.477,1.477,0,0,0,0,2.954Z" transform="translate(-118.675 -201.916)"/>
        <path id="Path_151503" data-name="Path 151503" d="M133.529,282.387h47a1.477,1.477,0,0,0,0-2.954h-47a1.477,1.477,0,0,0,0,2.954Z" transform="translate(-118.675 -224.402)"/>
        <path id="Path_151504" data-name="Path 151504" d="M133.529,327.229h38.088a1.477,1.477,0,1,0,0-2.954H133.529a1.477,1.477,0,0,0,0,2.954Z" transform="translate(-118.675 -260.412)"/>
        <path id="Path_151505" data-name="Path 151505" d="M133.529,355.229h47a1.477,1.477,0,0,0,0-2.954h-47a1.477,1.477,0,0,0,0,2.954Z" transform="translate(-118.675 -282.898)"/>
        <path id="Path_151506" data-name="Path 151506" d="M133.529,400.071h47a1.477,1.477,0,0,0,0-2.954h-47a1.477,1.477,0,0,0,0,2.954Z" transform="translate(-118.675 -318.909)"/>
        <path id="Path_151507" data-name="Path 151507" d="M133.529,428.071h24.247a1.477,1.477,0,0,0,0-2.954H133.529a1.477,1.477,0,0,0,0,2.954Z" transform="translate(-118.675 -341.395)"/>
      </g>
    </g>
  </g>
</svg>
